<svg width="36" height="35" viewBox="0 0 36 35" fill="none" xmlns="http://www.w3.org/2000/svg">
<path d="M35.3828 17.491C35.3828 26.8746 27.7719 34.482 18.3828 34.482C8.99373 34.482 1.38281 26.8746 1.38281 17.491C1.38281 8.10737 8.99373 0.5 18.3828 0.5C27.7719 0.5 35.3828 8.10737 35.3828 17.491Z" stroke="black"/>
<path d="M26.075 13.3511C26.4475 14.8026 26.4475 17.8327 26.4475 17.8327C26.4475 17.8327 26.4475 20.8627 26.075 22.3142C25.868 23.1165 25.2625 23.7478 24.4956 23.9612C23.1029 24.3489 18.2979 24.3489 18.2979 24.3489C18.2979 24.3489 13.4954 24.3489 12.1002 23.9612C11.3301 23.7445 10.7254 23.1141 10.5209 22.3142C10.1484 20.8627 10.1484 17.8327 10.1484 17.8327C10.1484 17.8327 10.1484 14.8026 10.5209 13.3511C10.7279 12.5488 11.3334 11.9175 12.1002 11.7041C13.4954 11.3164 18.2979 11.3164 18.2979 11.3164C18.2979 11.3164 23.1029 11.3164 24.4956 11.7041C25.2658 11.9208 25.8705 12.5512 26.075 13.3511ZM16.668 20.6835L21.5578 17.8327L16.668 14.9818V20.6835Z" fill="black"/>
</svg>
