<svg width="36" height="35" viewBox="0 0 36 35" fill="none" xmlns="http://www.w3.org/2000/svg">
<path d="M35.0859 17.491C35.0859 26.8746 27.475 34.482 18.0859 34.482C8.69685 34.482 1.08594 26.8746 1.08594 17.491C1.08594 8.10737 8.69685 0.5 18.0859 0.5C27.475 0.5 35.0859 8.10737 35.0859 17.491Z" stroke="black"/>
<path d="M26.4627 11.8936C25.8405 12.1686 25.1808 12.3493 24.5052 12.4295C25.2173 12.0039 25.7502 11.334 26.0047 10.5447C25.3364 10.9422 24.6038 11.2208 23.8402 11.3715C23.3273 10.8229 22.6474 10.4591 21.9063 10.3367C21.1652 10.2142 20.4043 10.3398 19.742 10.6941C19.0797 11.0484 18.5531 11.6115 18.244 12.2958C17.9349 12.9801 17.8607 13.7473 18.0329 14.4781C16.6777 14.4102 15.3519 14.0582 14.1417 13.445C12.9315 12.8317 11.8638 11.971 11.008 10.9186C10.7051 11.4386 10.5459 12.0298 10.5467 12.6315C10.5467 13.8126 11.1481 14.856 12.0625 15.4669C11.5214 15.4499 10.9922 15.3038 10.519 15.0409V15.0833C10.5192 15.8699 10.7915 16.6322 11.2898 17.241C11.7882 17.8498 12.4818 18.2677 13.2532 18.4237C12.7508 18.5597 12.2241 18.5798 11.7129 18.4823C11.9304 19.1594 12.3543 19.7515 12.9252 20.1758C13.4962 20.6001 14.1856 20.8353 14.8969 20.8485C14.1899 21.4035 13.3804 21.8137 12.5147 22.0558C11.649 22.2979 10.744 22.367 9.85156 22.2593C11.4095 23.2607 13.2231 23.7923 15.0754 23.7906C21.3448 23.7906 24.7733 18.5996 24.7733 14.0977C24.7733 13.9511 24.7692 13.8028 24.7627 13.6578C25.4301 13.1758 26.006 12.5786 26.4635 11.8944L26.4627 11.8936Z" fill="black"/>
</svg>
