<svg width="47" height="60" viewBox="0 0 47 60" fill="none" xmlns="http://www.w3.org/2000/svg">
<path d="M20.4791 33.7864L24.6114 34.9276C25.176 35.0835 25.7591 34.7525 25.9149 34.1882L32.769 9.36894C33.2356 7.67923 32.2408 5.92512 30.551 5.45846C28.8145 4.97892 27.0605 5.9738 26.5938 7.6636L19.7397 32.4829C19.584 33.0467 19.9146 33.6301 20.4792 33.786L20.4791 33.7864ZM24.1542 32.6027L22.0647 32.0257L28.6367 8.22787C28.7922 7.66474 29.3767 7.33287 29.9402 7.4885C30.5508 7.65711 30.8818 8.24175 30.7263 8.80492L24.1542 32.6027Z" fill="black"/>
<path d="M16.1812 38.1623L26.0486 40.8873C26.4068 40.9862 26.7894 40.8901 27.0597 40.635C27.3289 40.3792 27.4451 40.0018 27.3658 39.639C26.7639 36.8937 27.7193 34.9387 27.729 34.9194C27.8759 34.6358 27.887 34.3011 27.7586 34.0081C27.6312 33.7157 27.3783 33.4964 27.0701 33.4113L19.1415 31.2217C18.8332 31.1366 18.5036 31.1955 18.2443 31.3806C17.9852 31.5651 17.8233 31.8553 17.8024 32.1721C17.7981 32.2267 17.6034 34.3816 15.6913 36.4149C15.4371 36.6856 15.3432 37.0692 15.443 37.4269C15.5425 37.7841 15.823 38.0633 16.1809 38.1622L16.1812 38.1623ZM25.0641 38.4168L18.2943 36.5473C19.0581 35.4216 19.465 34.3526 19.6795 33.5685L25.4037 35.1493C25.1855 35.9323 24.9861 37.0587 25.0641 38.4168Z" fill="black"/>
<path d="M16.9548 54.4709C27.0102 56.8957 34.7905 52.1754 35.1168 51.9733C35.4315 51.7779 35.6214 51.4324 35.6176 51.0622C35.6147 50.6913 35.4172 50.3497 35.0989 50.1609C30.8175 47.6233 28.0907 42.9276 27.3694 39.639C27.2846 39.2547 26.9952 38.9496 26.6162 38.8449L16.7489 36.1199C16.3699 36.0153 15.9649 36.1287 15.6949 36.415C13.388 38.8673 8.63786 41.4982 3.66115 41.4791C3.29109 41.4777 2.94623 41.6696 2.75349 41.9864C2.55983 42.3021 2.54543 42.6965 2.7165 43.0256C2.89269 43.3665 7.14788 51.4106 16.9555 54.4711L16.9548 54.4709ZM32.4682 50.9447C29.8524 52.1131 24.1638 54.0302 17.5186 52.4292C11.0197 50.3992 7.14525 45.8443 5.51081 43.5017C10.1278 43.0119 14.3051 40.7185 16.7828 38.3277L25.4534 40.7222C26.3526 44.0443 28.7592 48.1539 32.4683 50.9446L32.4682 50.9447Z" fill="black"/>
<path d="M16.9829 54.4868C17.5476 54.6427 18.1306 54.3117 18.2865 53.7474L19.9972 47.5527C20.153 46.9885 19.8225 46.4051 19.2578 46.2492C18.6932 46.0932 18.1101 46.4242 17.9543 46.9885L16.2436 53.1832C16.0878 53.7475 16.4183 54.3308 16.9829 54.4868Z" fill="black"/>
<path d="M10.2798 50.6962C10.6888 50.8092 11.1433 50.6679 11.4125 50.3068L15.0132 45.4666C15.3619 44.9967 15.2652 44.3332 14.7947 43.9839C14.3289 43.6332 13.6627 43.7323 13.3123 44.2014L9.7116 49.0416C9.36293 49.5115 9.45961 50.175 9.93014 50.5243C10.0374 50.6049 10.1572 50.6623 10.2798 50.6962Z" fill="black"/>
<path d="M24.7036 54.8403C24.8262 54.8742 24.9581 54.8863 25.0929 54.8729C25.675 54.8139 26.0989 54.2942 26.0403 53.7122L25.417 47.5527C25.3577 46.9706 24.8397 46.5448 24.2553 46.6051C23.6732 46.6641 23.2494 47.1838 23.3079 47.7658L23.9312 53.9253C23.977 54.3729 24.2946 54.7274 24.7036 54.8403Z" fill="black"/>
</svg>
