<svg width="55" height="55" viewBox="0 0 55 55" fill="none" xmlns="http://www.w3.org/2000/svg">
<path d="M27.5026 50.4193C40.159 50.4193 50.4193 40.159 50.4193 27.5026C50.4193 14.8461 40.159 4.58594 27.5026 4.58594C14.8461 4.58594 4.58594 14.8461 4.58594 27.5026C4.58594 40.159 14.8461 50.4193 27.5026 50.4193Z" stroke="black" strokeWidth="2" strokeLinecap="round" strokeLinejoin="round"/>
<path d="M34.375 19.4766C32.8052 17.9068 30.0408 16.8149 27.5 16.7465M27.5 16.7465C24.4771 16.6652 21.7708 18.0328 21.7708 21.7683C21.7708 28.6432 34.375 25.2057 34.375 32.0807C34.375 36.0018 31.0205 37.6866 27.5 37.5601M27.5 16.7465V12.6016M20.625 34.3724C22.1019 36.3416 24.8481 37.4648 27.5 37.5601M27.5 37.5601V42.3932" stroke="black" strokeWidth="2" strokeLinecap="round" strokeLinejoin="round"/>
</svg>
