<svg width="36" height="35" viewBox="0 0 36 35" fill="none" xmlns="http://www.w3.org/2000/svg">
<path d="M34.7969 17.491C34.7969 26.8746 27.186 34.482 17.7969 34.482C8.40779 34.482 0.796875 26.8746 0.796875 17.491C0.796875 8.10737 8.40779 0.5 17.7969 0.5C27.186 0.5 34.7969 8.10737 34.7969 17.491Z" stroke="black"/>
<path d="M19.3765 18.6249H21.4139L22.2289 15.3668H19.3765V13.7377C19.3765 12.8988 19.3765 12.1087 21.0064 12.1087H22.2289V9.37185C21.9632 9.33682 20.96 9.25781 19.9005 9.25781C17.688 9.25781 16.1167 10.6075 16.1167 13.0861V15.3668H13.6719V18.6249H16.1167V25.5485H19.3765V18.6249Z" fill="black"/>
</svg>
