<svg width="60" height="54" viewBox="0 0 60 54" fill="none" xmlns="http://www.w3.org/2000/svg">
<path d="M50 24.75C50 14.8089 41.0458 6.75 30 6.75C18.9543 6.75 10 14.8089 10 24.75" stroke="black" stroke-width="2.3" stroke-linecap="round" stroke-linejoin="round"/>
<path d="M5 34.733V30.5102C5 28.4451 6.56148 26.6454 8.78733 26.1445L13.1362 25.166C14.0829 24.9529 15 25.5973 15 26.4757V38.7675C15 39.6459 14.0829 40.2903 13.1362 40.0772L8.78733 39.0987C6.56148 38.5978 5 36.798 5 34.733Z" stroke="black" stroke-width="2.3"/>
<path d="M55 34.733V30.5102C55 28.4451 53.4385 26.6454 51.2127 26.1445L46.8638 25.166C45.917 24.9529 45 25.5973 45 26.4757V38.7675C45 39.6459 45.917 40.2903 46.8638 40.0772L51.2127 39.0987C53.4385 38.5978 55 36.798 55 34.733Z" stroke="black" stroke-width="2.3"/>
<path d="M50 40.5V41.625C50 44.1103 47.7615 46.125 45 46.125H36.25" stroke="black" stroke-width="2.3"/>
<path d="M33.75 49.5H26.25C24.1789 49.5 22.5 47.9889 22.5 46.125C22.5 44.2611 24.1789 42.75 26.25 42.75H33.75C35.821 42.75 37.5 44.2611 37.5 46.125C37.5 47.9889 35.821 49.5 33.75 49.5Z" stroke="black" stroke-width="2.3"/>
</svg>
