<svg width="35" height="35" viewBox="0 0 35 35" fill="none" xmlns="http://www.w3.org/2000/svg">
<path d="M34.5 17.491C34.5 26.8746 26.8891 34.482 17.5 34.482C8.11092 34.482 0.5 26.8746 0.5 17.491C0.5 8.10737 8.11092 0.5 17.5 0.5C26.8891 0.5 34.5 8.10737 34.5 17.491Z" stroke="black"/>
<path d="M17.4151 9.25781C19.6294 9.25781 19.9056 9.26596 20.7744 9.30668C21.6423 9.34741 22.2331 9.48344 22.7531 9.68544C23.2909 9.89233 23.744 10.1725 24.1972 10.6246C24.6116 11.0318 24.9322 11.5243 25.1368 12.0679C25.3381 12.5868 25.475 13.1782 25.5157 14.0456C25.5541 14.9139 25.5646 15.19 25.5646 17.4031C25.5646 19.6162 25.5565 19.8923 25.5157 20.7606C25.475 21.6281 25.3381 22.2186 25.1368 22.7383C24.9328 23.2822 24.6121 23.7749 24.1972 24.1817C23.7896 24.5957 23.2969 24.9162 22.7531 25.1208C22.2339 25.322 21.6423 25.4589 20.7744 25.4996C19.9056 25.5379 19.6294 25.5485 17.4151 25.5485C15.2009 25.5485 14.9246 25.5403 14.0559 25.4996C13.188 25.4589 12.5971 25.322 12.0772 25.1208C11.5331 24.9168 11.0402 24.5962 10.6331 24.1817C10.2186 23.7746 9.89797 23.282 9.69347 22.7383C9.49137 22.2195 9.35527 21.6281 9.31452 20.7606C9.27622 19.8923 9.26562 19.6162 9.26562 17.4031C9.26562 15.19 9.27377 14.9139 9.31452 14.0456C9.35527 13.1773 9.49137 12.5876 9.69347 12.0679C9.8974 11.524 10.2181 11.0313 10.6331 10.6246C11.0403 10.2102 11.5332 9.88967 12.0772 9.68544C12.5971 9.48344 13.1872 9.34741 14.0559 9.30668C14.9246 9.2684 15.2009 9.25781 17.4151 9.25781ZM17.4151 13.3305C16.3344 13.3305 15.298 13.7596 14.5338 14.5233C13.7697 15.2871 13.3404 16.323 13.3404 17.4031C13.3404 18.4833 13.7697 19.5192 14.5338 20.2829C15.298 21.0467 16.3344 21.4758 17.4151 21.4758C18.4958 21.4758 19.5323 21.0467 20.2964 20.2829C21.0606 19.5192 21.4899 18.4833 21.4899 17.4031C21.4899 16.323 21.0606 15.2871 20.2964 14.5233C19.5323 13.7596 18.4958 13.3305 17.4151 13.3305ZM22.7123 13.1268C22.7123 12.8568 22.605 12.5978 22.4139 12.4069C22.2229 12.2159 21.9638 12.1087 21.6936 12.1087C21.4235 12.1087 21.1643 12.2159 20.9733 12.4069C20.7823 12.5978 20.6749 12.8568 20.6749 13.1268C20.6749 13.3969 20.7823 13.6558 20.9733 13.8468C21.1643 14.0377 21.4235 14.145 21.6936 14.145C21.9638 14.145 22.2229 14.0377 22.4139 13.8468C22.605 13.6558 22.7123 13.3969 22.7123 13.1268ZM17.4151 14.9595C18.0635 14.9595 18.6854 15.217 19.1439 15.6752C19.6024 16.1335 19.86 16.7551 19.86 17.4031C19.86 18.0512 19.6024 18.6728 19.1439 19.131C18.6854 19.5893 18.0635 19.8467 17.4151 19.8467C16.7667 19.8467 16.1449 19.5893 15.6864 19.131C15.2279 18.6728 14.9703 18.0512 14.9703 17.4031C14.9703 16.7551 15.2279 16.1335 15.6864 15.6752C16.1449 15.217 16.7667 14.9595 17.4151 14.9595Z" fill="black"/>
</svg>
