<?xml version="1.0" encoding="UTF-8"?>
<svg id="Layer_1" data-name="Layer 1" xmlns="http://www.w3.org/2000/svg" viewBox="0 0 1496.65 66.08">
  <defs>
    <style>
      .cls-1 {
        fill: none;
        stroke: #ddd;
        stroke-miterlimit: 10;
      }
    </style>
  </defs>
  <g>
    <path class="cls-1" d="M27.36,52.8c-3.81,0-7.34-.66-10.61-1.97-3.26-1.31-6.11-3.16-8.53-5.54-2.43-2.38-4.32-5.16-5.68-8.33-1.36-3.17-2.04-6.62-2.04-10.34s.67-7.16,2.01-10.34c1.34-3.17,3.22-5.94,5.64-8.3S13.42,3.79,16.68,2.47c3.26-1.31,6.82-1.97,10.68-1.97s7.41,.66,10.68,1.97c3.26,1.32,6.11,3.15,8.53,5.51,2.42,2.36,4.31,5.12,5.64,8.3,1.34,3.17,2.01,6.62,2.01,10.34s-.68,7.16-2.04,10.34c-1.36,3.17-3.25,5.95-5.68,8.33s-5.27,4.23-8.53,5.54-6.8,1.97-10.61,1.97Zm0-9.52c2.31,0,4.45-.41,6.43-1.22,1.97-.82,3.71-1.96,5.2-3.43,1.5-1.47,2.65-3.23,3.47-5.27s1.22-4.28,1.22-6.73-.41-4.68-1.22-6.7c-.82-2.02-1.97-3.77-3.47-5.27s-3.23-2.64-5.2-3.43c-1.97-.79-4.11-1.19-6.43-1.19s-4.45,.4-6.43,1.19c-1.97,.79-3.71,1.94-5.2,3.43s-2.65,3.25-3.47,5.27-1.22,4.25-1.22,6.7,.41,4.69,1.22,6.73c.81,2.04,1.97,3.8,3.47,5.27,1.5,1.47,3.23,2.62,5.2,3.43,1.97,.82,4.11,1.22,6.43,1.22Z"/>
    <path class="cls-1" d="M117.6,14.86h-14.76v-.54c0-1.63,.49-2.87,1.46-3.71s2.41-1.26,4.32-1.26c.36,0,.71,.01,1.05,.03,.34,.02,.74,.08,1.19,.17V.85c-.45-.09-1.02-.17-1.7-.24s-1.32-.1-1.9-.1c-3.08,0-5.71,.54-7.89,1.63s-3.84,2.65-5,4.69-1.73,4.53-1.73,7.48v.54h-17v-.54c0-1.63,.49-2.87,1.46-3.71s2.41-1.26,4.32-1.26c.36,0,.71,.01,1.05,.03,.34,.02,.74,.08,1.19,.17V.85c-.45-.09-1.02-.17-1.7-.24s-1.32-.1-1.9-.1c-3.08,0-5.71,.54-7.89,1.63s-3.84,2.65-5,4.69-1.73,4.53-1.73,7.48v.54h-6.26v8.84h6.26v28.29h10.2V23.7h17v28.29h10.2V23.7h11.76v28.29h10.2V14.86h-7.2Z"/>
    <path class="cls-1" d="M149.76,52.8c-3.72,0-7.06-.85-10.03-2.55s-5.33-4.02-7.07-6.97c-1.75-2.95-2.62-6.26-2.62-9.93s.86-6.97,2.58-9.89,4.08-5.22,7.07-6.9,6.35-2.52,10.06-2.52c2.76,0,5.33,.48,7.68,1.43,2.36,.95,4.37,2.28,6.05,3.98,1.68,1.7,2.88,3.71,3.6,6.02l-8.84,3.81c-.64-1.86-1.71-3.33-3.23-4.42-1.52-1.09-3.28-1.63-5.27-1.63-1.77,0-3.34,.43-4.73,1.29-1.38,.86-2.47,2.06-3.26,3.6-.79,1.54-1.19,3.31-1.19,5.3s.4,3.76,1.19,5.3c.79,1.54,1.88,2.74,3.26,3.6,1.38,.86,2.96,1.29,4.73,1.29,2.04,0,3.81-.54,5.3-1.63s2.56-2.56,3.2-4.42l8.84,3.88c-.68,2.18-1.86,4.13-3.54,5.85-1.68,1.72-3.7,3.07-6.05,4.05-2.36,.97-4.94,1.46-7.75,1.46h.02Z"/>
    <path class="cls-1" d="M207.42,25.16c-.82-2.2-2.01-4.14-3.57-5.81-1.56-1.68-3.48-2.98-5.75-3.91s-4.87-1.39-7.82-1.39c-3.54,0-6.71,.84-9.52,2.52-2.81,1.68-5.04,3.97-6.7,6.87-1.66,2.9-2.48,6.21-2.48,9.93s.79,6.85,2.38,9.79c1.59,2.95,3.83,5.29,6.73,7.04s6.32,2.62,10.27,2.62c2.54,0,4.87-.37,7-1.12s3.98-1.8,5.54-3.16,2.71-2.95,3.43-4.76l-8.16-3.88c-.73,1.27-1.73,2.27-3.03,2.99-1.29,.73-2.85,1.09-4.66,1.09-2,0-3.7-.44-5.1-1.33-1.41-.88-2.45-2.12-3.13-3.71-.35-.82-.58-1.7-.7-2.65h26c.18-.5,.31-1.1,.37-1.8,.07-.7,.1-1.42,.1-2.14,0-2.58-.41-4.97-1.22-7.17l.02-.02Zm-21.69-1.67c1.27-.86,2.79-1.29,4.56-1.29s3.34,.44,4.59,1.33c1.25,.88,2.12,2.09,2.62,3.6,.17,.53,.27,1.09,.33,1.67h-15.38c.12-.52,.26-1.03,.43-1.5,.63-1.68,1.59-2.95,2.86-3.81h0Z"/>
    <path class="cls-1" d="M246.05,52.8c-3.17,0-6.15-.58-8.94-1.73-2.79-1.16-5.19-2.8-7.21-4.93s-3.53-4.65-4.52-7.55l8.64-3.88c1.27,2.77,3.03,4.94,5.27,6.53s4.73,2.38,7.45,2.38c1.45,0,2.7-.23,3.74-.68,1.04-.45,1.86-1.08,2.45-1.87,.59-.79,.88-1.73,.88-2.82,0-1.18-.36-2.19-1.09-3.03s-1.86-1.51-3.4-2.01l-9.93-3.26c-4.04-1.31-7.07-3.18-9.11-5.61-2.04-2.42-3.06-5.34-3.06-8.74,0-2.99,.74-5.62,2.21-7.89s3.54-4.03,6.19-5.3c2.65-1.27,5.7-1.9,9.15-1.9,3.04,0,5.85,.52,8.43,1.56,2.58,1.04,4.82,2.52,6.7,4.42s3.3,4.19,4.25,6.87l-8.57,3.88c-.95-2.36-2.38-4.2-4.28-5.54s-4.08-2.01-6.53-2.01c-1.41,0-2.65,.23-3.74,.68-1.09,.45-1.93,1.1-2.52,1.94-.59,.84-.88,1.8-.88,2.89,0,1.18,.38,2.21,1.16,3.09,.77,.88,1.93,1.58,3.47,2.07l9.72,3.13c4.08,1.32,7.13,3.15,9.15,5.51s3.03,5.24,3.03,8.64c0,2.95-.77,5.57-2.31,7.85-1.54,2.29-3.66,4.08-6.36,5.37-2.7,1.29-5.84,1.94-9.42,1.94h-.02Z"/>
    <path class="cls-1" d="M299.63,14.86v3.87c-1.11-1.3-2.47-2.36-4.11-3.16-2.11-1.02-4.52-1.53-7.24-1.53-3.54,0-6.73,.86-9.59,2.58s-5.12,4.05-6.8,6.97-2.52,6.2-2.52,9.83,.83,6.85,2.48,9.79c1.65,2.95,3.91,5.28,6.77,7s6.1,2.58,9.72,2.58c2.54,0,4.9-.47,7.07-1.39,1.36-.58,2.53-1.36,3.54-2.29v16.47h10.2V14.86h-9.52Zm-5.17,27.47c-1.41,.86-3.04,1.29-4.9,1.29s-3.53-.43-5-1.29-2.62-2.06-3.43-3.6c-.82-1.54-1.22-3.31-1.22-5.3s.41-3.75,1.22-5.27c.82-1.52,1.96-2.72,3.43-3.6,1.47-.88,3.14-1.33,5-1.33s3.49,.43,4.9,1.29c1.4,.86,2.5,2.06,3.3,3.6,.79,1.54,1.19,3.31,1.19,5.3s-.4,3.76-1.19,5.3-1.89,2.74-3.3,3.6h0Z"/>
    <path class="cls-1" d="M339.68,14.86v21.69c0,1.41-.28,2.64-.85,3.71s-1.36,1.89-2.38,2.48c-1.02,.59-2.21,.88-3.57,.88s-2.49-.29-3.54-.88c-1.04-.59-1.85-1.42-2.41-2.48-.57-1.06-.85-2.3-.85-3.71V14.86h-10.2v22.51c0,3.08,.54,5.78,1.63,8.09s2.69,4.11,4.79,5.41,4.66,1.94,7.65,1.94c2.58,0,4.84-.53,6.77-1.6,1.58-.87,2.77-2.15,3.64-3.79v4.58h9.52V14.86h-10.2Z"/>
    <path class="cls-1" d="M387.52,20.47c-1.34-2.02-3.21-3.59-5.61-4.73-2.4-1.13-5.17-1.7-8.3-1.7-2.63,0-5.06,.41-7.28,1.22-2.22,.82-4.13,1.97-5.71,3.47-1.59,1.5-2.74,3.29-3.47,5.37l8.16,3.88c.63-1.63,1.64-2.95,3.03-3.94,1.38-1,2.98-1.5,4.79-1.5,1.9,0,3.41,.48,4.52,1.43s1.67,2.13,1.67,3.54v.99l-10.27,1.66c-2.95,.45-5.41,1.22-7.38,2.31s-3.43,2.44-4.39,4.05c-.95,1.61-1.43,3.46-1.43,5.54,0,2.22,.52,4.14,1.56,5.75s2.54,2.85,4.49,3.71c1.95,.86,4.26,1.29,6.94,1.29,1.99,0,3.81-.26,5.44-.78s3.1-1.31,4.42-2.38c.45-.36,.87-.77,1.29-1.19v3.54h9.52V27.51c0-2.67-.67-5.02-2.01-7.04h.02Zm-9.25,20.81c-.7,1.25-1.69,2.23-2.96,2.96s-2.74,1.09-4.42,1.09c-1.27,0-2.34-.32-3.2-.95-.86-.63-1.29-1.52-1.29-2.65,0-1.22,.38-2.16,1.16-2.82,.77-.66,1.88-1.12,3.33-1.39l8.43-1.51v1.17c0,1.5-.35,2.87-1.05,4.11h0Z"/>
    <path class="cls-1" d="M416.59,14.45c-2.58,0-4.82,.56-6.7,1.67-1.43,.85-2.55,2.28-3.37,4.29v-5.55h-9.52V51.99h10.2V31.99c0-2.76,.77-4.91,2.31-6.43s3.56-2.28,6.05-2.28h3.2V14.45h-2.17Z"/>
    <path class="cls-1" d="M457.59,25.16c-.82-2.2-2.01-4.14-3.57-5.81-1.56-1.68-3.48-2.98-5.75-3.91s-4.87-1.39-7.82-1.39c-3.54,0-6.71,.84-9.52,2.52-2.81,1.68-5.04,3.97-6.7,6.87-1.66,2.9-2.48,6.21-2.48,9.93s.79,6.85,2.38,9.79c1.59,2.95,3.83,5.29,6.73,7.04,2.9,1.75,6.32,2.62,10.27,2.62,2.54,0,4.87-.37,7-1.12s3.98-1.8,5.54-3.16,2.71-2.95,3.43-4.76l-8.16-3.88c-.73,1.27-1.73,2.27-3.03,2.99-1.29,.73-2.85,1.09-4.66,1.09-2,0-3.7-.44-5.1-1.33-1.41-.88-2.45-2.12-3.13-3.71-.35-.82-.58-1.7-.7-2.65h26c.18-.5,.31-1.1,.37-1.8,.07-.7,.1-1.42,.1-2.14,0-2.58-.41-4.97-1.22-7.17l.02-.02Zm-21.69-1.67c1.27-.86,2.79-1.29,4.56-1.29s3.34,.44,4.59,1.33c1.25,.88,2.12,2.09,2.62,3.6,.17,.53,.27,1.09,.33,1.67h-15.38c.12-.52,.26-1.03,.43-1.5,.63-1.68,1.59-2.95,2.86-3.81h0Z"/>
  </g>
  <g>
    <path class="cls-1" d="M546.04,52.8c-3.81,0-7.34-.66-10.61-1.97-3.26-1.31-6.11-3.16-8.53-5.54-2.43-2.38-4.32-5.16-5.68-8.33-1.36-3.17-2.04-6.62-2.04-10.34s.67-7.16,2.01-10.34c1.34-3.17,3.22-5.94,5.64-8.3s5.27-4.19,8.53-5.51c3.26-1.31,6.82-1.97,10.68-1.97s7.41,.66,10.68,1.97c3.26,1.32,6.11,3.15,8.53,5.51,2.42,2.36,4.31,5.12,5.64,8.3,1.34,3.17,2.01,6.62,2.01,10.34s-.68,7.16-2.04,10.34c-1.36,3.17-3.25,5.95-5.68,8.33s-5.27,4.23-8.53,5.54-6.8,1.97-10.61,1.97Zm0-9.52c2.31,0,4.45-.41,6.43-1.22,1.97-.82,3.71-1.96,5.2-3.43,1.5-1.47,2.65-3.23,3.47-5.27s1.22-4.28,1.22-6.73-.41-4.68-1.22-6.7c-.82-2.02-1.97-3.77-3.47-5.27s-3.23-2.64-5.2-3.43c-1.97-.79-4.11-1.19-6.43-1.19s-4.45,.4-6.43,1.19c-1.97,.79-3.71,1.94-5.2,3.43s-2.65,3.25-3.47,5.27-1.22,4.25-1.22,6.7,.41,4.69,1.22,6.73c.81,2.04,1.97,3.8,3.47,5.27,1.5,1.47,3.23,2.62,5.2,3.43,1.97,.82,4.11,1.22,6.43,1.22Z"/>
    <path class="cls-1" d="M636.28,14.86h-14.76v-.54c0-1.63,.49-2.87,1.46-3.71s2.41-1.26,4.32-1.26c.36,0,.71,.01,1.05,.03,.34,.02,.74,.08,1.19,.17V.85c-.45-.09-1.02-.17-1.7-.24s-1.32-.1-1.9-.1c-3.08,0-5.71,.54-7.89,1.63s-3.84,2.65-5,4.69-1.73,4.53-1.73,7.48v.54h-17v-.54c0-1.63,.49-2.87,1.46-3.71s2.41-1.26,4.32-1.26c.36,0,.71,.01,1.05,.03,.34,.02,.74,.08,1.19,.17V.85c-.45-.09-1.02-.17-1.7-.24s-1.32-.1-1.9-.1c-3.08,0-5.71,.54-7.89,1.63s-3.84,2.65-5,4.69-1.73,4.53-1.73,7.48v.54h-6.26v8.84h6.26v28.29h10.2V23.7h17v28.29h10.2V23.7h11.76v28.29h10.2V14.86h-7.2Z"/>
    <path class="cls-1" d="M668.44,52.8c-3.72,0-7.06-.85-10.03-2.55s-5.33-4.02-7.07-6.97c-1.75-2.95-2.62-6.26-2.62-9.93s.86-6.97,2.58-9.89,4.08-5.22,7.07-6.9,6.35-2.52,10.06-2.52c2.76,0,5.33,.48,7.68,1.43,2.36,.95,4.37,2.28,6.05,3.98,1.68,1.7,2.88,3.71,3.6,6.02l-8.84,3.81c-.64-1.86-1.71-3.33-3.23-4.42-1.52-1.09-3.28-1.63-5.27-1.63-1.77,0-3.34,.43-4.73,1.29-1.38,.86-2.47,2.06-3.26,3.6-.79,1.54-1.19,3.31-1.19,5.3s.4,3.76,1.19,5.3c.79,1.54,1.88,2.74,3.26,3.6,1.38,.86,2.96,1.29,4.73,1.29,2.04,0,3.81-.54,5.3-1.63s2.56-2.56,3.2-4.42l8.84,3.88c-.68,2.18-1.86,4.13-3.54,5.85-1.68,1.72-3.7,3.07-6.05,4.05-2.36,.97-4.94,1.46-7.75,1.46h.02Z"/>
    <path class="cls-1" d="M726.1,25.16c-.82-2.2-2.01-4.14-3.57-5.81-1.56-1.68-3.48-2.98-5.75-3.91s-4.87-1.39-7.82-1.39c-3.54,0-6.71,.84-9.52,2.52-2.81,1.68-5.04,3.97-6.7,6.87-1.66,2.9-2.48,6.21-2.48,9.93s.79,6.85,2.38,9.79c1.59,2.95,3.83,5.29,6.73,7.04s6.32,2.62,10.27,2.62c2.54,0,4.87-.37,7-1.12s3.98-1.8,5.54-3.16,2.71-2.95,3.43-4.76l-8.16-3.88c-.73,1.27-1.73,2.27-3.03,2.99-1.29,.73-2.85,1.09-4.66,1.09-2,0-3.7-.44-5.1-1.33-1.41-.88-2.45-2.12-3.13-3.71-.35-.82-.58-1.7-.7-2.65h26c.18-.5,.31-1.1,.37-1.8,.07-.7,.1-1.42,.1-2.14,0-2.58-.41-4.97-1.22-7.17l.02-.02Zm-21.69-1.67c1.27-.86,2.79-1.29,4.56-1.29s3.34,.44,4.59,1.33c1.25,.88,2.12,2.09,2.62,3.6,.17,.53,.27,1.09,.33,1.67h-15.38c.12-.52,.26-1.03,.43-1.5,.63-1.68,1.59-2.95,2.86-3.81h0Z"/>
    <path class="cls-1" d="M764.73,52.8c-3.17,0-6.15-.58-8.94-1.73-2.79-1.16-5.19-2.8-7.21-4.93s-3.53-4.65-4.52-7.55l8.64-3.88c1.27,2.77,3.03,4.94,5.27,6.53s4.73,2.38,7.45,2.38c1.45,0,2.7-.23,3.74-.68,1.04-.45,1.86-1.08,2.45-1.87,.59-.79,.88-1.73,.88-2.82,0-1.18-.36-2.19-1.09-3.03s-1.86-1.51-3.4-2.01l-9.93-3.26c-4.04-1.31-7.07-3.18-9.11-5.61-2.04-2.42-3.06-5.34-3.06-8.74,0-2.99,.74-5.62,2.21-7.89s3.54-4.03,6.19-5.3c2.65-1.27,5.7-1.9,9.15-1.9,3.04,0,5.85,.52,8.43,1.56,2.58,1.04,4.82,2.52,6.7,4.42s3.3,4.19,4.25,6.87l-8.57,3.88c-.95-2.36-2.38-4.2-4.28-5.54s-4.08-2.01-6.53-2.01c-1.41,0-2.65,.23-3.74,.68-1.09,.45-1.93,1.1-2.52,1.94-.59,.84-.88,1.8-.88,2.89,0,1.18,.38,2.21,1.16,3.09,.77,.88,1.93,1.58,3.47,2.07l9.72,3.13c4.08,1.32,7.13,3.15,9.15,5.51s3.03,5.24,3.03,8.64c0,2.95-.77,5.57-2.31,7.85-1.54,2.29-3.66,4.08-6.36,5.37-2.7,1.29-5.84,1.94-9.42,1.94h-.02Z"/>
    <path class="cls-1" d="M818.31,14.86v3.87c-1.11-1.3-2.47-2.36-4.11-3.16-2.11-1.02-4.52-1.53-7.24-1.53-3.54,0-6.73,.86-9.59,2.58s-5.12,4.05-6.8,6.97-2.52,6.2-2.52,9.83,.83,6.85,2.48,9.79c1.65,2.95,3.91,5.28,6.77,7s6.1,2.58,9.72,2.58c2.54,0,4.9-.47,7.07-1.39,1.36-.58,2.53-1.36,3.54-2.29v16.47h10.2V14.86h-9.52Zm-5.17,27.47c-1.41,.86-3.04,1.29-4.9,1.29s-3.53-.43-5-1.29-2.62-2.06-3.43-3.6c-.82-1.54-1.22-3.31-1.22-5.3s.41-3.75,1.22-5.27c.82-1.52,1.96-2.72,3.43-3.6,1.47-.88,3.14-1.33,5-1.33s3.49,.43,4.9,1.29c1.4,.86,2.5,2.06,3.3,3.6,.79,1.54,1.19,3.31,1.19,5.3s-.4,3.76-1.19,5.3-1.89,2.74-3.3,3.6h0Z"/>
    <path class="cls-1" d="M858.36,14.86v21.69c0,1.41-.28,2.64-.85,3.71s-1.36,1.89-2.38,2.48c-1.02,.59-2.21,.88-3.57,.88s-2.49-.29-3.54-.88c-1.04-.59-1.85-1.42-2.41-2.48-.57-1.06-.85-2.3-.85-3.71V14.86h-10.2v22.51c0,3.08,.54,5.78,1.63,8.09s2.69,4.11,4.79,5.41,4.66,1.94,7.65,1.94c2.58,0,4.84-.53,6.77-1.6,1.58-.87,2.77-2.15,3.64-3.79v4.58h9.52V14.86h-10.2Z"/>
    <path class="cls-1" d="M906.2,20.47c-1.34-2.02-3.21-3.59-5.61-4.73-2.4-1.13-5.17-1.7-8.3-1.7-2.63,0-5.06,.41-7.28,1.22-2.22,.82-4.13,1.97-5.71,3.47-1.59,1.5-2.74,3.29-3.47,5.37l8.16,3.88c.63-1.63,1.64-2.95,3.03-3.94,1.38-1,2.98-1.5,4.79-1.5,1.9,0,3.41,.48,4.52,1.43s1.67,2.13,1.67,3.54v.99l-10.27,1.66c-2.95,.45-5.41,1.22-7.38,2.31s-3.43,2.44-4.39,4.05c-.95,1.61-1.43,3.46-1.43,5.54,0,2.22,.52,4.14,1.56,5.75s2.54,2.85,4.49,3.71c1.95,.86,4.26,1.29,6.94,1.29,1.99,0,3.81-.26,5.44-.78s3.1-1.31,4.42-2.38c.45-.36,.87-.77,1.29-1.19v3.54h9.52V27.51c0-2.67-.67-5.02-2.01-7.04h.02Zm-9.25,20.81c-.7,1.25-1.69,2.23-2.96,2.96s-2.74,1.09-4.42,1.09c-1.27,0-2.34-.32-3.2-.95-.86-.63-1.29-1.52-1.29-2.65,0-1.22,.38-2.16,1.16-2.82,.77-.66,1.88-1.12,3.33-1.39l8.43-1.51v1.17c0,1.5-.35,2.87-1.05,4.11h0Z"/>
    <path class="cls-1" d="M935.27,14.45c-2.58,0-4.82,.56-6.7,1.67-1.43,.85-2.55,2.28-3.37,4.29v-5.55h-9.52V51.99h10.2V31.99c0-2.76,.77-4.91,2.31-6.43s3.56-2.28,6.05-2.28h3.2V14.45h-2.17Z"/>
    <path class="cls-1" d="M976.27,25.16c-.82-2.2-2.01-4.14-3.57-5.81-1.56-1.68-3.48-2.98-5.75-3.91s-4.87-1.39-7.82-1.39c-3.54,0-6.71,.84-9.52,2.52-2.81,1.68-5.04,3.97-6.7,6.87-1.66,2.9-2.48,6.21-2.48,9.93s.79,6.85,2.38,9.79c1.59,2.95,3.83,5.29,6.73,7.04,2.9,1.75,6.32,2.62,10.27,2.62,2.54,0,4.87-.37,7-1.12s3.98-1.8,5.54-3.16,2.71-2.95,3.43-4.76l-8.16-3.88c-.73,1.27-1.73,2.27-3.03,2.99-1.29,.73-2.85,1.09-4.66,1.09-2,0-3.7-.44-5.1-1.33-1.41-.88-2.45-2.12-3.13-3.71-.35-.82-.58-1.7-.7-2.65h26c.18-.5,.31-1.1,.37-1.8,.07-.7,.1-1.42,.1-2.14,0-2.58-.41-4.97-1.22-7.17l.02-.02Zm-21.69-1.67c1.27-.86,2.79-1.29,4.56-1.29s3.34,.44,4.59,1.33c1.25,.88,2.12,2.09,2.62,3.6,.17,.53,.27,1.09,.33,1.67h-15.38c.12-.52,.26-1.03,.43-1.5,.63-1.68,1.59-2.95,2.86-3.81h0Z"/>
  </g>
  <g>
    <path class="cls-1" d="M1064.72,52.8c-3.81,0-7.34-.66-10.61-1.97-3.26-1.31-6.11-3.16-8.53-5.54-2.43-2.38-4.32-5.16-5.68-8.33-1.36-3.17-2.04-6.62-2.04-10.34s.67-7.16,2.01-10.34c1.34-3.17,3.22-5.94,5.64-8.3s5.27-4.19,8.53-5.51c3.26-1.31,6.82-1.97,10.68-1.97s7.41,.66,10.68,1.97c3.26,1.32,6.11,3.15,8.53,5.51,2.42,2.36,4.31,5.12,5.64,8.3,1.34,3.17,2.01,6.62,2.01,10.34s-.68,7.16-2.04,10.34c-1.36,3.17-3.25,5.95-5.68,8.33s-5.27,4.23-8.53,5.54-6.8,1.97-10.61,1.97Zm0-9.52c2.31,0,4.45-.41,6.43-1.22,1.97-.82,3.71-1.96,5.2-3.43,1.5-1.47,2.65-3.23,3.47-5.27s1.22-4.28,1.22-6.73-.41-4.68-1.22-6.7c-.82-2.02-1.97-3.77-3.47-5.27s-3.23-2.64-5.2-3.43c-1.97-.79-4.11-1.19-6.43-1.19s-4.45,.4-6.43,1.19c-1.97,.79-3.71,1.94-5.2,3.43s-2.65,3.25-3.47,5.27-1.22,4.25-1.22,6.7,.41,4.69,1.22,6.73c.81,2.04,1.97,3.8,3.47,5.27,1.5,1.47,3.23,2.62,5.2,3.43,1.97,.82,4.11,1.22,6.43,1.22Z"/>
    <path class="cls-1" d="M1154.96,14.86h-14.76v-.54c0-1.63,.49-2.87,1.46-3.71s2.41-1.26,4.32-1.26c.36,0,.71,.01,1.05,.03,.34,.02,.74,.08,1.19,.17V.85c-.45-.09-1.02-.17-1.7-.24s-1.32-.1-1.9-.1c-3.08,0-5.71,.54-7.89,1.63s-3.84,2.65-5,4.69-1.73,4.53-1.73,7.48v.54h-17v-.54c0-1.63,.49-2.87,1.46-3.71s2.41-1.26,4.32-1.26c.36,0,.71,.01,1.05,.03,.34,.02,.74,.08,1.19,.17V.85c-.45-.09-1.02-.17-1.7-.24s-1.32-.1-1.9-.1c-3.08,0-5.71,.54-7.89,1.63s-3.84,2.65-5,4.69-1.73,4.53-1.73,7.48v.54h-6.26v8.84h6.26v28.29h10.2V23.7h17v28.29h10.2V23.7h11.76v28.29h10.2V14.86h-7.2Z"/>
    <path class="cls-1" d="M1187.12,52.8c-3.72,0-7.06-.85-10.03-2.55s-5.33-4.02-7.07-6.97c-1.75-2.95-2.62-6.26-2.62-9.93s.86-6.97,2.58-9.89,4.08-5.22,7.07-6.9,6.35-2.52,10.06-2.52c2.76,0,5.33,.48,7.68,1.43,2.36,.95,4.37,2.28,6.05,3.98,1.68,1.7,2.88,3.71,3.6,6.02l-8.84,3.81c-.64-1.86-1.71-3.33-3.23-4.42-1.52-1.09-3.28-1.63-5.27-1.63-1.77,0-3.34,.43-4.73,1.29-1.38,.86-2.47,2.06-3.26,3.6-.79,1.54-1.19,3.31-1.19,5.3s.4,3.76,1.19,5.3c.79,1.54,1.88,2.74,3.26,3.6,1.38,.86,2.96,1.29,4.73,1.29,2.04,0,3.81-.54,5.3-1.63s2.56-2.56,3.2-4.42l8.84,3.88c-.68,2.18-1.86,4.13-3.54,5.85-1.68,1.72-3.7,3.07-6.05,4.05-2.36,.97-4.94,1.46-7.75,1.46h.02Z"/>
    <path class="cls-1" d="M1244.78,25.16c-.82-2.2-2.01-4.14-3.57-5.81-1.56-1.68-3.48-2.98-5.75-3.91s-4.87-1.39-7.82-1.39c-3.54,0-6.71,.84-9.52,2.52-2.81,1.68-5.04,3.97-6.7,6.87-1.66,2.9-2.48,6.21-2.48,9.93s.79,6.85,2.38,9.79c1.59,2.95,3.83,5.29,6.73,7.04s6.32,2.62,10.27,2.62c2.54,0,4.87-.37,7-1.12s3.98-1.8,5.54-3.16,2.71-2.95,3.43-4.76l-8.16-3.88c-.73,1.27-1.73,2.27-3.03,2.99-1.29,.73-2.85,1.09-4.66,1.09-2,0-3.7-.44-5.1-1.33-1.41-.88-2.45-2.12-3.13-3.71-.35-.82-.58-1.7-.7-2.65h26c.18-.5,.31-1.1,.37-1.8,.07-.7,.1-1.42,.1-2.14,0-2.58-.41-4.97-1.22-7.17l.02-.02Zm-21.69-1.67c1.27-.86,2.79-1.29,4.56-1.29s3.34,.44,4.59,1.33c1.25,.88,2.12,2.09,2.62,3.6,.17,.53,.27,1.09,.33,1.67h-15.38c.12-.52,.26-1.03,.43-1.5,.63-1.68,1.59-2.95,2.86-3.81h0Z"/>
    <path class="cls-1" d="M1283.41,52.8c-3.17,0-6.15-.58-8.94-1.73-2.79-1.16-5.19-2.8-7.21-4.93s-3.53-4.65-4.52-7.55l8.64-3.88c1.27,2.77,3.03,4.94,5.27,6.53s4.73,2.38,7.45,2.38c1.45,0,2.7-.23,3.74-.68,1.04-.45,1.86-1.08,2.45-1.87,.59-.79,.88-1.73,.88-2.82,0-1.18-.36-2.19-1.09-3.03s-1.86-1.51-3.4-2.01l-9.93-3.26c-4.04-1.31-7.07-3.18-9.11-5.61-2.04-2.42-3.06-5.34-3.06-8.74,0-2.99,.74-5.62,2.21-7.89s3.54-4.03,6.19-5.3c2.65-1.27,5.7-1.9,9.15-1.9,3.04,0,5.85,.52,8.43,1.56,2.58,1.04,4.82,2.52,6.7,4.42s3.3,4.19,4.25,6.87l-8.57,3.88c-.95-2.36-2.38-4.2-4.28-5.54s-4.08-2.01-6.53-2.01c-1.41,0-2.65,.23-3.74,.68-1.09,.45-1.93,1.1-2.52,1.94-.59,.84-.88,1.8-.88,2.89,0,1.18,.38,2.21,1.16,3.09,.77,.88,1.93,1.58,3.47,2.07l9.72,3.13c4.08,1.32,7.13,3.15,9.15,5.51s3.03,5.24,3.03,8.64c0,2.95-.77,5.57-2.31,7.85-1.54,2.29-3.66,4.08-6.36,5.37-2.7,1.29-5.84,1.94-9.42,1.94h-.02Z"/>
    <path class="cls-1" d="M1336.99,14.86v3.87c-1.11-1.3-2.47-2.36-4.11-3.16-2.11-1.02-4.52-1.53-7.24-1.53-3.54,0-6.73,.86-9.59,2.58s-5.12,4.05-6.8,6.97-2.52,6.2-2.52,9.83,.83,6.85,2.48,9.79c1.65,2.95,3.91,5.28,6.77,7s6.1,2.58,9.72,2.58c2.54,0,4.9-.47,7.07-1.39,1.36-.58,2.53-1.36,3.54-2.29v16.47h10.2V14.86h-9.52Zm-5.17,27.47c-1.41,.86-3.04,1.29-4.9,1.29s-3.53-.43-5-1.29-2.62-2.06-3.43-3.6c-.82-1.54-1.22-3.31-1.22-5.3s.41-3.75,1.22-5.27c.82-1.52,1.96-2.72,3.43-3.6,1.47-.88,3.14-1.33,5-1.33s3.49,.43,4.9,1.29c1.4,.86,2.5,2.06,3.3,3.6,.79,1.54,1.19,3.31,1.19,5.3s-.4,3.76-1.19,5.3-1.89,2.74-3.3,3.6h0Z"/>
    <path class="cls-1" d="M1377.04,14.86v21.69c0,1.41-.28,2.64-.85,3.71s-1.36,1.89-2.38,2.48c-1.02,.59-2.21,.88-3.57,.88s-2.49-.29-3.54-.88c-1.04-.59-1.85-1.42-2.41-2.48-.57-1.06-.85-2.3-.85-3.71V14.86h-10.2v22.51c0,3.08,.54,5.78,1.63,8.09s2.69,4.11,4.79,5.41,4.66,1.94,7.65,1.94c2.58,0,4.84-.53,6.77-1.6,1.58-.87,2.77-2.15,3.64-3.79v4.58h9.52V14.86h-10.2Z"/>
    <path class="cls-1" d="M1424.88,20.47c-1.34-2.02-3.21-3.59-5.61-4.73-2.4-1.13-5.17-1.7-8.3-1.7-2.63,0-5.06,.41-7.28,1.22-2.22,.82-4.13,1.97-5.71,3.47-1.59,1.5-2.74,3.29-3.47,5.37l8.16,3.88c.63-1.63,1.64-2.95,3.03-3.94,1.38-1,2.98-1.5,4.79-1.5,1.9,0,3.41,.48,4.52,1.43s1.67,2.13,1.67,3.54v.99l-10.27,1.66c-2.95,.45-5.41,1.22-7.38,2.31s-3.43,2.44-4.39,4.05c-.95,1.61-1.43,3.46-1.43,5.54,0,2.22,.52,4.14,1.56,5.75s2.54,2.85,4.49,3.71c1.95,.86,4.26,1.29,6.94,1.29,1.99,0,3.81-.26,5.44-.78s3.1-1.31,4.42-2.38c.45-.36,.87-.77,1.29-1.19v3.54h9.52V27.51c0-2.67-.67-5.02-2.01-7.04h.02Zm-9.25,20.81c-.7,1.25-1.69,2.23-2.96,2.96s-2.74,1.09-4.42,1.09c-1.27,0-2.34-.32-3.2-.95-.86-.63-1.29-1.52-1.29-2.65,0-1.22,.38-2.16,1.16-2.82,.77-.66,1.88-1.12,3.33-1.39l8.43-1.51v1.17c0,1.5-.35,2.87-1.05,4.11h0Z"/>
    <path class="cls-1" d="M1453.95,14.45c-2.58,0-4.82,.56-6.7,1.67-1.43,.85-2.55,2.28-3.37,4.29v-5.55h-9.52V51.99h10.2V31.99c0-2.76,.77-4.91,2.31-6.43s3.56-2.28,6.05-2.28h3.2V14.45h-2.17Z"/>
    <path class="cls-1" d="M1494.95,25.16c-.82-2.2-2.01-4.14-3.57-5.81-1.56-1.68-3.48-2.98-5.75-3.91s-4.87-1.39-7.82-1.39c-3.54,0-6.71,.84-9.52,2.52-2.81,1.68-5.04,3.97-6.7,6.87-1.66,2.9-2.48,6.21-2.48,9.93s.79,6.85,2.38,9.79c1.59,2.95,3.83,5.29,6.73,7.04,2.9,1.75,6.32,2.62,10.27,2.62,2.54,0,4.87-.37,7-1.12s3.98-1.8,5.54-3.16,2.71-2.95,3.43-4.76l-8.16-3.88c-.73,1.27-1.73,2.27-3.03,2.99-1.29,.73-2.85,1.09-4.66,1.09-2,0-3.7-.44-5.1-1.33-1.41-.88-2.45-2.12-3.13-3.71-.35-.82-.58-1.7-.7-2.65h26c.18-.5,.31-1.1,.37-1.8,.07-.7,.1-1.42,.1-2.14,0-2.58-.41-4.97-1.22-7.17l.02-.02Zm-21.69-1.67c1.27-.86,2.79-1.29,4.56-1.29s3.34,.44,4.59,1.33c1.25,.88,2.12,2.09,2.62,3.6,.17,.53,.27,1.09,.33,1.67h-15.38c.12-.52,.26-1.03,.43-1.5,.63-1.68,1.59-2.95,2.86-3.81h0Z"/>
  </g>
</svg>