<?xml version="1.0" encoding="utf-8"?>
<!-- Generator: Adobe Illustrator 27.0.0, SVG Export Plug-In . SVG Version: 6.00 Build 0)  -->
<svg version="1.1" id="Layer_1" xmlns="http://www.w3.org/2000/svg" xmlns:xlink="http://www.w3.org/1999/xlink" x="0px" y="0px"
	 viewBox="0 0 1437.3 66.1" style="enable-background:new 0 0 1437.3 66.1;" xml:space="preserve">
<style type="text/css">
	.st0{fill:none;stroke:#DDDDDD;stroke-miterlimit:10;}
</style>
<g>
	<path class="st0" d="M27.4,52.8c-3.8,0-7.3-0.7-10.6-2c-3.3-1.3-6.1-3.2-8.5-5.5c-2.4-2.4-4.3-5.2-5.7-8.3s-2-6.6-2-10.3
		s0.7-7.2,2-10.3c1.3-3.2,3.2-5.9,5.6-8.3s5.3-4.2,8.5-5.5c3.3-1.3,6.8-2,10.7-2s7.4,0.7,10.7,2c3.3,1.3,6.1,3.1,8.5,5.5
		s4.3,5.1,5.6,8.3c1.3,3.2,2,6.6,2,10.3s-0.7,7.2-2,10.3c-1.4,3.2-3.2,6-5.7,8.3s-5.3,4.2-8.5,5.5S31.2,52.8,27.4,52.8z M27.4,43.3
		c2.3,0,4.5-0.4,6.4-1.2c2-0.8,3.7-2,5.2-3.4c1.5-1.5,2.7-3.2,3.5-5.3s1.2-4.3,1.2-6.7s-0.4-4.7-1.2-6.7c-0.8-2-2-3.8-3.5-5.3
		s-3.2-2.6-5.2-3.4S29.7,10,27.4,10s-4.5,0.4-6.4,1.2c-2,0.8-3.7,1.9-5.2,3.4s-2.7,3.2-3.5,5.3S11,24.2,11,26.6s0.4,4.7,1.2,6.7
		s2,3.8,3.5,5.3s3.2,2.6,5.2,3.4C22.9,42.9,25,43.3,27.4,43.3z"/>
	<path class="st0" d="M117.6,14.9h-14.8v-0.5c0-1.6,0.5-2.9,1.5-3.7s2.4-1.3,4.3-1.3c0.4,0,0.7,0,1.1,0c0.3,0,0.7,0.1,1.2,0.2V0.9
		c-0.4-0.1-1-0.2-1.7-0.2s-1.3-0.1-1.9-0.1c-3.1,0-5.7,0.5-7.9,1.6s-3.8,2.7-5,4.7s-1.7,4.5-1.7,7.5v0.5h-17v-0.5
		c0-1.6,0.5-2.9,1.5-3.7s2.4-1.3,4.3-1.3c0.4,0,0.7,0,1.1,0c0.3,0,0.7,0.1,1.2,0.2V0.9c-0.4-0.1-1-0.2-1.7-0.2s-1.3-0.1-1.9-0.1
		c-3.1,0-5.7,0.5-7.9,1.6s-3.8,2.7-5,4.7s-1.7,4.5-1.7,7.5v0.5h-6.3v8.8h6.3V52h10.2V23.7h17V52h10.2V23.7h11.8V52h10.2V14.9H117.6z
		"/>
	<path class="st0" d="M149.8,52.8c-3.7,0-7.1-0.8-10-2.5s-5.3-4-7.1-7c-1.8-3-2.6-6.3-2.6-9.9s0.9-7,2.6-9.9s4.1-5.2,7.1-6.9
		S146,14,149.8,14c2.8,0,5.3,0.5,7.7,1.4c2.4,1,4.4,2.3,6.1,4c1.7,1.7,2.9,3.7,3.6,6l-8.8,3.8c-0.6-1.9-1.7-3.3-3.2-4.4
		c-1.5-1.1-3.3-1.6-5.3-1.6c-1.8,0-3.3,0.4-4.7,1.3c-1.4,0.9-2.5,2.1-3.3,3.6c-0.8,1.5-1.2,3.3-1.2,5.3s0.4,3.8,1.2,5.3
		c0.8,1.5,1.9,2.7,3.3,3.6c1.4,0.9,3,1.3,4.7,1.3c2,0,3.8-0.5,5.3-1.6s2.6-2.6,3.2-4.4l8.8,3.9c-0.7,2.2-1.9,4.1-3.5,5.8
		c-1.7,1.7-3.7,3.1-6.1,4C155.1,52.3,152.6,52.8,149.8,52.8L149.8,52.8L149.8,52.8z"/>
	<path class="st0" d="M207.4,25.2c-0.8-2.2-2-4.1-3.6-5.8c-1.6-1.7-3.5-3-5.8-3.9s-4.9-1.4-7.8-1.4c-3.5,0-6.7,0.8-9.5,2.5
		s-5,4-6.7,6.9s-2.5,6.2-2.5,9.9s0.8,6.8,2.4,9.8c1.6,3,3.8,5.3,6.7,7s6.3,2.6,10.3,2.6c2.5,0,4.9-0.4,7-1.1s4-1.8,5.5-3.2
		s2.7-3,3.4-4.8l-8.2-3.9c-0.7,1.3-1.7,2.3-3,3c-1.3,0.7-2.9,1.1-4.7,1.1c-2,0-3.7-0.4-5.1-1.3c-1.4-0.9-2.4-2.1-3.1-3.7
		c-0.4-0.8-0.6-1.7-0.7-2.7h26c0.2-0.5,0.3-1.1,0.4-1.8c0.1-0.7,0.1-1.4,0.1-2.1C208.6,29.8,208.2,27.4,207.4,25.2L207.4,25.2
		L207.4,25.2z M185.7,23.5c1.3-0.9,2.8-1.3,4.6-1.3s3.3,0.4,4.6,1.3c1.2,0.9,2.1,2.1,2.6,3.6c0.2,0.5,0.3,1.1,0.3,1.7h-15.4
		c0.1-0.5,0.3-1,0.4-1.5C183.5,25.6,184.5,24.4,185.7,23.5L185.7,23.5L185.7,23.5z"/>
	<path class="st0" d="M246.1,52.8c-3.2,0-6.1-0.6-8.9-1.7c-2.8-1.2-5.2-2.8-7.2-4.9s-3.5-4.7-4.5-7.5l8.6-3.9c1.3,2.8,3,4.9,5.3,6.5
		s4.7,2.4,7.4,2.4c1.4,0,2.7-0.2,3.7-0.7c1-0.5,1.9-1.1,2.4-1.9c0.6-0.8,0.9-1.7,0.9-2.8c0-1.2-0.4-2.2-1.1-3s-1.9-1.5-3.4-2
		l-9.9-3.3c-4-1.3-7.1-3.2-9.1-5.6c-2-2.4-3.1-5.3-3.1-8.7c0-3,0.7-5.6,2.2-7.9s3.5-4,6.2-5.3c2.6-1.3,5.7-1.9,9.1-1.9
		c3,0,5.9,0.5,8.4,1.6c2.6,1,4.8,2.5,6.7,4.4s3.3,4.2,4.2,6.9l-8.6,3.9c-0.9-2.4-2.4-4.2-4.3-5.5s-4.1-2-6.5-2
		c-1.4,0-2.6,0.2-3.7,0.7c-1.1,0.4-1.9,1.1-2.5,1.9c-0.6,0.8-0.9,1.8-0.9,2.9c0,1.2,0.4,2.2,1.2,3.1c0.8,0.9,1.9,1.6,3.5,2.1
		l9.7,3.1c4.1,1.3,7.1,3.1,9.1,5.5s3,5.2,3,8.6c0,3-0.8,5.6-2.3,7.8c-1.5,2.3-3.7,4.1-6.4,5.4S249.7,52.8,246.1,52.8L246.1,52.8z"/>
	<path class="st0" d="M299.6,14.9v3.9c-1.1-1.3-2.5-2.4-4.1-3.2c-2.1-1-4.5-1.5-7.2-1.5c-3.5,0-6.7,0.9-9.6,2.6s-5.1,4-6.8,7
		s-2.5,6.2-2.5,9.8s0.8,6.8,2.5,9.8c1.6,3,3.9,5.3,6.8,7s6.1,2.6,9.7,2.6c2.5,0,4.9-0.5,7.1-1.4c1.4-0.6,2.5-1.4,3.5-2.3v16.5h10.2
		V14.9H299.6L299.6,14.9z M294.5,42.3c-1.4,0.9-3,1.3-4.9,1.3s-3.5-0.4-5-1.3s-2.6-2.1-3.4-3.6c-0.8-1.5-1.2-3.3-1.2-5.3
		s0.4-3.8,1.2-5.3c0.8-1.5,2-2.7,3.4-3.6c1.5-0.9,3.1-1.3,5-1.3s3.5,0.4,4.9,1.3c1.4,0.9,2.5,2.1,3.3,3.6c0.8,1.5,1.2,3.3,1.2,5.3
		s-0.4,3.8-1.2,5.3S295.9,41.5,294.5,42.3L294.5,42.3L294.5,42.3z"/>
	<path class="st0" d="M339.7,14.9v21.7c0,1.4-0.3,2.6-0.9,3.7s-1.4,1.9-2.4,2.5c-1,0.6-2.2,0.9-3.6,0.9s-2.5-0.3-3.5-0.9
		c-1-0.6-1.9-1.4-2.4-2.5c-0.6-1.1-0.9-2.3-0.9-3.7V14.9h-10.2v22.5c0,3.1,0.5,5.8,1.6,8.1s2.7,4.1,4.8,5.4s4.7,1.9,7.6,1.9
		c2.6,0,4.8-0.5,6.8-1.6c1.6-0.9,2.8-2.2,3.6-3.8V52h9.5V14.9H339.7L339.7,14.9z"/>
	<path class="st0" d="M387.5,20.5c-1.3-2-3.2-3.6-5.6-4.7c-2.4-1.1-5.2-1.7-8.3-1.7c-2.6,0-5.1,0.4-7.3,1.2c-2.2,0.8-4.1,2-5.7,3.5
		c-1.6,1.5-2.7,3.3-3.5,5.4l8.2,3.9c0.6-1.6,1.6-3,3-3.9c1.4-1,3-1.5,4.8-1.5c1.9,0,3.4,0.5,4.5,1.4s1.7,2.1,1.7,3.5v1l-10.3,1.7
		c-3,0.5-5.4,1.2-7.4,2.3s-3.4,2.4-4.4,4c-1,1.6-1.4,3.5-1.4,5.5c0,2.2,0.5,4.1,1.6,5.8s2.5,2.8,4.5,3.7c2,0.9,4.3,1.3,6.9,1.3
		c2,0,3.8-0.3,5.4-0.8s3.1-1.3,4.4-2.4c0.5-0.4,0.9-0.8,1.3-1.2V52h9.5V27.5C389.5,24.8,388.8,22.5,387.5,20.5L387.5,20.5
		L387.5,20.5z M378.3,41.3c-0.7,1.2-1.7,2.2-3,3s-2.7,1.1-4.4,1.1c-1.3,0-2.3-0.3-3.2-1c-0.9-0.6-1.3-1.5-1.3-2.7
		c0-1.2,0.4-2.2,1.2-2.8c0.8-0.7,1.9-1.1,3.3-1.4l8.4-1.5v1.2C379.3,38.7,379,40,378.3,41.3L378.3,41.3L378.3,41.3z"/>
	<path class="st0" d="M416.6,14.4c-2.6,0-4.8,0.6-6.7,1.7c-1.4,0.9-2.5,2.3-3.4,4.3v-5.6H397V52h10.2V32c0-2.8,0.8-4.9,2.3-6.4
		s3.6-2.3,6-2.3h3.2v-8.8H416.6z"/>
	<path class="st0" d="M457.6,25.2c-0.8-2.2-2-4.1-3.6-5.8c-1.6-1.7-3.5-3-5.8-3.9s-4.9-1.4-7.8-1.4c-3.5,0-6.7,0.8-9.5,2.5
		s-5,4-6.7,6.9s-2.5,6.2-2.5,9.9s0.8,6.8,2.4,9.8c1.6,3,3.8,5.3,6.7,7c2.9,1.8,6.3,2.6,10.3,2.6c2.5,0,4.9-0.4,7-1.1s4-1.8,5.5-3.2
		s2.7-3,3.4-4.8l-8.2-3.9c-0.7,1.3-1.7,2.3-3,3c-1.3,0.7-2.9,1.1-4.7,1.1c-2,0-3.7-0.4-5.1-1.3c-1.4-0.9-2.5-2.1-3.1-3.7
		c-0.4-0.8-0.6-1.7-0.7-2.7h26c0.2-0.5,0.3-1.1,0.4-1.8c0.1-0.7,0.1-1.4,0.1-2.1C458.8,29.8,458.4,27.4,457.6,25.2L457.6,25.2
		L457.6,25.2z M435.9,23.5c1.3-0.9,2.8-1.3,4.6-1.3s3.3,0.4,4.6,1.3c1.2,0.9,2.1,2.1,2.6,3.6c0.2,0.5,0.3,1.1,0.3,1.7h-15.4
		c0.1-0.5,0.3-1,0.4-1.5C433.7,25.6,434.6,24.4,435.9,23.5L435.9,23.5L435.9,23.5z"/>
</g>
<g>
	<path class="st0" d="M516,52.8c-3.8,0-7.3-0.7-10.6-2c-3.3-1.3-6.1-3.2-8.5-5.5c-2.4-2.4-4.3-5.2-5.7-8.3s-2-6.6-2-10.3
		s0.7-7.2,2-10.3c1.3-3.2,3.2-5.9,5.6-8.3s5.3-4.2,8.5-5.5c3.3-1.3,6.8-2,10.7-2s7.4,0.7,10.7,2c3.3,1.3,6.1,3.2,8.5,5.5
		c2.4,2.4,4.3,5.1,5.6,8.3c1.3,3.2,2,6.6,2,10.3s-0.7,7.2-2,10.3c-1.4,3.2-3.2,6-5.7,8.3s-5.3,4.2-8.5,5.5S519.9,52.8,516,52.8
		L516,52.8z M516,43.3c2.3,0,4.5-0.4,6.4-1.2c2-0.8,3.7-2,5.2-3.4c1.5-1.5,2.7-3.2,3.5-5.3s1.2-4.3,1.2-6.7s-0.4-4.7-1.2-6.7
		c-0.8-2-2-3.8-3.5-5.3s-3.2-2.6-5.2-3.4c-2-0.8-4.1-1.2-6.4-1.2s-4.5,0.4-6.4,1.2c-2,0.8-3.7,1.9-5.2,3.4s-2.7,3.2-3.5,5.3
		s-1.2,4.2-1.2,6.7s0.4,4.7,1.2,6.7s2,3.8,3.5,5.3s3.2,2.6,5.2,3.4C511.6,42.9,513.7,43.3,516,43.3z"/>
	<path class="st0" d="M606.3,14.9h-14.8v-0.5c0-1.6,0.5-2.9,1.5-3.7s2.4-1.3,4.3-1.3c0.4,0,0.7,0,1,0c0.3,0,0.7,0.1,1.2,0.2V0.9
		c-0.5-0.1-1-0.2-1.7-0.2s-1.3-0.1-1.9-0.1c-3.1,0-5.7,0.5-7.9,1.6s-3.8,2.7-5,4.7s-1.7,4.5-1.7,7.5v0.5h-17v-0.5
		c0-1.6,0.5-2.9,1.5-3.7s2.4-1.3,4.3-1.3c0.4,0,0.7,0,1,0c0.3,0,0.7,0.1,1.2,0.2V0.9c-0.5-0.1-1-0.2-1.7-0.2s-1.3-0.1-1.9-0.1
		c-3.1,0-5.7,0.5-7.9,1.6s-3.8,2.7-5,4.7s-1.7,4.5-1.7,7.5v0.5h-6.3v8.8h6.3V52h10.2V23.7h17V52h10.2V23.7h11.8V52h10.2V14.9H606.3z
		"/>
	<path class="st0" d="M638.4,52.8c-3.7,0-7.1-0.8-10-2.5s-5.3-4-7.1-7c-1.8-3-2.6-6.3-2.6-9.9s0.9-7,2.6-9.9s4.1-5.2,7.1-6.9
		s6.3-2.5,10.1-2.5c2.8,0,5.3,0.5,7.7,1.4c2.4,1,4.4,2.3,6,4c1.7,1.7,2.9,3.7,3.6,6l-8.8,3.8c-0.6-1.9-1.7-3.3-3.2-4.4
		c-1.5-1.1-3.3-1.6-5.3-1.6c-1.8,0-3.3,0.4-4.7,1.3c-1.4,0.9-2.5,2.1-3.3,3.6c-0.8,1.5-1.2,3.3-1.2,5.3s0.4,3.8,1.2,5.3
		s1.9,2.7,3.3,3.6c1.4,0.9,3,1.3,4.7,1.3c2,0,3.8-0.5,5.3-1.6s2.6-2.6,3.2-4.4l8.8,3.9c-0.7,2.2-1.9,4.1-3.5,5.8
		c-1.7,1.7-3.7,3.1-6,4C643.8,52.3,641.2,52.8,638.4,52.8C638.4,52.8,638.4,52.8,638.4,52.8z"/>
	<path class="st0" d="M696.1,25.2c-0.8-2.2-2-4.1-3.6-5.8c-1.6-1.7-3.5-3-5.8-3.9s-4.9-1.4-7.8-1.4c-3.5,0-6.7,0.8-9.5,2.5
		s-5,4-6.7,6.9c-1.7,2.9-2.5,6.2-2.5,9.9s0.8,6.8,2.4,9.8c1.6,3,3.8,5.3,6.7,7s6.3,2.6,10.3,2.6c2.5,0,4.9-0.4,7-1.1s4-1.8,5.5-3.2
		s2.7-3,3.4-4.8l-8.2-3.9c-0.7,1.3-1.7,2.3-3,3c-1.3,0.7-2.8,1.1-4.7,1.1c-2,0-3.7-0.4-5.1-1.3c-1.4-0.9-2.5-2.1-3.1-3.7
		c-0.3-0.8-0.6-1.7-0.7-2.7h26c0.2-0.5,0.3-1.1,0.4-1.8c0.1-0.7,0.1-1.4,0.1-2.1C697.3,29.8,696.9,27.4,696.1,25.2
		C696.1,25.2,696.1,25.2,696.1,25.2z M674.4,23.5c1.3-0.9,2.8-1.3,4.6-1.3s3.3,0.4,4.6,1.3c1.2,0.9,2.1,2.1,2.6,3.6
		c0.2,0.5,0.3,1.1,0.3,1.7h-15.4c0.1-0.5,0.3-1,0.4-1.5C672.2,25.6,673.2,24.4,674.4,23.5L674.4,23.5L674.4,23.5z"/>
	<path class="st0" d="M734.7,52.8c-3.2,0-6.2-0.6-8.9-1.7c-2.8-1.2-5.2-2.8-7.2-4.9s-3.5-4.7-4.5-7.5l8.6-3.9c1.3,2.8,3,4.9,5.3,6.5
		s4.7,2.4,7.5,2.4c1.5,0,2.7-0.2,3.7-0.7s1.9-1.1,2.5-1.9c0.6-0.8,0.9-1.7,0.9-2.8c0-1.2-0.4-2.2-1.1-3s-1.9-1.5-3.4-2l-9.9-3.3
		c-4-1.3-7.1-3.2-9.1-5.6c-2-2.4-3.1-5.3-3.1-8.7c0-3,0.7-5.6,2.2-7.9s3.5-4,6.2-5.3s5.7-1.9,9.2-1.9c3,0,5.8,0.5,8.4,1.6
		s4.8,2.5,6.7,4.4s3.3,4.2,4.2,6.9l-8.6,3.9c-1-2.4-2.4-4.2-4.3-5.5s-4.1-2-6.5-2c-1.4,0-2.7,0.2-3.7,0.7c-1.1,0.4-1.9,1.1-2.5,1.9
		c-0.6,0.8-0.9,1.8-0.9,2.9c0,1.2,0.4,2.2,1.2,3.1c0.8,0.9,1.9,1.6,3.5,2.1l9.7,3.1c4.1,1.3,7.1,3.1,9.2,5.5s3,5.2,3,8.6
		c0,3-0.8,5.6-2.3,7.8c-1.5,2.3-3.7,4.1-6.4,5.4S738.3,52.8,734.7,52.8L734.7,52.8L734.7,52.8z"/>
	<path class="st0" d="M788.3,14.9v3.9c-1.1-1.3-2.5-2.4-4.1-3.2c-2.1-1-4.5-1.5-7.2-1.5c-3.5,0-6.7,0.9-9.6,2.6s-5.1,4-6.8,7
		s-2.5,6.2-2.5,9.8s0.8,6.8,2.5,9.8c1.7,3,3.9,5.3,6.8,7s6.1,2.6,9.7,2.6c2.5,0,4.9-0.5,7.1-1.4c1.4-0.6,2.5-1.4,3.5-2.3v16.5h10.2
		V14.9H788.3L788.3,14.9z M783.1,42.3c-1.4,0.9-3,1.3-4.9,1.3s-3.5-0.4-5-1.3s-2.6-2.1-3.4-3.6c-0.8-1.5-1.2-3.3-1.2-5.3
		s0.4-3.8,1.2-5.3c0.8-1.5,2-2.7,3.4-3.6c1.5-0.9,3.1-1.3,5-1.3s3.5,0.4,4.9,1.3c1.4,0.9,2.5,2.1,3.3,3.6c0.8,1.5,1.2,3.3,1.2,5.3
		s-0.4,3.8-1.2,5.3S784.5,41.5,783.1,42.3L783.1,42.3L783.1,42.3z"/>
	<path class="st0" d="M828.4,14.9v21.7c0,1.4-0.3,2.6-0.8,3.7s-1.4,1.9-2.4,2.5s-2.2,0.9-3.6,0.9s-2.5-0.3-3.5-0.9
		c-1-0.6-1.8-1.4-2.4-2.5c-0.6-1.1-0.8-2.3-0.8-3.7V14.9h-10.2v22.5c0,3.1,0.5,5.8,1.6,8.1s2.7,4.1,4.8,5.4s4.7,1.9,7.7,1.9
		c2.6,0,4.8-0.5,6.8-1.6c1.6-0.9,2.8-2.2,3.6-3.8V52h9.5V14.9H828.4L828.4,14.9z"/>
	<path class="st0" d="M876.2,20.5c-1.3-2-3.2-3.6-5.6-4.7c-2.4-1.1-5.2-1.7-8.3-1.7c-2.6,0-5.1,0.4-7.3,1.2c-2.2,0.8-4.1,2-5.7,3.5
		c-1.6,1.5-2.7,3.3-3.5,5.4L854,28c0.6-1.6,1.6-3,3-3.9c1.4-1,3-1.5,4.8-1.5c1.9,0,3.4,0.5,4.5,1.4s1.7,2.1,1.7,3.5v1l-10.3,1.7
		c-3,0.5-5.4,1.2-7.4,2.3s-3.4,2.4-4.4,4c-1,1.6-1.4,3.5-1.4,5.5c0,2.2,0.5,4.1,1.6,5.8s2.5,2.8,4.5,3.7s4.3,1.3,6.9,1.3
		c2,0,3.8-0.3,5.4-0.8s3.1-1.3,4.4-2.4c0.5-0.4,0.9-0.8,1.3-1.2V52h9.5V27.5C878.2,24.8,877.5,22.5,876.2,20.5L876.2,20.5
		L876.2,20.5z M867,41.3c-0.7,1.2-1.7,2.2-3,3s-2.7,1.1-4.4,1.1c-1.3,0-2.3-0.3-3.2-1s-1.3-1.5-1.3-2.7c0-1.2,0.4-2.2,1.2-2.8
		c0.8-0.7,1.9-1.1,3.3-1.4L868,36v1.2C868,38.7,867.7,40,867,41.3L867,41.3L867,41.3z"/>
	<path class="st0" d="M905.3,14.4c-2.6,0-4.8,0.6-6.7,1.7c-1.4,0.9-2.5,2.3-3.4,4.3v-5.6h-9.5V52h10.2V32c0-2.8,0.8-4.9,2.3-6.4
		s3.6-2.3,6-2.3h3.2v-8.8H905.3z"/>
	<path class="st0" d="M946.3,25.2c-0.8-2.2-2-4.1-3.6-5.8c-1.6-1.7-3.5-3-5.8-3.9s-4.9-1.4-7.8-1.4c-3.5,0-6.7,0.8-9.5,2.5
		s-5,4-6.7,6.9c-1.7,2.9-2.5,6.2-2.5,9.9s0.8,6.8,2.4,9.8c1.6,3,3.8,5.3,6.7,7c2.9,1.8,6.3,2.6,10.3,2.6c2.5,0,4.9-0.4,7-1.1
		s4-1.8,5.5-3.2s2.7-3,3.4-4.8l-8.2-3.9c-0.7,1.3-1.7,2.3-3,3c-1.3,0.7-2.8,1.1-4.7,1.1c-2,0-3.7-0.4-5.1-1.3
		c-1.4-0.9-2.5-2.1-3.1-3.7c-0.3-0.8-0.6-1.7-0.7-2.7h26c0.2-0.5,0.3-1.1,0.4-1.8c0.1-0.7,0.1-1.4,0.1-2.1
		C947.5,29.8,947.1,27.4,946.3,25.2C946.2,25.2,946.3,25.2,946.3,25.2z M924.6,23.5c1.3-0.9,2.8-1.3,4.6-1.3s3.3,0.4,4.6,1.3
		c1.2,0.9,2.1,2.1,2.6,3.6c0.2,0.5,0.3,1.1,0.3,1.7h-15.4c0.1-0.5,0.3-1,0.4-1.5C922.4,25.6,923.3,24.4,924.6,23.5L924.6,23.5
		L924.6,23.5z"/>
</g>
<g>
	<path class="st0" d="M1004.7,52.8c-3.8,0-7.3-0.7-10.6-2c-3.3-1.3-6.1-3.2-8.5-5.5c-2.4-2.4-4.3-5.2-5.7-8.3c-1.4-3.2-2-6.6-2-10.3
		s0.7-7.2,2-10.3c1.3-3.2,3.2-5.9,5.6-8.3s5.3-4.2,8.5-5.5c3.3-1.3,6.8-2,10.7-2s7.4,0.7,10.7,2c3.3,1.3,6.1,3.2,8.5,5.5
		s4.3,5.1,5.6,8.3c1.3,3.2,2,6.6,2,10.3s-0.7,7.2-2,10.3c-1.4,3.2-3.2,6-5.7,8.3s-5.3,4.2-8.5,5.5S1008.5,52.8,1004.7,52.8z
		 M1004.7,43.3c2.3,0,4.4-0.4,6.4-1.2c2-0.8,3.7-2,5.2-3.4c1.5-1.5,2.7-3.2,3.5-5.3s1.2-4.3,1.2-6.7s-0.4-4.7-1.2-6.7
		c-0.8-2-2-3.8-3.5-5.3s-3.2-2.6-5.2-3.4s-4.1-1.2-6.4-1.2s-4.4,0.4-6.4,1.2c-2,0.8-3.7,1.9-5.2,3.4s-2.7,3.2-3.5,5.3
		s-1.2,4.2-1.2,6.7s0.4,4.7,1.2,6.7c0.8,2,2,3.8,3.5,5.3s3.2,2.6,5.2,3.4C1000.3,42.9,1002.4,43.3,1004.7,43.3z"/>
	<path class="st0" d="M1095,14.9h-14.8v-0.5c0-1.6,0.5-2.9,1.5-3.7s2.4-1.3,4.3-1.3c0.4,0,0.7,0,1.1,0c0.3,0,0.7,0.1,1.2,0.2V0.9
		c-0.4-0.1-1-0.2-1.7-0.2s-1.3-0.1-1.9-0.1c-3.1,0-5.7,0.5-7.9,1.6s-3.8,2.7-5,4.7s-1.7,4.5-1.7,7.5v0.5h-17v-0.5
		c0-1.6,0.5-2.9,1.5-3.7s2.4-1.3,4.3-1.3c0.4,0,0.7,0,1.1,0c0.3,0,0.7,0.1,1.2,0.2V0.9c-0.4-0.1-1-0.2-1.7-0.2s-1.3-0.1-1.9-0.1
		c-3.1,0-5.7,0.5-7.9,1.6s-3.8,2.7-5,4.7s-1.7,4.5-1.7,7.5v0.5h-6.3v8.8h6.3V52h10.2V23.7h17V52h10.2V23.7h11.8V52h10.2V14.9H1095
		L1095,14.9z"/>
	<path class="st0" d="M1127.1,52.8c-3.7,0-7.1-0.8-10-2.5s-5.3-4-7.1-7c-1.8-3-2.6-6.3-2.6-9.9s0.9-7,2.6-9.9s4.1-5.2,7.1-6.9
		s6.3-2.5,10.1-2.5c2.8,0,5.3,0.5,7.7,1.4c2.4,1,4.4,2.3,6.1,4c1.7,1.7,2.9,3.7,3.6,6l-8.8,3.8c-0.6-1.9-1.7-3.3-3.2-4.4
		s-3.3-1.6-5.3-1.6c-1.8,0-3.3,0.4-4.7,1.3c-1.4,0.9-2.5,2.1-3.3,3.6c-0.8,1.5-1.2,3.3-1.2,5.3s0.4,3.8,1.2,5.3
		c0.8,1.5,1.9,2.7,3.3,3.6c1.4,0.9,3,1.3,4.7,1.3c2,0,3.8-0.5,5.3-1.6s2.6-2.6,3.2-4.4l8.8,3.9c-0.7,2.2-1.9,4.1-3.5,5.8
		c-1.7,1.7-3.7,3.1-6.1,4C1132.5,52.3,1129.9,52.8,1127.1,52.8C1127.1,52.8,1127.1,52.8,1127.1,52.8z"/>
	<path class="st0" d="M1184.8,25.2c-0.8-2.2-2-4.1-3.6-5.8c-1.6-1.7-3.5-3-5.8-3.9s-4.9-1.4-7.8-1.4c-3.5,0-6.7,0.8-9.5,2.5
		s-5,4-6.7,6.9c-1.7,2.9-2.5,6.2-2.5,9.9s0.8,6.8,2.4,9.8c1.6,3,3.8,5.3,6.7,7s6.3,2.6,10.3,2.6c2.5,0,4.9-0.4,7-1.1s4-1.8,5.5-3.2
		s2.7-3,3.4-4.8l-8.2-3.9c-0.7,1.3-1.7,2.3-3,3c-1.3,0.7-2.8,1.1-4.7,1.1c-2,0-3.7-0.4-5.1-1.3c-1.4-0.9-2.4-2.1-3.1-3.7
		c-0.3-0.8-0.6-1.7-0.7-2.7h26c0.2-0.5,0.3-1.1,0.4-1.8c0.1-0.7,0.1-1.4,0.1-2.1C1186,29.8,1185.6,27.4,1184.8,25.2L1184.8,25.2
		L1184.8,25.2z M1163.1,23.5c1.3-0.9,2.8-1.3,4.6-1.3s3.3,0.4,4.6,1.3c1.2,0.9,2.1,2.1,2.6,3.6c0.2,0.5,0.3,1.1,0.3,1.7h-15.4
		c0.1-0.5,0.3-1,0.4-1.5C1160.9,25.6,1161.8,24.4,1163.1,23.5L1163.1,23.5L1163.1,23.5z"/>
	<path class="st0" d="M1223.4,52.8c-3.2,0-6.2-0.6-8.9-1.7c-2.8-1.2-5.2-2.8-7.2-4.9s-3.5-4.7-4.5-7.5l8.6-3.9
		c1.3,2.8,3,4.9,5.3,6.5s4.7,2.4,7.4,2.4c1.4,0,2.7-0.2,3.7-0.7s1.9-1.1,2.4-1.9c0.6-0.8,0.9-1.7,0.9-2.8c0-1.2-0.4-2.2-1.1-3
		s-1.9-1.5-3.4-2l-9.9-3.3c-4-1.3-7.1-3.2-9.1-5.6c-2-2.4-3.1-5.3-3.1-8.7c0-3,0.7-5.6,2.2-7.9s3.5-4,6.2-5.3
		c2.7-1.3,5.7-1.9,9.2-1.9c3,0,5.8,0.5,8.4,1.6c2.6,1,4.8,2.5,6.7,4.4s3.3,4.2,4.2,6.9l-8.6,3.9c-0.9-2.4-2.4-4.2-4.3-5.5
		s-4.1-2-6.5-2c-1.4,0-2.7,0.2-3.7,0.7c-1.1,0.4-1.9,1.1-2.5,1.9c-0.6,0.8-0.9,1.8-0.9,2.9c0,1.2,0.4,2.2,1.2,3.1
		c0.8,0.9,1.9,1.6,3.5,2.1l9.7,3.1c4.1,1.3,7.1,3.1,9.2,5.5s3,5.2,3,8.6c0,3-0.8,5.6-2.3,7.8c-1.5,2.3-3.7,4.1-6.4,5.4
		S1227,52.8,1223.4,52.8L1223.4,52.8L1223.4,52.8z"/>
	<path class="st0" d="M1277,14.9v3.9c-1.1-1.3-2.5-2.4-4.1-3.2c-2.1-1-4.5-1.5-7.2-1.5c-3.5,0-6.7,0.9-9.6,2.6s-5.1,4-6.8,7
		s-2.5,6.2-2.5,9.8s0.8,6.8,2.5,9.8c1.7,3,3.9,5.3,6.8,7s6.1,2.6,9.7,2.6c2.5,0,4.9-0.5,7.1-1.4c1.4-0.6,2.5-1.4,3.5-2.3v16.5h10.2
		V14.9H1277L1277,14.9z M1271.8,42.3c-1.4,0.9-3,1.3-4.9,1.3s-3.5-0.4-5-1.3s-2.6-2.1-3.4-3.6c-0.8-1.5-1.2-3.3-1.2-5.3
		s0.4-3.8,1.2-5.3c0.8-1.5,2-2.7,3.4-3.6c1.5-0.9,3.1-1.3,5-1.3s3.5,0.4,4.9,1.3c1.4,0.9,2.5,2.1,3.3,3.6c0.8,1.5,1.2,3.3,1.2,5.3
		s-0.4,3.8-1.2,5.3S1273.2,41.5,1271.8,42.3L1271.8,42.3L1271.8,42.3z"/>
	<path class="st0" d="M1317,14.9v21.7c0,1.4-0.3,2.6-0.8,3.7s-1.4,1.9-2.4,2.5s-2.2,0.9-3.6,0.9s-2.5-0.3-3.5-0.9
		c-1-0.6-1.8-1.4-2.4-2.5c-0.6-1.1-0.8-2.3-0.8-3.7V14.9h-10.2v22.5c0,3.1,0.5,5.8,1.6,8.1s2.7,4.1,4.8,5.4s4.7,1.9,7.7,1.9
		c2.6,0,4.8-0.5,6.8-1.6c1.6-0.9,2.8-2.2,3.6-3.8V52h9.5V14.9H1317L1317,14.9z"/>
	<path class="st0" d="M1364.9,20.5c-1.3-2-3.2-3.6-5.6-4.7c-2.4-1.1-5.2-1.7-8.3-1.7c-2.6,0-5.1,0.4-7.3,1.2c-2.2,0.8-4.1,2-5.7,3.5
		c-1.6,1.5-2.7,3.3-3.5,5.4l8.2,3.9c0.6-1.6,1.6-3,3-3.9c1.4-1,3-1.5,4.8-1.5c1.9,0,3.4,0.5,4.5,1.4s1.7,2.1,1.7,3.5v1l-10.3,1.7
		c-2.9,0.5-5.4,1.2-7.4,2.3s-3.4,2.4-4.4,4c-0.9,1.6-1.4,3.5-1.4,5.5c0,2.2,0.5,4.1,1.6,5.8s2.5,2.8,4.5,3.7s4.3,1.3,6.9,1.3
		c2,0,3.8-0.3,5.4-0.8s3.1-1.3,4.4-2.4c0.4-0.4,0.9-0.8,1.3-1.2V52h9.5V27.5C1366.9,24.8,1366.2,22.5,1364.9,20.5L1364.9,20.5
		L1364.9,20.5z M1355.6,41.3c-0.7,1.2-1.7,2.2-3,3s-2.7,1.1-4.4,1.1c-1.3,0-2.3-0.3-3.2-1s-1.3-1.5-1.3-2.7c0-1.2,0.4-2.2,1.2-2.8
		c0.8-0.7,1.9-1.1,3.3-1.4l8.4-1.5v1.2C1356.7,38.7,1356.3,40,1355.6,41.3L1355.6,41.3L1355.6,41.3z"/>
	<path class="st0" d="M1393.9,14.4c-2.6,0-4.8,0.6-6.7,1.7c-1.4,0.9-2.6,2.3-3.4,4.3v-5.6h-9.5V52h10.2V32c0-2.8,0.8-4.9,2.3-6.4
		s3.6-2.3,6.1-2.3h3.2v-8.8H1393.9z"/>
	<path class="st0" d="M1434.9,25.2c-0.8-2.2-2-4.1-3.6-5.8c-1.6-1.7-3.5-3-5.8-3.9s-4.9-1.4-7.8-1.4c-3.5,0-6.7,0.8-9.5,2.5
		s-5,4-6.7,6.9c-1.7,2.9-2.5,6.2-2.5,9.9s0.8,6.8,2.4,9.8c1.6,3,3.8,5.3,6.7,7s6.3,2.6,10.3,2.6c2.5,0,4.9-0.4,7-1.1s4-1.8,5.5-3.2
		s2.7-3,3.4-4.8l-8.2-3.9c-0.7,1.3-1.7,2.3-3,3c-1.3,0.7-2.8,1.1-4.7,1.1c-2,0-3.7-0.4-5.1-1.3c-1.4-0.9-2.4-2.1-3.1-3.7
		c-0.3-0.8-0.6-1.7-0.7-2.7h26c0.2-0.5,0.3-1.1,0.4-1.8c0.1-0.7,0.1-1.4,0.1-2.1C1436.2,29.8,1435.7,27.4,1434.9,25.2L1434.9,25.2
		L1434.9,25.2z M1413.3,23.5c1.3-0.9,2.8-1.3,4.6-1.3s3.3,0.4,4.6,1.3c1.2,0.9,2.1,2.1,2.6,3.6c0.2,0.5,0.3,1.1,0.3,1.7H1410
		c0.1-0.5,0.3-1,0.4-1.5C1411,25.6,1412,24.4,1413.3,23.5L1413.3,23.5L1413.3,23.5z"/>
</g>
</svg>
