<?xml version="1.0" encoding="utf-8"?>
<!-- Generator: Adobe Illustrator 27.2.0, SVG Export Plug-In . SVG Version: 6.00 Build 0)  -->
<svg version="1.1" id="Layer_1" xmlns="http://www.w3.org/2000/svg" xmlns:xlink="http://www.w3.org/1999/xlink" x="0px" y="0px"
	 viewBox="0 0 212.45 4768.09" style="enable-background:new 0 0 212.45 4768.09;" xml:space="preserve">
<style type="text/css">
	.st0{opacity:0.17;}
	.st1{fill:#FFFFFF;}
</style>
<g class="st0">
	<g>
		<g>
			<path class="st1" d="M3.66,4767.09v-62.49c0-11.2,1.99-21.25,5.9-29.89c3.9-8.58,9.75-15.42,17.39-20.33
				c7.65-4.9,17.25-7.39,28.54-7.39c11,0,20.45,2.52,28.09,7.5c7.65,4.98,13.54,11.86,17.51,20.45c3.99,8.63,6.01,18.61,6.01,29.66
				v30.08h59.94v32.41H3.66z M55.5,4679.4c-4.74,0-8.95,1.05-12.49,3.13c-3.55,2.08-6.36,5.01-8.37,8.71
				c-2,3.69-3.01,8.11-3.01,13.13v30.3h47.51v-30.3c0-5.03-1.01-9.45-3.01-13.13c-2-3.7-4.81-6.63-8.37-8.71
				C64.23,4680.46,60.1,4679.4,55.5,4679.4z"/>
			<path d="M55.5,4647.99c10.8,0,20.07,2.47,27.55,7.34c7.49,4.87,13.26,11.61,17.15,20.03c3.93,8.5,5.92,18.33,5.92,29.24v29.08v2
				h2h57.94v30.41H4.66v-61.49c0-11.05,1.96-20.97,5.82-29.48c3.82-8.41,9.54-15.1,17.02-19.9
				C34.98,4650.43,44.41,4647.99,55.5,4647.99 M30.63,4735.68h2h45.51h2v-2v-29.3c0-5.2-1.05-9.78-3.13-13.6
				c-2.09-3.86-5.03-6.92-8.74-9.1c-3.7-2.17-8-3.27-12.78-3.27c-4.92,0-9.3,1.1-13,3.27c-3.71,2.18-6.65,5.24-8.74,9.1
				c-2.07,3.84-3.13,8.41-3.13,13.6v29.3V4735.68 M55.5,4645.99c-11.54,0-21.24,2.52-29.08,7.55c-7.84,5.03-13.76,11.95-17.76,20.76
				c-4,8.81-5.99,18.91-5.99,30.3v63.49h165.39v-34.41h-59.94v-29.08c0-11.25-2.03-21.27-6.11-30.08
				c-4.07-8.8-10.02-15.76-17.87-20.87C76.29,4648.55,66.75,4645.99,55.5,4645.99L55.5,4645.99z M32.63,4733.68v-29.3
				c0-4.88,0.96-9.1,2.89-12.65c1.93-3.55,4.59-6.33,7.99-8.33c3.41-2,7.4-3,11.99-3c4.44,0,8.36,1,11.77,3
				c3.41,2,6.07,4.77,7.99,8.33c1.93,3.55,2.89,7.77,2.89,12.65v29.3H32.63L32.63,4733.68z"/>
		</g>
		<g>
			<path class="st1" d="M47.84,4625.46v-29.08h22.22l-4.75-1.93c-6.33-2.56-10.87-6.12-13.5-10.57c-3.52-5.96-5.3-13.14-5.3-21.36
				v-6.1h26.86v9.43c0,8.38,2.6,15.26,7.72,20.46c5.13,5.21,12.43,7.85,21.69,7.85h64.27v31.3H47.84z"/>
			<path d="M72.37,4557.42v8.43c0,8.65,2.7,15.77,8.01,21.16c5.33,5.4,12.86,8.14,22.4,8.14h63.27v29.3H48.84v-27.08h16.09h10.26
				l-9.51-3.85c-6.12-2.48-10.5-5.9-13.01-10.15c-3.43-5.8-5.16-12.82-5.16-20.85v-5.1H72.37 M74.37,4555.42H45.51v7.1
				c0,8.44,1.81,15.73,5.44,21.87c2.76,4.67,7.42,8.33,13.98,10.99H46.84v31.08h121.21v-33.3h-65.27c-9.03,0-16.02-2.51-20.98-7.55
				c-4.96-5.03-7.44-11.62-7.44-19.76V4555.42L74.37,4555.42z"/>
		</g>
		<g>
			<path class="st1" d="M107.23,4544.65c-11.91,0-22.64-2.68-31.92-7.97c-9.28-5.29-16.7-12.53-22.06-21.51
				c-5.36-8.98-8.07-19.26-8.07-30.57c0-9.44,1.51-17.9,4.48-25.15c2.97-7.23,7.18-13.42,12.52-18.41
				c5.35-4.99,11.63-8.84,18.65-11.45c7.04-2.61,14.8-3.93,23.07-3.93c2.32,0,4.64,0.11,6.9,0.33c1.89,0.18,3.56,0.5,4.98,0.94
				v85.31l1.13-0.14c3.2-0.41,6.2-1.21,8.92-2.38c5.35-2.29,9.57-5.86,12.55-10.6c2.97-4.73,4.48-10.51,4.48-17.18
				c0-6.07-1.24-11.35-3.68-15.7c-2.29-4.08-5.43-7.37-9.35-9.78l11.86-24.96c5.39,2.31,10.2,5.87,14.29,10.58
				c4.34,4.99,7.75,10.96,10.13,17.77c2.39,6.82,3.61,14.4,3.61,22.54c0,12.64-2.83,23.74-8.4,33.01
				c-5.58,9.27-13.18,16.55-22.59,21.61C129.3,4542.08,118.7,4544.65,107.23,4544.65z M92.25,4458.95c-2,0.2-3.9,0.59-5.65,1.17
				c-5.14,1.69-9.27,4.69-12.27,8.92c-2.99,4.23-4.51,9.46-4.51,15.56c0,5.95,1.48,11.14,4.39,15.44c2.92,4.3,7.26,7.56,12.91,9.7
				c1.51,0.57,3.2,1.07,5.02,1.47l1.22,0.27v-52.64L92.25,4458.95z"/>
			<path d="M103.9,4426.66c2.29,0,4.58,0.11,6.8,0.32c1.52,0.15,2.88,0.38,4.08,0.7v83.42v2.27l2.25-0.29
				c3.29-0.42,6.38-1.25,9.19-2.45c5.54-2.37,9.91-6.07,13-10.98c3.08-4.89,4.64-10.85,4.64-17.72c0-6.24-1.28-11.69-3.81-16.19
				c-2.22-3.97-5.23-7.21-8.94-9.66l11.06-23.28c4.9,2.26,9.28,5.59,13.05,9.93c4.25,4.89,7.6,10.76,9.94,17.44
				c2.36,6.71,3.55,14.18,3.55,22.2c0,12.45-2.78,23.38-8.26,32.49c-5.48,9.12-12.95,16.27-22.21,21.25
				c-9.28,5-19.71,7.53-31.02,7.53c-11.73,0-22.3-2.64-31.42-7.84c-9.12-5.21-16.42-12.32-21.7-21.15
				c-5.26-8.82-7.93-18.93-7.93-30.06c0-9.31,1.48-17.64,4.4-24.77c2.91-7.09,7.04-13.17,12.28-18.06
				c5.26-4.9,11.42-8.68,18.31-11.24C88.09,4427.96,95.74,4426.66,103.9,4426.66 M94.35,4512.73v-2.5v-50.29v-2.21l-2.2,0.22
				c-2.07,0.21-4.05,0.62-5.86,1.21c-5.35,1.76-9.65,4.89-12.77,9.29c-3.12,4.4-4.7,9.83-4.7,16.14c0,6.15,1.54,11.53,4.56,16
				c3.03,4.47,7.54,7.86,13.38,10.07c1.56,0.59,3.29,1.1,5.16,1.52L94.35,4512.73 M103.9,4424.66c-8.44,0-16.24,1.33-23.42,4
				c-7.18,2.66-13.5,6.55-18.98,11.66c-5.47,5.11-9.73,11.36-12.77,18.76c-3.03,7.4-4.55,15.91-4.55,25.53
				c0,11.54,2.74,21.91,8.21,31.08c5.48,9.18,12.95,16.47,22.42,21.87c9.47,5.4,20.28,8.1,32.41,8.1c11.69,0,22.35-2.59,31.97-7.77
				c9.62-5.18,17.28-12.5,22.98-21.98c5.7-9.47,8.55-20.65,8.55-33.52c0-8.29-1.22-15.91-3.66-22.87
				c-2.44-6.96-5.88-12.99-10.32-18.09c-4.44-5.11-9.62-8.84-15.54-11.21l-12.65,26.64c4.15,2.37,7.4,5.66,9.77,9.88
				c2.37,4.22,3.55,9.29,3.55,15.21c0,6.51-1.44,12.06-4.33,16.65c-2.89,4.59-6.92,7.99-12.1,10.21c-2.67,1.14-5.56,1.91-8.66,2.31
				v-84.89c-1.63-0.59-3.59-1-5.88-1.22C108.6,4424.77,106.26,4424.66,103.9,4424.66L103.9,4424.66z M92.35,4510.23
				c-1.72-0.38-3.35-0.85-4.88-1.43c-5.47-2.07-9.62-5.18-12.43-9.32c-2.81-4.14-4.22-9.1-4.22-14.87c0-5.92,1.44-10.91,4.33-14.99
				c2.89-4.07,6.81-6.92,11.77-8.55c1.73-0.57,3.54-0.93,5.44-1.12V4510.23L92.35,4510.23z"/>
		</g>
		<g>
			<path class="st1" d="M47.84,4404.12v-29.08h17.81l-3.69-1.89c-4.27-2.19-7.73-5.29-10.29-9.2c-4.31-6.61-6.5-14.64-6.5-23.87
				c0-9.81,2.52-18.55,7.49-25.97c2.88-4.29,6.38-7.7,10.41-10.13l1.33-0.8l-1.28-0.88c-4.56-3.12-8.26-6.88-11-11.16
				c-4.61-7.2-6.95-15.76-6.95-25.43c0-8.51,1.9-16.15,5.64-22.7c3.74-6.54,9.03-11.75,15.71-15.5c6.7-3.75,14.64-5.64,23.6-5.64
				h76.92v31.3H97.24c-4.86,0-9.12,0.89-12.66,2.66c-3.56,1.78-6.38,4.33-8.4,7.58c-2.01,3.26-3.04,7.24-3.04,11.85
				c0,4.46,1.02,8.4,3.03,11.73c2.01,3.33,4.84,5.92,8.4,7.7c3.53,1.76,7.79,2.66,12.66,2.66h69.82v31.3H97.24
				c-4.86,0-9.12,0.89-12.66,2.66c-3.56,1.78-6.38,4.33-8.4,7.58c-2.01,3.26-3.04,7.24-3.04,11.85c0,4.45,1.02,8.4,3.03,11.73
				c2.02,3.33,4.84,5.93,8.4,7.7c3.53,1.76,7.79,2.66,12.66,2.66h69.82v31.3H47.84z"/>
			<path d="M166.05,4222.86v29.3H97.24c-5.02,0-9.43,0.93-13.1,2.76c-3.72,1.86-6.68,4.54-8.8,7.95c-2.11,3.42-3.18,7.58-3.18,12.37
				c0,4.64,1.07,8.76,3.17,12.25c2.11,3.5,5.08,6.22,8.81,8.08c3.67,1.83,8.08,2.76,13.1,2.76h68.82v29.3H97.24
				c-5.02,0-9.43,0.93-13.11,2.77c-3.73,1.86-6.69,4.54-8.8,7.95c-2.11,3.42-3.18,7.58-3.18,12.37c0,4.64,1.07,8.76,3.17,12.25
				c2.12,3.5,5.08,6.22,8.81,8.08c3.67,1.83,8.08,2.77,13.1,2.77h68.82v29.3H48.84v-27.08H61.5h8.29l-7.37-3.78
				c-4.11-2.11-7.45-5.09-9.9-8.86c-4.2-6.44-6.34-14.29-6.34-23.33c0-9.61,2.46-18.16,7.32-25.42c2.79-4.17,6.19-7.48,10.09-9.83
				l2.67-1.6l-2.57-1.76c-4.45-3.05-8.06-6.71-10.72-10.87c-4.5-7.04-6.79-15.41-6.79-24.9c0-8.33,1.85-15.81,5.51-22.21
				c3.65-6.38,8.81-11.47,15.33-15.12c6.55-3.66,14.33-5.52,23.11-5.52H166.05 M168.05,4220.86H90.13c-9.17,0-17.21,1.92-24.09,5.77
				c-6.88,3.85-12.25,9.14-16.09,15.87c-3.85,6.74-5.77,14.47-5.77,23.2c0,9.92,2.37,18.58,7.1,25.97
				c2.83,4.42,6.6,8.23,11.28,11.44c-4.16,2.51-7.74,5.98-10.72,10.43c-5.11,7.62-7.66,16.47-7.66,26.53
				c0,9.47,2.22,17.61,6.66,24.42c2.67,4.1,6.23,7.27,10.67,9.55H46.84v31.08h121.21v-33.3H97.24c-4.74,0-8.8-0.85-12.21-2.55
				c-3.4-1.7-6.07-4.14-7.99-7.33c-1.92-3.18-2.89-6.92-2.89-11.21c0-4.44,0.96-8.21,2.89-11.32c1.92-3.11,4.59-5.51,7.99-7.21
				c3.41-1.7,7.47-2.55,12.21-2.55h70.82v-33.3H97.24c-4.74,0-8.8-0.85-12.21-2.55c-3.4-1.7-6.07-4.14-7.99-7.33
				c-1.92-3.18-2.89-6.92-2.89-11.21c0-4.44,0.96-8.21,2.89-11.32c1.92-3.11,4.59-5.51,7.99-7.21c3.41-1.7,7.47-2.55,12.21-2.55
				h70.82V4220.86L168.05,4220.86z"/>
		</g>
		<g>
			<rect x="47.84" y="4166.59" class="st1" width="119.21" height="31.3"/>
			<path d="M166.05,4167.59v29.3H48.84v-29.3H166.05 M168.05,4165.59H46.84v33.3h121.21V4165.59L168.05,4165.59z"/>
		</g>
		<g>
			<rect x="3.66" y="4166.59" class="st1" width="31.3" height="31.3"/>
			<path d="M33.96,4167.59v29.3H4.66v-29.3H33.96 M35.96,4165.59H2.66v33.3h33.3V4165.59L35.96,4165.59z"/>
		</g>
		<g>
			<path class="st1" d="M47.84,4142.61v-31.3h69.82c4.74,0,8.97-0.97,12.57-2.89c3.63-1.93,6.5-4.71,8.5-8.27
				c2-3.54,3.02-7.59,3.02-12.04c0-4.6-1.02-8.69-3.02-12.16c-2-3.47-4.87-6.22-8.5-8.15c-3.61-1.92-7.83-2.89-12.57-2.89H47.84
				v-31.3h119.21v29.08h-17.84l3.56,1.88c5.16,2.73,9.15,6.59,11.85,11.48c3.38,6.12,5.09,13.38,5.09,21.61
				c0,9.53-2.08,17.76-6.18,24.45c-4.09,6.68-9.89,11.82-17.22,15.27c-7.38,3.47-16.12,5.23-25.99,5.23H47.84z"/>
			<path d="M166.05,4034.61v27.08h-12.81h-8.06l7.13,3.77c4.99,2.64,8.83,6.36,11.44,11.08c3.3,5.97,4.97,13.07,4.97,21.12
				c0,9.35-2.03,17.4-6.03,23.93c-3.99,6.51-9.64,11.52-16.79,14.89c-7.24,3.41-15.85,5.14-25.57,5.14H48.84v-29.3h68.82
				c4.91,0,9.29-1.01,13.04-3.01c3.81-2.02,6.8-4.94,8.91-8.66c2.09-3.69,3.14-7.91,3.14-12.53c0-4.78-1.06-9.04-3.15-12.66
				c-2.1-3.64-5.09-6.51-8.9-8.54c-3.75-2-8.14-3.01-13.04-3.01H48.84v-29.3H166.05 M168.05,4032.61H46.84v33.3h70.82
				c4.59,0,8.62,0.93,12.1,2.77c3.48,1.85,6.18,4.44,8.1,7.77c1.92,3.33,2.89,7.21,2.89,11.66c0,4.29-0.96,8.14-2.89,11.54
				c-1.92,3.41-4.62,6.03-8.1,7.88c-3.48,1.85-7.51,2.77-12.1,2.77H46.84v33.3h73.48c10.07,0,18.87-1.78,26.42-5.33
				c7.55-3.55,13.43-8.77,17.65-15.65s6.33-15.21,6.33-24.97c0-8.44-1.74-15.8-5.22-22.09c-2.83-5.12-6.93-9.06-12.26-11.88h14.81
				V4032.61L168.05,4032.61z"/>
		</g>
		<g>
			<path class="st1" d="M47.84,4007.19v-29.08h17.81l-3.69-1.89c-4.27-2.19-7.73-5.29-10.29-9.2c-4.31-6.61-6.5-14.64-6.5-23.87
				c0-9.81,2.52-18.55,7.49-25.97c2.88-4.29,6.38-7.7,10.41-10.13l1.33-0.8l-1.28-0.88c-4.56-3.12-8.26-6.88-11-11.16
				c-4.61-7.2-6.95-15.76-6.95-25.43c0-8.51,1.9-16.15,5.64-22.7c3.74-6.54,9.03-11.75,15.71-15.5c6.7-3.75,14.64-5.64,23.6-5.64
				h76.92v31.3H97.24c-4.86,0-9.12,0.89-12.66,2.66c-3.56,1.78-6.38,4.33-8.4,7.58c-2.01,3.26-3.04,7.24-3.04,11.85
				c0,4.46,1.02,8.4,3.03,11.73c2.01,3.33,4.84,5.92,8.4,7.7c3.53,1.76,7.79,2.66,12.66,2.66h69.82v31.3H97.24
				c-4.86,0-9.12,0.89-12.66,2.66c-3.56,1.78-6.38,4.33-8.4,7.58c-2.01,3.26-3.04,7.24-3.04,11.85c0,4.45,1.02,8.4,3.03,11.73
				c2.02,3.33,4.84,5.93,8.4,7.7c3.53,1.76,7.79,2.66,12.66,2.66h69.82v31.3H47.84z"/>
			<path d="M166.05,3825.93v29.3H97.24c-5.02,0-9.43,0.93-13.1,2.76c-3.72,1.86-6.68,4.54-8.8,7.95c-2.11,3.42-3.18,7.58-3.18,12.37
				c0,4.64,1.07,8.76,3.17,12.25c2.11,3.5,5.08,6.22,8.81,8.08c3.67,1.83,8.08,2.76,13.1,2.76h68.82v29.3H97.24
				c-5.02,0-9.43,0.93-13.11,2.77c-3.73,1.86-6.69,4.54-8.8,7.95c-2.11,3.42-3.18,7.58-3.18,12.37c0,4.64,1.07,8.76,3.17,12.25
				c2.12,3.5,5.08,6.22,8.81,8.08c3.67,1.83,8.08,2.77,13.1,2.77h68.82v29.3H48.84v-27.08H61.5h8.29l-7.37-3.78
				c-4.11-2.11-7.45-5.09-9.9-8.86c-4.2-6.44-6.34-14.29-6.34-23.33c0-9.61,2.46-18.16,7.32-25.42c2.79-4.17,6.19-7.48,10.09-9.83
				l2.67-1.6l-2.57-1.76c-4.45-3.05-8.06-6.71-10.72-10.87c-4.5-7.04-6.79-15.41-6.79-24.9c0-8.33,1.85-15.81,5.51-22.21
				c3.65-6.38,8.81-11.47,15.33-15.12c6.55-3.66,14.33-5.52,23.11-5.52H166.05 M168.05,3823.93H90.13c-9.17,0-17.21,1.92-24.09,5.77
				c-6.88,3.85-12.25,9.14-16.09,15.87c-3.85,6.74-5.77,14.47-5.77,23.2c0,9.92,2.37,18.58,7.1,25.97
				c2.83,4.42,6.6,8.23,11.28,11.44c-4.16,2.51-7.74,5.98-10.72,10.43c-5.11,7.62-7.66,16.47-7.66,26.53
				c0,9.47,2.22,17.61,6.66,24.42c2.67,4.09,6.23,7.27,10.67,9.55H46.84v31.08h121.21v-33.3H97.24c-4.74,0-8.8-0.85-12.21-2.55
				c-3.4-1.7-6.07-4.14-7.99-7.33c-1.92-3.18-2.89-6.92-2.89-11.21c0-4.44,0.96-8.21,2.89-11.32c1.92-3.11,4.59-5.51,7.99-7.21
				c3.41-1.7,7.47-2.55,12.21-2.55h70.82v-33.3H97.24c-4.74,0-8.8-0.85-12.21-2.55c-3.4-1.7-6.07-4.14-7.99-7.33
				c-1.92-3.18-2.89-6.92-2.89-11.21c0-4.44,0.96-8.21,2.89-11.32c1.92-3.11,4.59-5.51,7.99-7.21c3.41-1.7,7.47-2.55,12.21-2.55
				h70.82V3823.93L168.05,3823.93z"/>
		</g>
		<g>
			<polygon class="st1" points="3.66,3735.25 124.8,3706.72 3.66,3676.63 3.66,3642.67 124.8,3612.58 3.66,3584.04 3.66,3548.83 
				167.05,3591.6 167.05,3630.01 53.08,3659.65 167.05,3689.28 167.05,3727.7 3.66,3770.46 			"/>
			<path d="M4.66,3550.13l161.39,42.24v36.87l-109.5,28.47l-7.44,1.94l7.44,1.94l109.5,28.47v36.87L4.66,3769.17v-33.12
				l116.34-27.41l8.04-1.9l-8.02-1.99L4.66,3675.84v-32.39l116.37-28.91l8.02-1.99l-8.05-1.9L4.66,3583.25V3550.13 M2.66,3547.54
				v37.3l117.89,27.77L2.66,3641.89v35.52l117.89,29.28L2.66,3734.46v37.3l165.39-43.29v-39.96l-111-28.86l111-28.86v-39.96
				L2.66,3547.54L2.66,3547.54z"/>
		</g>
		<g>
			<path class="st1" d="M107.45,3543.43c-12.04,0-22.84-2.9-32.11-8.62c-9.28-5.73-16.71-13.52-22.07-23.17
				c-5.37-9.65-8.09-20.5-8.09-32.26c0-11.75,2.72-22.57,8.09-32.14c5.36-9.57,12.79-17.33,22.07-23.06
				c9.27-5.72,20.07-8.62,32.11-8.62c11.89,0,22.66,2.9,32,8.62c9.36,5.73,16.82,13.49,22.18,23.06c5.36,9.57,8.08,20.38,8.08,32.14
				c0,11.76-2.72,22.62-8.09,32.26c-5.36,9.64-12.83,17.44-22.18,23.17C130.11,3540.53,119.34,3543.43,107.45,3543.43z
				 M107.45,3447.97c-6.64,0-12.58,1.34-17.67,4c-5.09,2.66-9.18,6.37-12.15,11c-2.98,4.66-4.49,10.18-4.49,16.41
				c0,6.23,1.51,11.79,4.48,16.52c2.97,4.72,7.06,8.46,12.15,11.12c5.08,2.65,11.02,4,17.67,4c6.65,0,12.63-1.34,17.77-4
				c5.18-2.66,9.27-6.41,12.16-11.13c2.9-4.72,4.37-10.28,4.37-16.51c0-6.23-1.47-11.75-4.37-16.4c-2.89-4.65-6.98-8.35-12.16-11.02
				C120.07,3449.31,114.09,3447.97,107.45,3447.97z"/>
			<path d="M107.45,3416.56c11.7,0,22.29,2.85,31.48,8.48c9.21,5.64,16.56,13.28,21.83,22.69c5.28,9.42,7.96,20.07,7.96,31.66
				c0,11.59-2.68,22.28-7.96,31.77c-5.28,9.49-12.62,17.16-21.83,22.8c-9.18,5.62-19.77,8.47-31.48,8.47
				c-11.85,0-22.48-2.85-31.58-8.47c-9.13-5.64-16.44-13.31-21.72-22.8c-5.28-9.5-7.96-20.19-7.96-31.77
				c0-11.58,2.68-22.23,7.96-31.66c5.28-9.42,12.59-17.05,21.73-22.7C84.98,3419.41,95.6,3416.56,107.45,3416.56 M107.45,3512.02
				c6.81,0,12.94-1.38,18.23-4.11c5.34-2.75,9.57-6.62,12.56-11.5c2.99-4.88,4.51-10.61,4.51-17.03c0-6.42-1.52-12.11-4.52-16.93
				c-2.99-4.8-7.21-8.63-12.55-11.38c-5.3-2.72-11.43-4.11-18.23-4.11c-6.8,0-12.9,1.38-18.13,4.11
				c-5.25,2.74-9.46,6.56-12.53,11.35c-3.08,4.82-4.64,10.52-4.64,16.95s1.56,12.16,4.64,17.05c3.06,4.87,7.28,8.73,12.53,11.47
				C94.54,3510.64,100.64,3512.02,107.45,3512.02 M107.45,3414.56c-12.28,0-23.16,2.92-32.63,8.77
				c-9.47,5.85-16.94,13.65-22.42,23.42c-5.47,9.77-8.21,20.65-8.21,32.63s2.74,22.9,8.21,32.75c5.48,9.84,12.95,17.69,22.42,23.53
				c9.47,5.85,20.35,8.77,32.63,8.77c12.14,0,22.98-2.92,32.52-8.77c9.55-5.84,17.06-13.69,22.53-23.53
				c5.48-9.84,8.21-20.76,8.21-32.75s-2.74-22.87-8.21-32.63c-5.47-9.77-12.99-17.57-22.53-23.42
				C130.42,3417.48,119.58,3414.56,107.45,3414.56L107.45,3414.56z M107.45,3510.02c-6.51,0-12.25-1.29-17.21-3.88
				c-4.96-2.59-8.88-6.18-11.77-10.77c-2.89-4.59-4.33-9.91-4.33-15.98c0-6.07,1.44-11.36,4.33-15.87
				c2.89-4.51,6.81-8.06,11.77-10.66c4.96-2.59,10.69-3.88,17.21-3.88c6.51,0,12.29,1.3,17.32,3.88c5.03,2.59,8.96,6.14,11.77,10.66
				c2.81,4.52,4.22,9.81,4.22,15.87c0,6.07-1.41,11.4-4.22,15.98c-2.81,4.59-6.73,8.18-11.77,10.77
				C119.73,3508.73,113.96,3510.02,107.45,3510.02L107.45,3510.02z"/>
		</g>
		<g>
			<path class="st1" d="M47.84,3394.02v-29.08h22.22l-4.75-1.93c-6.33-2.56-10.87-6.12-13.5-10.57c-3.52-5.96-5.3-13.14-5.3-21.36
				v-6.1h26.86v9.43c0,8.38,2.6,15.26,7.72,20.46c5.13,5.21,12.43,7.85,21.69,7.85h64.27v31.3H47.84z"/>
			<path d="M72.37,3325.98v8.43c0,8.65,2.7,15.77,8.01,21.16c5.33,5.4,12.86,8.14,22.4,8.14h63.27v29.3H48.84v-27.08h16.09h10.26
				l-9.51-3.85c-6.12-2.48-10.5-5.9-13.01-10.15c-3.43-5.8-5.16-12.82-5.16-20.85v-5.1H72.37 M74.37,3323.98H45.51v7.1
				c0,8.44,1.81,15.73,5.44,21.87c2.76,4.67,7.42,8.33,13.98,10.99H46.84v31.08h121.21v-33.3h-65.27c-9.03,0-16.02-2.51-20.98-7.55
				c-4.96-5.03-7.44-11.62-7.44-19.76V3323.98L74.37,3323.98z"/>
		</g>
		<g>
			<polygon class="st1" points="1,3308.33 1,3277.03 92.99,3277.03 47.84,3234.53 47.84,3196.14 95.56,3239.09 167.05,3195.89 
				167.05,3231.29 114.7,3262.47 130.56,3277.03 167.05,3277.03 167.05,3308.33 			"/>
			<path d="M166.05,3197.66v33.06l-50.72,30.21l-2.31,1.38l1.98,1.82l14.59,13.39l0.57,0.53h0.78h35.1v29.3H2v-29.3h88.47h5.04
				l-3.67-3.46l-43-40.48v-35.72l45.5,40.95l1.1,0.99l1.27-0.77L166.05,3197.66 M46.84,3193.89v41.07l43.63,41.07H0v33.3h168.05
				v-33.3h-37.1l-14.59-13.39l51.69-30.79v-37.74l-72.37,43.73L46.84,3193.89L46.84,3193.89z"/>
		</g>
		<g>
			<path class="st1" d="M125.65,3162.61c6.22-3.13,11.2-7.35,14.81-12.55c3.8-5.47,5.73-11.64,5.73-18.33
				c0-4.94-1.04-8.8-3.09-11.49c-2.11-2.76-5.07-4.17-8.79-4.17c-1.98,0-3.7,0.51-5.13,1.51c-1.37,0.97-2.62,2.42-3.73,4.31
				c-1.07,1.84-2,4.16-2.76,6.9l-5.77,20.64c-2.74,9.67-7.23,17.2-13.34,22.37c-6.07,5.15-13.36,7.76-21.66,7.76
				c-7.31,0-13.77-1.88-19.19-5.6c-5.44-3.72-9.77-9.04-12.86-15.8c-3.11-6.79-4.68-14.72-4.68-23.56c0-11.59,2.75-21.91,8.18-30.67
				c5.24-8.46,12.66-14.59,22.06-18.24l10.69,22.83c-4.75,1.91-8.64,5.16-11.57,9.67c-3.13,4.81-4.71,10.33-4.71,16.42
				c0,4.49,0.96,8.08,2.86,10.69c1.97,2.7,4.7,4.08,8.13,4.08c1.82,0,3.5-0.5,5-1.5c1.47-0.98,2.78-2.56,3.88-4.7
				c1.06-2.04,2.05-4.6,2.96-7.61l5.77-19.32c2.9-9.84,7.32-17.45,13.14-22.63c5.78-5.13,12.99-7.74,21.42-7.74
				c7.3,0,13.76,1.92,19.19,5.7c5.45,3.8,9.78,9.15,12.87,15.91c3.11,6.8,4.68,14.95,4.68,24.23c0,13.07-3.12,24.58-9.28,34.2
				c-5.97,9.34-14.06,15.86-24.06,19.39L125.65,3162.61z"/>
			<path d="M132.98,3086.89c7.09,0,13.36,1.86,18.61,5.52c5.3,3.7,9.52,8.91,12.53,15.51c3.05,6.67,4.59,14.68,4.59,23.81
				c0,12.87-3.07,24.2-9.12,33.67c-5.67,8.88-13.3,15.16-22.7,18.68l-9.94-21.02c5.97-3.16,10.78-7.33,14.32-12.42
				c3.92-5.64,5.91-12,5.91-18.9c0-5.16-1.11-9.23-3.3-12.09c-2.31-3.03-5.54-4.56-9.58-4.56c-2.19,0-4.1,0.57-5.71,1.7
				c-1.49,1.05-2.84,2.6-4.01,4.62c-1.11,1.91-2.08,4.31-2.86,7.13l-5.77,20.64c-2.69,9.48-7.07,16.84-13.02,21.89
				c-5.89,4.99-12.96,7.52-21.02,7.52c-7.1,0-13.37-1.82-18.63-5.42c-5.29-3.62-9.5-8.8-12.52-15.39
				c-3.05-6.66-4.59-14.45-4.59-23.14c0-11.4,2.7-21.54,8.03-30.14c4.96-8.01,11.92-13.89,20.7-17.49l9.85,21.03
				c-4.5,2.03-8.22,5.26-11.07,9.63c-3.23,4.97-4.87,10.68-4.87,16.96c0,4.7,1.03,8.5,3.05,11.28c2.16,2.98,5.17,4.49,8.94,4.49
				c2.02,0,3.89-0.56,5.55-1.67c1.61-1.08,3.03-2.78,4.22-5.07c1.09-2.1,2.11-4.72,3.03-7.79l5.77-19.32
				c2.84-9.66,7.16-17.11,12.84-22.16C117.81,3089.41,124.79,3086.89,132.98,3086.89 M75.92,3084.45
				c-10.06,3.7-17.87,10.03-23.42,18.98c-5.55,8.96-8.33,19.35-8.33,31.19c0,9.03,1.59,17.02,4.77,23.98
				c3.18,6.96,7.59,12.36,13.21,16.21c5.63,3.85,12.21,5.77,19.76,5.77c8.58,0,16.02-2.66,22.31-7.99
				c6.29-5.33,10.84-12.95,13.65-22.87l5.77-20.65c0.74-2.66,1.63-4.88,2.66-6.66c1.04-1.78,2.18-3.11,3.44-4
				c1.26-0.89,2.78-1.33,4.55-1.33c3.41,0,6.07,1.26,7.99,3.77c1.93,2.52,2.89,6.14,2.89,10.88c0,6.51-1.85,12.43-5.55,17.76
				c-3.7,5.33-8.8,9.55-15.32,12.65l11.54,24.42c10.66-3.55,19.13-10.25,25.42-20.09c6.29-9.84,9.43-21.42,9.43-34.74
				c0-9.47-1.59-17.68-4.77-24.64c-3.18-6.95-7.58-12.39-13.21-16.32c-5.62-3.92-12.21-5.88-19.76-5.88
				c-8.73,0-16.09,2.66-22.09,7.99s-10.47,13.03-13.43,23.09l-5.77,19.31c-0.89,2.96-1.85,5.44-2.89,7.44
				c-1.03,2-2.22,3.44-3.55,4.33c-1.33,0.89-2.81,1.33-4.44,1.33c-3.11,0-5.55-1.22-7.33-3.66c-1.78-2.44-2.66-5.81-2.66-10.1
				c0-5.92,1.52-11.21,4.55-15.87c3.04-4.66,7.07-7.88,12.1-9.66L75.92,3084.45L75.92,3084.45z"/>
		</g>
		<g>
			<path class="st1" d="M47.84,3063.91v-29.08h14.32l-2.08-1.76c-4.14-3.52-7.51-7.93-10.02-13.1c-3.25-6.71-4.9-14.52-4.9-23.21
				c0-11.3,2.79-21.66,8.29-30.79c5.51-9.13,13.05-16.48,22.4-21.85c9.35-5.36,19.98-8.08,31.58-8.08c11.46,0,22.05,2.68,31.48,7.98
				c9.42,5.29,16.99,12.61,22.5,21.73c5.5,9.12,8.29,19.62,8.29,31.23c0,8.11-1.5,15.71-4.47,22.58c-1.85,4.3-4.3,8.13-7.27,11.38
				l-1.53,1.67h55.01v31.3H47.84z M107.45,2968.45c-6.65,0-12.59,1.38-17.68,4.12c-5.09,2.74-9.18,6.59-12.15,11.46
				c-2.97,4.88-4.47,10.58-4.47,16.95c0,6.07,1.47,11.59,4.36,16.39c2.9,4.8,6.99,8.59,12.16,11.25c5.15,2.65,11.13,4,17.77,4
				c6.65,0,12.63-1.34,17.77-4c5.18-2.66,9.27-6.45,12.16-11.25c2.89-4.8,4.36-10.31,4.36-16.39c0-6.37-1.47-12.07-4.36-16.94
				s-6.98-8.73-12.16-11.47C120.08,2969.83,114.1,2968.45,107.45,2968.45z"/>
			<path d="M107.45,2937.04c11.29,0,21.72,2.64,30.99,7.85c9.27,5.21,16.72,12.4,22.13,21.38c5.41,8.96,8.15,19.29,8.15,30.71
				c0,7.97-1.48,15.44-4.39,22.18c-1.81,4.2-4.2,7.93-7.09,11.1l-3.06,3.35h4.54h51.74v29.3H48.84v-27.08h10.6h5.45l-4.15-3.52
				c-4.03-3.43-7.32-7.73-9.76-12.78c-3.18-6.58-4.8-14.24-4.8-22.77c0-11.12,2.74-21.3,8.15-30.27
				c5.42-8.99,12.84-16.22,22.04-21.5C85.56,2939.71,96.02,2937.04,107.45,2937.04 M107.45,3033.61c6.81,0,12.94-1.38,18.23-4.11
				c5.34-2.75,9.57-6.66,12.56-11.62c2.99-4.95,4.51-10.64,4.51-16.91c0-6.55-1.51-12.42-4.5-17.45
				c-2.99-5.03-7.21-9.02-12.55-11.85c-5.3-2.81-11.44-4.23-18.25-4.23c-6.81,0-12.92,1.42-18.15,4.23
				c-5.25,2.82-9.47,6.8-12.53,11.82c-3.07,5.03-4.62,10.91-4.62,17.47c0,6.26,1.52,11.95,4.51,16.91c3,4.96,7.22,8.88,12.56,11.62
				C94.51,3032.23,100.64,3033.61,107.45,3033.61 M107.45,2935.04c-11.84,0-22.53,2.74-32.08,8.21
				c-9.55,5.48-17.13,12.88-22.75,22.2c-5.62,9.32-8.44,19.76-8.44,31.3c0,8.88,1.67,16.76,5,23.64c2.59,5.35,6.02,9.82,10.27,13.43
				h-12.6v31.08h165.61v-33.3h-53.74c3.06-3.34,5.54-7.23,7.45-11.66c3.03-7.03,4.55-14.69,4.55-22.98
				c0-11.84-2.81-22.42-8.44-31.75c-5.62-9.32-13.24-16.68-22.87-22.09C129.8,2937.74,119.14,2935.04,107.45,2935.04L107.45,2935.04
				z M107.45,3031.61c-6.51,0-12.28-1.29-17.32-3.88c-5.03-2.59-8.95-6.22-11.77-10.88c-2.81-4.66-4.22-9.95-4.22-15.87
				c0-6.22,1.44-11.69,4.33-16.43c2.89-4.73,6.81-8.44,11.77-11.1c4.96-2.66,10.69-4,17.21-4c6.51,0,12.29,1.33,17.32,4
				c5.03,2.66,8.96,6.37,11.77,11.1c2.81,4.74,4.22,10.21,4.22,16.43c0,5.92-1.41,11.21-4.22,15.87
				c-2.81,4.66-6.73,8.29-11.77,10.88C119.73,3030.32,113.96,3031.61,107.45,3031.61L107.45,3031.61z"/>
		</g>
		<g>
			<path class="st1" d="M135.64,2919.39c-6.59,0-12.51-1.52-17.58-4.52c-5.08-3-9.4-7.69-12.84-13.94
				c-3.48-6.3-5.98-14.29-7.44-23.76l-5.56-34.37h-4.09c-4.87,0-9.01,1.95-12.3,5.79c-3.25,3.8-4.9,8.98-4.9,15.41
				c0,6.1,1.71,11.57,5.07,16.24c3.15,4.37,7.3,7.67,12.33,9.82l-11.81,24.87c-6.27-2.32-11.75-5.94-16.3-10.76
				c-4.77-5.06-8.51-11.22-11.11-18.31c-2.61-7.11-3.93-14.98-3.93-23.41c0-10.01,1.83-18.98,5.45-26.66
				c3.6-7.64,8.68-13.66,15.08-17.91c6.39-4.23,13.94-6.38,22.42-6.38h78.92v29.08h-12.95l1.74,1.71c1.39,1.37,2.66,2.76,3.77,4.14
				c3.39,4.18,5.94,8.93,7.59,14.1c1.66,5.21,2.51,11.09,2.51,17.46c0,8.55-1.39,16.03-4.13,22.24
				c-2.72,6.15-6.66,10.94-11.73,14.22C148.8,2917.72,142.67,2919.39,135.64,2919.39z M119.78,2871.5c0.92,4.9,2.52,8.71,4.77,11.35
				c2.33,2.74,5.69,4.12,9.97,4.12c4.02,0,7.21-1.56,9.46-4.62c2.19-2.97,3.3-6.68,3.3-11.03c0-5.63-1.24-10.65-3.68-14.93
				c-2.45-4.28-5.82-7.66-10.04-10.03c-4.2-2.37-8.89-3.57-13.92-3.57h-5L119.78,2871.5z"/>
			<path d="M166.05,2812.5v27.08h-9.51h-4.88l3.48,3.42c1.37,1.35,2.61,2.71,3.7,4.05c3.31,4.08,5.8,8.72,7.42,13.78
				c1.63,5.11,2.46,10.89,2.46,17.15c0,8.41-1.36,15.75-4.05,21.84c-2.64,5.97-6.46,10.61-11.36,13.78
				c-4.89,3.17-10.84,4.78-17.67,4.78c-6.41,0-12.16-1.47-17.07-4.38c-4.92-2.91-9.12-7.47-12.48-13.56
				c-3.42-6.2-5.88-14.08-7.32-23.44l-5.42-33.52l-0.27-1.68h-1.7h-3.24c-5.18,0-9.57,2.06-13.06,6.14
				c-3.41,3.98-5.14,9.39-5.14,16.06c0,6.32,1.77,11.98,5.26,16.82c3.06,4.24,7.02,7.51,11.8,9.73l-10.98,23.11
				c-5.77-2.27-10.83-5.69-15.06-10.18c-4.67-4.96-8.34-11-10.9-17.97c-2.57-6.99-3.87-14.75-3.87-23.06
				c0-9.86,1.8-18.69,5.36-26.23c3.52-7.47,8.48-13.36,14.73-17.5c6.23-4.12,13.59-6.22,21.87-6.22H166.05 M134.53,2887.98
				c4.36,0,7.81-1.69,10.27-5.03c2.32-3.14,3.5-7.05,3.5-11.62c0-5.8-1.28-10.99-3.82-15.42c-2.54-4.44-6.04-7.94-10.41-10.41
				c-4.35-2.45-9.2-3.7-14.41-3.7h-3.81h-2.39l0.42,2.35l4.92,27.55c0.95,5.06,2.63,9.03,5,11.81
				C126.33,2886.47,129.94,2887.98,134.53,2887.98 M168.05,2810.5H88.13c-8.73,0-16.39,2.19-22.98,6.55
				c-6.58,4.37-11.73,10.47-15.43,18.32c-3.7,7.85-5.55,16.87-5.55,27.08c0,8.58,1.33,16.5,4,23.75
				c2.66,7.25,6.44,13.47,11.32,18.65c4.88,5.18,10.73,8.96,17.54,11.32l12.65-26.64c-5.33-2.07-9.62-5.36-12.88-9.88
				c-3.25-4.51-4.88-9.73-4.88-15.65c0-6.22,1.55-11.13,4.66-14.76c3.11-3.62,6.96-5.44,11.54-5.44h3.24l5.42,33.52
				c1.48,9.62,4,17.65,7.55,24.09c3.55,6.44,7.96,11.21,13.21,14.32c5.25,3.11,11.29,4.66,18.09,4.66c7.25,0,13.51-1.7,18.76-5.11
				c5.25-3.4,9.29-8.29,12.1-14.65c2.81-6.36,4.22-13.91,4.22-22.64c0-6.51-0.85-12.43-2.55-17.76c-1.7-5.33-4.29-10.14-7.77-14.43
				c-1.17-1.45-2.46-2.85-3.85-4.22h11.51V2810.5L168.05,2810.5z M134.53,2885.98c-4,0-7.07-1.25-9.21-3.77
				c-2.14-2.51-3.66-6.14-4.55-10.88l-4.92-27.53h3.81c4.88,0,9.36,1.15,13.43,3.44c4.07,2.3,7.29,5.51,9.66,9.66
				c2.37,4.15,3.55,8.96,3.55,14.43c0,4.14-1.03,7.62-3.11,10.43C141.12,2884.57,138.23,2885.98,134.53,2885.98L134.53,2885.98z"/>
		</g>
		<g>
			<path class="st1" d="M107.23,2789.96c-11.75,0-22.45-2.79-31.79-8.3c-9.34-5.5-16.8-13.15-22.17-22.72
				c-5.37-9.58-8.09-20.47-8.09-32.37c0-8.85,1.54-17.17,4.59-24.71c3.04-7.53,7.34-14.07,12.76-19.42
				c5.2-5.13,11.38-8.91,18.39-11.25l11.65,27.05c-5.77,2.18-10.45,5.72-13.9,10.54c-3.66,5.11-5.51,11.09-5.51,17.79
				c0,5.93,1.47,11.3,4.37,15.96c2.9,4.65,6.99,8.36,12.16,11.02c5.15,2.65,11.13,4,17.77,4c6.65,0,12.63-1.34,17.77-4
				c5.17-2.66,9.27-6.37,12.16-11.02c2.9-4.65,4.37-10.02,4.37-15.96c0-6.84-1.86-12.87-5.52-17.9c-3.46-4.75-8.13-8.25-13.89-10.42
				l11.86-27.05c6.58,2.2,12.58,5.91,17.84,11.03c5.5,5.35,9.87,11.89,12.98,19.42c3.12,7.54,4.7,15.93,4.7,24.93
				c0,11.91-2.76,22.76-8.19,32.25c-5.44,9.5-12.98,17.15-22.4,22.72C129.71,2787.13,118.98,2789.96,107.23,2789.96z"/>
			<path d="M134.74,2672.45c6.1,2.18,11.68,5.71,16.6,10.5c5.4,5.26,9.69,11.68,12.76,19.09c3.07,7.42,4.62,15.68,4.62,24.54
				c0,11.73-2.71,22.41-8.06,31.75c-5.35,9.35-12.77,16.87-22.04,22.36c-9.26,5.49-19.82,8.27-31.39,8.27
				c-11.57,0-22.1-2.74-31.29-8.16c-9.19-5.41-16.53-12.93-21.8-22.34c-5.28-9.42-7.96-20.15-7.96-31.88
				c0-8.73,1.52-16.91,4.52-24.34c2.99-7.41,7.21-13.83,12.54-19.08c4.87-4.81,10.63-8.41,17.13-10.71l10.88,25.25
				c-5.51,2.27-10.01,5.8-13.39,10.51c-3.78,5.28-5.7,11.46-5.7,18.37c0,6.12,1.52,11.67,4.52,16.49c2.99,4.8,7.21,8.63,12.55,11.38
				c5.29,2.72,11.43,4.11,18.23,4.11c6.81,0,12.94-1.38,18.23-4.11c5.34-2.75,9.56-6.57,12.55-11.38c3-4.81,4.52-10.36,4.52-16.49
				c0-7.06-1.92-13.28-5.71-18.49c-3.37-4.64-7.86-8.13-13.37-10.39L134.74,2672.45 M133.64,2669.97l-12.65,28.86
				c6.07,2.07,10.88,5.55,14.43,10.43c3.55,4.88,5.33,10.66,5.33,17.32c0,5.77-1.41,10.92-4.22,15.43
				c-2.81,4.52-6.73,8.07-11.77,10.66c-5.03,2.59-10.8,3.88-17.32,3.88c-6.51,0-12.28-1.29-17.32-3.88
				c-5.03-2.59-8.95-6.14-11.77-10.66c-2.81-4.51-4.22-9.66-4.22-15.43c0-6.51,1.78-12.25,5.33-17.21
				c3.55-4.96,8.36-8.47,14.43-10.54l-12.43-28.86c-7.55,2.37-14.1,6.29-19.65,11.77c-5.55,5.48-9.88,12.06-12.99,19.76
				c-3.11,7.7-4.66,16.06-4.66,25.09c0,12.14,2.74,23.09,8.21,32.86c5.48,9.77,12.99,17.46,22.53,23.09
				c9.55,5.63,20.31,8.44,32.3,8.44c11.99,0,22.79-2.85,32.41-8.55c9.62-5.7,17.21-13.39,22.75-23.09
				c5.55-9.69,8.33-20.61,8.33-32.75c0-9.17-1.59-17.61-4.77-25.31c-3.18-7.69-7.58-14.28-13.21-19.76
				C147.11,2676.04,140.75,2672.19,133.64,2669.97L133.64,2669.97z"/>
		</g>
		<g>
			<path class="st1" d="M107.23,2654.32c-11.91,0-22.64-2.68-31.92-7.97c-9.28-5.29-16.7-12.53-22.06-21.51
				c-5.36-8.98-8.07-19.26-8.07-30.57c0-9.44,1.51-17.9,4.48-25.15c2.97-7.23,7.18-13.42,12.52-18.41
				c5.35-4.99,11.63-8.84,18.65-11.45c7.04-2.61,14.8-3.93,23.07-3.93c2.32,0,4.64,0.11,6.9,0.33c1.89,0.18,3.56,0.5,4.98,0.94
				v85.31l1.13-0.14c3.2-0.41,6.2-1.21,8.92-2.38c5.35-2.29,9.57-5.86,12.55-10.6c2.97-4.73,4.48-10.51,4.48-17.18
				c0-6.07-1.24-11.35-3.68-15.7c-2.29-4.08-5.43-7.37-9.35-9.78l11.86-24.96c5.39,2.31,10.2,5.87,14.29,10.58
				c4.34,4.99,7.75,10.96,10.13,17.77c2.39,6.82,3.61,14.4,3.61,22.54c0,12.64-2.83,23.74-8.4,33.01
				c-5.58,9.27-13.18,16.55-22.59,21.61C129.3,2651.75,118.7,2654.32,107.23,2654.32z M92.25,2568.62c-2,0.2-3.9,0.59-5.65,1.17
				c-5.14,1.69-9.27,4.69-12.27,8.92c-2.99,4.23-4.51,9.46-4.51,15.56c0,5.95,1.48,11.14,4.39,15.44c2.92,4.3,7.26,7.56,12.91,9.7
				c1.51,0.57,3.2,1.07,5.02,1.47l1.22,0.27v-52.64L92.25,2568.62z"/>
			<path d="M103.9,2536.33c2.29,0,4.58,0.11,6.8,0.32c1.52,0.15,2.88,0.38,4.08,0.7v83.42v2.27l2.25-0.29
				c3.29-0.42,6.38-1.25,9.19-2.45c5.54-2.37,9.91-6.07,13-10.99c3.08-4.89,4.64-10.85,4.64-17.72c0-6.24-1.28-11.69-3.81-16.19
				c-2.22-3.97-5.23-7.21-8.94-9.66l11.06-23.28c4.9,2.26,9.28,5.59,13.05,9.93c4.25,4.89,7.6,10.76,9.94,17.44
				c2.36,6.71,3.55,14.18,3.55,22.2c0,12.45-2.78,23.38-8.26,32.49c-5.48,9.12-12.95,16.27-22.21,21.25
				c-9.28,5-19.71,7.53-31.02,7.53c-11.73,0-22.3-2.64-31.42-7.84c-9.12-5.21-16.42-12.32-21.7-21.15
				c-5.26-8.82-7.93-18.93-7.93-30.06c0-9.31,1.48-17.64,4.4-24.77c2.91-7.09,7.04-13.17,12.28-18.05
				c5.26-4.9,11.42-8.68,18.31-11.24C88.09,2537.63,95.74,2536.33,103.9,2536.33 M94.35,2622.4v-2.49v-50.29v-2.21l-2.2,0.22
				c-2.07,0.21-4.04,0.61-5.86,1.21c-5.35,1.76-9.65,4.89-12.77,9.29c-3.12,4.4-4.7,9.83-4.7,16.14c0,6.15,1.54,11.53,4.56,16
				c3.03,4.47,7.54,7.86,13.38,10.07c1.56,0.59,3.29,1.1,5.16,1.52L94.35,2622.4 M103.9,2534.33c-8.44,0-16.24,1.33-23.42,4
				c-7.18,2.66-13.5,6.55-18.98,11.66c-5.47,5.11-9.73,11.36-12.77,18.76c-3.03,7.4-4.55,15.91-4.55,25.53
				c0,11.54,2.74,21.91,8.21,31.08c5.48,9.18,12.95,16.47,22.42,21.87c9.47,5.4,20.28,8.1,32.41,8.1c11.69,0,22.35-2.59,31.97-7.77
				c9.62-5.18,17.28-12.5,22.98-21.98c5.7-9.47,8.55-20.65,8.55-33.52c0-8.29-1.22-15.91-3.66-22.87
				c-2.44-6.96-5.88-12.99-10.32-18.09c-4.44-5.11-9.62-8.84-15.54-11.21l-12.65,26.64c4.15,2.37,7.4,5.66,9.77,9.88
				c2.37,4.22,3.55,9.29,3.55,15.21c0,6.51-1.44,12.06-4.33,16.65c-2.89,4.59-6.92,7.99-12.1,10.21c-2.67,1.14-5.56,1.91-8.66,2.3
				v-84.89c-1.63-0.59-3.59-1-5.88-1.22C108.6,2534.44,106.26,2534.33,103.9,2534.33L103.9,2534.33z M92.35,2619.9
				c-1.72-0.38-3.35-0.85-4.88-1.43c-5.47-2.07-9.62-5.18-12.43-9.32c-2.81-4.14-4.22-9.1-4.22-14.87c0-5.92,1.44-10.91,4.33-14.99
				c2.89-4.07,6.81-6.92,11.77-8.55c1.73-0.57,3.54-0.93,5.44-1.12V2619.9L92.35,2619.9z"/>
		</g>
		<g>
			<path class="st1" d="M125.65,2498.16c6.22-3.13,11.2-7.35,14.81-12.55c3.8-5.47,5.73-11.64,5.73-18.33
				c0-4.94-1.04-8.8-3.09-11.49c-2.11-2.76-5.07-4.17-8.79-4.17c-1.98,0-3.7,0.51-5.13,1.51c-1.37,0.97-2.62,2.42-3.73,4.31
				c-1.07,1.84-2,4.16-2.76,6.9l-5.77,20.64c-2.74,9.67-7.23,17.2-13.34,22.37c-6.07,5.15-13.36,7.76-21.66,7.76
				c-7.31,0-13.77-1.88-19.19-5.6c-5.44-3.72-9.77-9.04-12.86-15.8c-3.11-6.79-4.68-14.72-4.68-23.56c0-11.59,2.75-21.91,8.18-30.66
				c5.24-8.46,12.66-14.59,22.06-18.24l10.69,22.83c-4.75,1.91-8.64,5.16-11.57,9.67c-3.13,4.81-4.71,10.33-4.71,16.42
				c0,4.49,0.96,8.08,2.86,10.69c1.97,2.7,4.7,4.08,8.13,4.08c1.82,0,3.5-0.5,5-1.5c1.47-0.98,2.78-2.56,3.88-4.7
				c1.06-2.04,2.05-4.6,2.96-7.61l5.77-19.32c2.9-9.84,7.32-17.45,13.14-22.63c5.78-5.14,12.99-7.74,21.42-7.74
				c7.3,0,13.76,1.92,19.19,5.7c5.45,3.8,9.78,9.15,12.87,15.91c3.11,6.8,4.68,14.95,4.68,24.23c0,13.07-3.12,24.58-9.28,34.2
				c-5.97,9.34-14.06,15.86-24.06,19.39L125.65,2498.16z"/>
			<path d="M132.98,2422.44c7.09,0,13.36,1.86,18.61,5.52c5.3,3.7,9.52,8.91,12.53,15.51c3.05,6.67,4.59,14.68,4.59,23.81
				c0,12.87-3.07,24.2-9.12,33.67c-5.67,8.88-13.3,15.16-22.7,18.68l-9.94-21.02c5.97-3.16,10.78-7.33,14.32-12.42
				c3.92-5.64,5.91-12,5.91-18.9c0-5.16-1.11-9.23-3.3-12.09c-2.31-3.03-5.54-4.56-9.58-4.56c-2.19,0-4.1,0.57-5.71,1.7
				c-1.49,1.05-2.84,2.6-4.01,4.62c-1.11,1.91-2.08,4.31-2.86,7.13l-5.77,20.64c-2.69,9.48-7.07,16.84-13.02,21.89
				c-5.89,4.99-12.96,7.52-21.02,7.52c-7.1,0-13.37-1.82-18.63-5.42c-5.29-3.62-9.5-8.8-12.52-15.39
				c-3.05-6.66-4.59-14.45-4.59-23.14c0-11.4,2.7-21.54,8.03-30.14c4.96-8.01,11.92-13.89,20.7-17.49l9.85,21.03
				c-4.5,2.03-8.22,5.26-11.07,9.63c-3.23,4.97-4.87,10.68-4.87,16.96c0,4.7,1.03,8.5,3.05,11.28c2.16,2.98,5.17,4.49,8.94,4.49
				c2.02,0,3.89-0.56,5.55-1.67c1.61-1.08,3.03-2.78,4.22-5.07c1.09-2.1,2.11-4.72,3.03-7.79l5.77-19.32
				c2.84-9.66,7.16-17.11,12.84-22.16C117.81,2424.96,124.79,2422.44,132.98,2422.44 M75.92,2420
				c-10.06,3.7-17.87,10.03-23.42,18.98c-5.55,8.96-8.33,19.35-8.33,31.19c0,9.03,1.59,17.02,4.77,23.98
				c3.18,6.96,7.59,12.36,13.21,16.21c5.63,3.85,12.21,5.77,19.76,5.77c8.58,0,16.02-2.66,22.31-7.99
				c6.29-5.33,10.84-12.95,13.65-22.87l5.77-20.65c0.74-2.66,1.63-4.88,2.66-6.66c1.04-1.78,2.18-3.11,3.44-4
				c1.26-0.89,2.78-1.33,4.55-1.33c3.41,0,6.07,1.26,7.99,3.77c1.93,2.52,2.89,6.14,2.89,10.88c0,6.51-1.85,12.43-5.55,17.76
				c-3.7,5.33-8.8,9.55-15.32,12.65l11.54,24.42c10.66-3.55,19.13-10.25,25.42-20.09c6.29-9.84,9.43-21.42,9.43-34.74
				c0-9.47-1.59-17.68-4.77-24.64c-3.18-6.95-7.58-12.39-13.21-16.32c-5.62-3.92-12.21-5.88-19.76-5.88
				c-8.73,0-16.09,2.66-22.09,7.99s-10.47,13.03-13.43,23.09l-5.77,19.31c-0.89,2.96-1.85,5.44-2.89,7.44
				c-1.03,2-2.22,3.44-3.55,4.33c-1.33,0.89-2.81,1.33-4.44,1.33c-3.11,0-5.55-1.22-7.33-3.66c-1.78-2.44-2.66-5.81-2.66-10.1
				c0-5.92,1.52-11.21,4.55-15.87c3.04-4.66,7.07-7.88,12.1-9.66L75.92,2420L75.92,2420z"/>
		</g>
	</g>
	<g>
		<g>
			<path class="st1" d="M3.66,2347.09v-62.49c0-11.2,1.99-21.25,5.9-29.89c3.9-8.58,9.75-15.42,17.39-20.33
				c7.65-4.9,17.25-7.39,28.54-7.39c11,0,20.45,2.52,28.09,7.5c7.65,4.98,13.54,11.86,17.51,20.45c3.99,8.63,6.01,18.61,6.01,29.66
				v30.08h59.94v32.41H3.66z M55.5,2259.4c-4.74,0-8.95,1.05-12.49,3.13c-3.55,2.08-6.36,5.01-8.37,8.71
				c-2,3.69-3.01,8.11-3.01,13.13v30.3h47.51v-30.3c0-5.03-1.01-9.45-3.01-13.13c-2-3.7-4.81-6.63-8.37-8.71
				C64.23,2260.46,60.1,2259.4,55.5,2259.4z"/>
			<path d="M55.5,2227.99c10.8,0,20.07,2.47,27.55,7.34c7.49,4.87,13.26,11.61,17.15,20.03c3.93,8.5,5.92,18.33,5.92,29.24v29.08v2
				h2h57.94v30.41H4.66v-61.49c0-11.05,1.96-20.97,5.82-29.48c3.82-8.41,9.54-15.1,17.02-19.9
				C34.98,2230.43,44.41,2227.99,55.5,2227.99 M30.63,2315.68h2h45.51h2v-2v-29.3c0-5.2-1.05-9.78-3.13-13.6
				c-2.09-3.86-5.03-6.92-8.74-9.1c-3.7-2.17-8-3.27-12.78-3.27c-4.92,0-9.3,1.1-13,3.27c-3.71,2.18-6.65,5.24-8.74,9.1
				c-2.07,3.84-3.13,8.41-3.13,13.6v29.3V2315.68 M55.5,2225.99c-11.54,0-21.24,2.52-29.08,7.55c-7.84,5.03-13.76,11.95-17.76,20.76
				c-4,8.81-5.99,18.91-5.99,30.3v63.49h165.39v-34.41h-59.94v-29.08c0-11.25-2.03-21.27-6.11-30.08
				c-4.07-8.8-10.02-15.76-17.87-20.87C76.29,2228.55,66.75,2225.99,55.5,2225.99L55.5,2225.99z M32.63,2313.68v-29.3
				c0-4.88,0.96-9.1,2.89-12.65c1.93-3.55,4.59-6.33,7.99-8.33c3.41-2,7.4-3,11.99-3c4.44,0,8.36,1,11.77,3
				c3.41,2,6.07,4.77,7.99,8.33c1.93,3.55,2.89,7.77,2.89,12.65v29.3H32.63L32.63,2313.68z"/>
		</g>
		<g>
			<path class="st1" d="M47.84,2205.46v-29.08h22.22l-4.75-1.93c-6.33-2.56-10.87-6.12-13.5-10.57c-3.52-5.96-5.3-13.14-5.3-21.36
				v-6.1h26.86v9.43c0,8.37,2.6,15.26,7.72,20.46c5.13,5.21,12.43,7.85,21.69,7.85h64.27v31.3H47.84z"/>
			<path d="M72.37,2137.42v8.43c0,8.65,2.7,15.77,8.01,21.16c5.33,5.4,12.86,8.14,22.4,8.14h63.27v29.3H48.84v-27.08h16.09h10.26
				l-9.51-3.85c-6.12-2.48-10.5-5.9-13.01-10.15c-3.43-5.8-5.16-12.82-5.16-20.85v-5.1H72.37 M74.37,2135.42H45.51v7.1
				c0,8.44,1.81,15.73,5.44,21.87c2.76,4.67,7.42,8.33,13.98,10.99H46.84v31.08h121.21v-33.3h-65.27c-9.03,0-16.02-2.51-20.98-7.55
				c-4.96-5.03-7.44-11.62-7.44-19.76V2135.42L74.37,2135.42z"/>
		</g>
		<g>
			<path class="st1" d="M107.23,2124.65c-11.91,0-22.64-2.68-31.92-7.97c-9.28-5.29-16.7-12.53-22.06-21.51
				c-5.36-8.98-8.07-19.26-8.07-30.57c0-9.44,1.51-17.9,4.48-25.15c2.97-7.23,7.18-13.42,12.52-18.41
				c5.35-4.99,11.63-8.84,18.65-11.45c7.04-2.61,14.8-3.93,23.07-3.93c2.32,0,4.64,0.11,6.9,0.33c1.89,0.18,3.56,0.5,4.98,0.94
				v85.31l1.13-0.14c3.2-0.41,6.2-1.21,8.92-2.38c5.35-2.29,9.57-5.86,12.55-10.6c2.97-4.73,4.48-10.51,4.48-17.18
				c0-6.07-1.24-11.35-3.68-15.7c-2.29-4.08-5.43-7.37-9.35-9.78l11.86-24.96c5.39,2.31,10.2,5.87,14.29,10.58
				c4.34,4.99,7.75,10.96,10.13,17.77c2.39,6.82,3.61,14.4,3.61,22.54c0,12.64-2.83,23.74-8.4,33.01
				c-5.58,9.27-13.18,16.55-22.59,21.61C129.3,2122.08,118.7,2124.65,107.23,2124.65z M92.25,2038.95c-2,0.2-3.9,0.59-5.65,1.17
				c-5.14,1.69-9.27,4.69-12.27,8.92c-2.99,4.23-4.51,9.46-4.51,15.56c0,5.95,1.48,11.14,4.39,15.44c2.92,4.3,7.26,7.56,12.91,9.7
				c1.51,0.57,3.2,1.07,5.02,1.47l1.22,0.27v-52.64L92.25,2038.95z"/>
			<path d="M103.9,2006.66c2.29,0,4.58,0.11,6.8,0.32c1.52,0.15,2.88,0.38,4.08,0.7v83.42v2.27l2.25-0.29
				c3.29-0.42,6.38-1.25,9.19-2.45c5.54-2.37,9.91-6.07,13-10.99c3.08-4.89,4.64-10.85,4.64-17.72c0-6.24-1.28-11.69-3.81-16.19
				c-2.22-3.97-5.23-7.21-8.94-9.66l11.06-23.28c4.9,2.26,9.28,5.59,13.05,9.93c4.25,4.89,7.6,10.76,9.94,17.44
				c2.36,6.71,3.55,14.18,3.55,22.2c0,12.45-2.78,23.38-8.26,32.49c-5.48,9.12-12.95,16.27-22.21,21.25
				c-9.28,5-19.71,7.53-31.02,7.53c-11.73,0-22.3-2.64-31.42-7.84c-9.12-5.21-16.42-12.32-21.7-21.15
				c-5.26-8.82-7.93-18.93-7.93-30.06c0-9.31,1.48-17.64,4.4-24.77c2.91-7.09,7.04-13.17,12.28-18.06
				c5.26-4.9,11.42-8.68,18.31-11.24C88.09,2007.96,95.74,2006.66,103.9,2006.66 M94.35,2092.73v-2.5v-50.29v-2.21l-2.2,0.22
				c-2.07,0.21-4.04,0.61-5.86,1.21c-5.35,1.76-9.65,4.89-12.77,9.29c-3.12,4.4-4.7,9.83-4.7,16.14c0,6.15,1.54,11.53,4.56,16
				c3.03,4.47,7.54,7.86,13.38,10.07c1.56,0.59,3.29,1.1,5.16,1.52L94.35,2092.73 M103.9,2004.66c-8.44,0-16.24,1.33-23.42,4
				c-7.18,2.66-13.5,6.55-18.98,11.66c-5.47,5.11-9.73,11.36-12.77,18.76c-3.03,7.4-4.55,15.91-4.55,25.53
				c0,11.54,2.74,21.91,8.21,31.08c5.48,9.18,12.95,16.47,22.42,21.87c9.47,5.4,20.28,8.1,32.41,8.1c11.69,0,22.35-2.59,31.97-7.77
				c9.62-5.18,17.28-12.5,22.98-21.98c5.7-9.47,8.55-20.65,8.55-33.52c0-8.29-1.22-15.91-3.66-22.87
				c-2.44-6.96-5.88-12.99-10.32-18.09c-4.44-5.11-9.62-8.84-15.54-11.21l-12.65,26.64c4.15,2.37,7.4,5.66,9.77,9.88
				c2.37,4.22,3.55,9.29,3.55,15.21c0,6.51-1.44,12.06-4.33,16.65c-2.89,4.59-6.92,7.99-12.1,10.21c-2.67,1.14-5.56,1.91-8.66,2.3
				v-84.89c-1.63-0.59-3.59-1-5.88-1.22C108.6,2004.77,106.26,2004.66,103.9,2004.66L103.9,2004.66z M92.35,2090.23
				c-1.72-0.38-3.35-0.85-4.88-1.43c-5.47-2.07-9.62-5.18-12.43-9.32c-2.81-4.14-4.22-9.1-4.22-14.87c0-5.92,1.44-10.91,4.33-14.99
				c2.89-4.07,6.81-6.92,11.77-8.55c1.73-0.57,3.54-0.93,5.44-1.12V2090.23L92.35,2090.23z"/>
		</g>
		<g>
			<path class="st1" d="M47.84,1984.12v-29.08h17.81l-3.69-1.89c-4.27-2.19-7.73-5.28-10.29-9.2c-4.31-6.61-6.5-14.64-6.5-23.87
				c0-9.81,2.52-18.55,7.49-25.97c2.88-4.29,6.38-7.7,10.41-10.13l1.33-0.8l-1.28-0.88c-4.56-3.12-8.26-6.88-11-11.16
				c-4.61-7.2-6.95-15.76-6.95-25.43c0-8.51,1.9-16.15,5.64-22.7c3.74-6.54,9.03-11.75,15.71-15.5c6.7-3.75,14.64-5.64,23.6-5.64
				h76.92v31.3H97.24c-4.86,0-9.12,0.89-12.66,2.66c-3.56,1.78-6.38,4.33-8.4,7.58c-2.01,3.26-3.04,7.24-3.04,11.85
				c0,4.46,1.02,8.4,3.03,11.73c2.01,3.33,4.84,5.93,8.4,7.7c3.53,1.76,7.79,2.66,12.66,2.66h69.82v31.3H97.24
				c-4.86,0-9.12,0.89-12.66,2.66c-3.56,1.78-6.38,4.33-8.4,7.58c-2.01,3.26-3.04,7.24-3.04,11.85c0,4.45,1.02,8.4,3.03,11.73
				c2.02,3.33,4.84,5.93,8.4,7.7c3.53,1.76,7.79,2.66,12.66,2.66h69.82v31.3H47.84z"/>
			<path d="M166.05,1802.86v29.3H97.24c-5.02,0-9.43,0.93-13.1,2.76c-3.72,1.86-6.68,4.54-8.8,7.95c-2.11,3.42-3.18,7.58-3.18,12.37
				c0,4.64,1.07,8.76,3.17,12.25c2.11,3.5,5.08,6.22,8.81,8.08c3.67,1.83,8.08,2.76,13.1,2.76h68.82v29.3H97.24
				c-5.02,0-9.43,0.93-13.11,2.77c-3.73,1.86-6.69,4.54-8.8,7.95c-2.11,3.42-3.18,7.58-3.18,12.37c0,4.64,1.07,8.76,3.17,12.25
				c2.12,3.5,5.08,6.22,8.81,8.08c3.67,1.83,8.08,2.77,13.1,2.77h68.82v29.3H48.84v-27.08H61.5h8.29l-7.37-3.78
				c-4.11-2.11-7.45-5.09-9.9-8.86c-4.2-6.44-6.34-14.29-6.34-23.33c0-9.61,2.46-18.16,7.32-25.42c2.79-4.17,6.19-7.48,10.09-9.83
				l2.67-1.6l-2.57-1.76c-4.45-3.05-8.06-6.71-10.72-10.87c-4.5-7.04-6.79-15.41-6.79-24.9c0-8.33,1.85-15.81,5.51-22.21
				c3.65-6.38,8.81-11.47,15.33-15.12c6.55-3.66,14.33-5.52,23.11-5.52H166.05 M168.05,1800.86H90.13c-9.17,0-17.21,1.92-24.09,5.77
				c-6.88,3.85-12.25,9.14-16.09,15.87c-3.85,6.74-5.77,14.47-5.77,23.2c0,9.92,2.37,18.58,7.1,25.97
				c2.83,4.42,6.6,8.23,11.28,11.44c-4.16,2.51-7.74,5.98-10.72,10.43c-5.11,7.62-7.66,16.47-7.66,26.53
				c0,9.47,2.22,17.61,6.66,24.42c2.67,4.09,6.23,7.27,10.67,9.55H46.84v31.08h121.21v-33.3H97.24c-4.74,0-8.8-0.85-12.21-2.55
				c-3.4-1.7-6.07-4.14-7.99-7.33c-1.92-3.18-2.89-6.92-2.89-11.21c0-4.44,0.96-8.21,2.89-11.32c1.92-3.11,4.59-5.51,7.99-7.21
				c3.41-1.7,7.47-2.55,12.21-2.55h70.82v-33.3H97.24c-4.74,0-8.8-0.85-12.21-2.55c-3.4-1.7-6.07-4.14-7.99-7.33
				c-1.92-3.18-2.89-6.92-2.89-11.21c0-4.44,0.96-8.21,2.89-11.32c1.92-3.11,4.59-5.51,7.99-7.21c3.41-1.7,7.47-2.55,12.21-2.55
				h70.82V1800.86L168.05,1800.86z"/>
		</g>
		<g>
			<rect x="47.84" y="1746.59" class="st1" width="119.21" height="31.3"/>
			<path d="M166.05,1747.59v29.3H48.84v-29.3H166.05 M168.05,1745.59H46.84v33.3h121.21V1745.59L168.05,1745.59z"/>
		</g>
		<g>
			<rect x="3.66" y="1746.59" class="st1" width="31.3" height="31.3"/>
			<path d="M33.96,1747.59v29.3H4.66v-29.3H33.96 M35.96,1745.59H2.66v33.3h33.3V1745.59L35.96,1745.59z"/>
		</g>
		<g>
			<path class="st1" d="M47.84,1722.61v-31.3h69.82c4.74,0,8.97-0.97,12.57-2.89c3.63-1.93,6.5-4.71,8.5-8.27
				c2-3.54,3.02-7.59,3.02-12.04c0-4.6-1.02-8.69-3.02-12.16c-2-3.48-4.87-6.22-8.5-8.15c-3.61-1.92-7.83-2.89-12.57-2.89H47.84
				v-31.3h119.21v29.08h-17.84l3.57,1.88c5.16,2.73,9.15,6.59,11.85,11.48c3.38,6.11,5.09,13.38,5.09,21.6
				c0,9.53-2.08,17.76-6.18,24.45c-4.09,6.68-9.89,11.82-17.22,15.27c-7.38,3.47-16.12,5.23-25.99,5.23H47.84z"/>
			<path d="M166.05,1614.61v27.08h-12.81h-8.06l7.13,3.77c4.99,2.64,8.83,6.36,11.44,11.08c3.3,5.97,4.97,13.07,4.97,21.12
				c0,9.35-2.03,17.4-6.03,23.93c-3.99,6.51-9.64,11.52-16.79,14.89c-7.24,3.41-15.85,5.14-25.57,5.14H48.84v-29.3h68.82
				c4.91,0,9.29-1.01,13.04-3.01c3.81-2.02,6.8-4.94,8.91-8.66c2.09-3.69,3.14-7.9,3.14-12.53c0-4.78-1.06-9.04-3.15-12.66
				c-2.1-3.64-5.09-6.51-8.9-8.54c-3.75-2-8.14-3.01-13.04-3.01H48.84v-29.3H166.05 M168.05,1612.61H46.84v33.3h70.82
				c4.59,0,8.62,0.93,12.1,2.77c3.48,1.85,6.18,4.44,8.1,7.77c1.92,3.33,2.89,7.21,2.89,11.66c0,4.29-0.96,8.14-2.89,11.54
				c-1.92,3.41-4.62,6.03-8.1,7.88c-3.48,1.85-7.51,2.77-12.1,2.77H46.84v33.3h73.48c10.07,0,18.87-1.78,26.42-5.33
				c7.55-3.55,13.43-8.77,17.65-15.65s6.33-15.21,6.33-24.97c0-8.44-1.74-15.8-5.22-22.09c-2.83-5.12-6.93-9.06-12.26-11.88h14.81
				V1612.61L168.05,1612.61z"/>
		</g>
		<g>
			<path class="st1" d="M47.84,1587.19v-29.08h17.81l-3.69-1.89c-4.27-2.19-7.73-5.28-10.28-9.2c-4.31-6.61-6.5-14.64-6.5-23.87
				c0-9.81,2.52-18.55,7.49-25.97c2.88-4.29,6.38-7.7,10.41-10.13l1.33-0.8l-1.28-0.88c-4.56-3.12-8.26-6.88-11-11.16
				c-4.61-7.2-6.95-15.76-6.95-25.43c0-8.51,1.9-16.15,5.64-22.7c3.74-6.54,9.03-11.75,15.71-15.5c6.7-3.75,14.64-5.64,23.6-5.64
				h76.92v31.3H97.24c-4.86,0-9.12,0.89-12.66,2.66c-3.56,1.78-6.38,4.33-8.4,7.58c-2.01,3.26-3.04,7.24-3.04,11.85
				c0,4.46,1.02,8.4,3.03,11.73c2.01,3.33,4.84,5.93,8.4,7.7c3.53,1.76,7.79,2.66,12.66,2.66h69.82v31.3H97.24
				c-4.86,0-9.12,0.89-12.66,2.66c-3.56,1.78-6.38,4.33-8.4,7.58c-2.01,3.26-3.04,7.24-3.04,11.85c0,4.45,1.02,8.4,3.03,11.73
				c2.02,3.33,4.84,5.93,8.4,7.7c3.53,1.76,7.79,2.66,12.66,2.66h69.82v31.3H47.84z"/>
			<path d="M166.05,1405.93v29.3H97.24c-5.02,0-9.43,0.93-13.1,2.76c-3.72,1.86-6.68,4.54-8.8,7.95c-2.11,3.42-3.18,7.58-3.18,12.37
				c0,4.64,1.07,8.76,3.17,12.25c2.11,3.5,5.08,6.22,8.81,8.08c3.67,1.83,8.08,2.76,13.1,2.76h68.82v29.3H97.24
				c-5.02,0-9.43,0.93-13.11,2.77c-3.73,1.86-6.69,4.54-8.8,7.95c-2.11,3.42-3.18,7.58-3.18,12.37c0,4.64,1.07,8.76,3.17,12.25
				c2.12,3.5,5.08,6.22,8.81,8.08c3.67,1.83,8.08,2.77,13.1,2.77h68.82v29.3H48.84v-27.08H61.5h8.29l-7.37-3.78
				c-4.11-2.11-7.45-5.09-9.9-8.86c-4.2-6.44-6.34-14.29-6.34-23.33c0-9.61,2.46-18.16,7.32-25.42c2.79-4.17,6.19-7.48,10.09-9.83
				l2.67-1.6l-2.57-1.76c-4.45-3.05-8.06-6.71-10.72-10.87c-4.5-7.04-6.79-15.41-6.79-24.9c0-8.33,1.85-15.81,5.51-22.21
				c3.65-6.38,8.81-11.47,15.33-15.12c6.55-3.66,14.33-5.52,23.11-5.52H166.05 M168.05,1403.93H90.13c-9.17,0-17.21,1.92-24.09,5.77
				c-6.88,3.85-12.25,9.14-16.09,15.87c-3.85,6.74-5.77,14.47-5.77,23.2c0,9.92,2.37,18.58,7.1,25.97
				c2.83,4.42,6.6,8.23,11.28,11.44c-4.16,2.51-7.74,5.98-10.72,10.43c-5.11,7.62-7.66,16.47-7.66,26.53
				c0,9.47,2.22,17.61,6.66,24.42c2.67,4.1,6.23,7.27,10.67,9.55H46.84v31.08h121.21v-33.3H97.24c-4.74,0-8.8-0.85-12.21-2.55
				c-3.4-1.7-6.07-4.14-7.99-7.33c-1.92-3.18-2.89-6.92-2.89-11.21c0-4.44,0.96-8.21,2.89-11.32c1.92-3.11,4.59-5.51,7.99-7.21
				c3.41-1.7,7.47-2.55,12.21-2.55h70.82v-33.3H97.24c-4.74,0-8.8-0.85-12.21-2.55c-3.4-1.7-6.07-4.14-7.99-7.33
				c-1.92-3.18-2.89-6.92-2.89-11.21c0-4.44,0.96-8.21,2.89-11.32c1.92-3.11,4.59-5.51,7.99-7.21c3.41-1.7,7.47-2.55,12.21-2.55
				h70.82V1403.93L168.05,1403.93z"/>
		</g>
		<g>
			<polygon class="st1" points="3.66,1315.25 124.8,1286.72 3.66,1256.63 3.66,1222.67 124.8,1192.58 3.66,1164.04 3.66,1128.83 
				167.05,1171.6 167.05,1210.01 53.08,1239.65 167.05,1269.28 167.05,1307.7 3.66,1350.46 			"/>
			<path d="M4.66,1130.13l161.39,42.24v36.87l-109.5,28.47l-7.44,1.94l7.44,1.94l109.5,28.47v36.87L4.66,1349.17v-33.12
				l116.34-27.41l8.04-1.9l-8.02-1.99L4.66,1255.84v-32.39l116.37-28.91l8.02-1.99l-8.05-1.9L4.66,1163.25V1130.13 M2.66,1127.54
				v37.3l117.89,27.77L2.66,1221.89v35.52l117.89,29.28L2.66,1314.46v37.3l165.39-43.29v-39.96l-111-28.86l111-28.86v-39.96
				L2.66,1127.54L2.66,1127.54z"/>
		</g>
		<g>
			<path class="st1" d="M107.45,1123.43c-12.04,0-22.84-2.9-32.11-8.62c-9.28-5.73-16.71-13.52-22.07-23.17
				c-5.37-9.65-8.09-20.5-8.09-32.26c0-11.75,2.72-22.57,8.09-32.15c5.36-9.57,12.79-17.33,22.07-23.06
				c9.27-5.72,20.07-8.62,32.11-8.62c11.89,0,22.66,2.9,32,8.62c9.36,5.73,16.82,13.49,22.18,23.06c5.36,9.57,8.08,20.38,8.08,32.15
				c0,11.76-2.72,22.62-8.09,32.26c-5.36,9.64-12.83,17.44-22.18,23.17C130.11,1120.53,119.34,1123.43,107.45,1123.43z
				 M107.45,1027.97c-6.64,0-12.58,1.35-17.67,4c-5.09,2.66-9.18,6.36-12.15,11c-2.98,4.66-4.49,10.18-4.49,16.41
				c0,6.23,1.51,11.79,4.48,16.52c2.97,4.72,7.06,8.46,12.15,11.12c5.08,2.65,11.02,4,17.67,4c6.65,0,12.63-1.34,17.77-4
				c5.18-2.66,9.27-6.41,12.16-11.13c2.9-4.72,4.37-10.28,4.37-16.51c0-6.23-1.47-11.75-4.37-16.4c-2.89-4.64-6.98-8.35-12.16-11.02
				C120.07,1029.31,114.09,1027.97,107.45,1027.97z"/>
			<path d="M107.45,996.56c11.7,0,22.29,2.85,31.48,8.47c9.21,5.64,16.56,13.28,21.83,22.69c5.28,9.42,7.96,20.07,7.96,31.66
				c0,11.59-2.68,22.28-7.96,31.77c-5.28,9.49-12.62,17.16-21.83,22.8c-9.18,5.62-19.77,8.47-31.48,8.47
				c-11.85,0-22.48-2.85-31.58-8.47c-9.13-5.64-16.44-13.31-21.72-22.8c-5.28-9.5-7.96-20.19-7.96-31.77
				c0-11.58,2.68-22.23,7.96-31.66c5.28-9.42,12.59-17.05,21.73-22.7C84.98,999.41,95.6,996.56,107.45,996.56 M107.45,1092.02
				c6.81,0,12.94-1.38,18.23-4.11c5.34-2.75,9.57-6.62,12.56-11.5c2.99-4.88,4.51-10.61,4.51-17.03c0-6.42-1.52-12.11-4.52-16.93
				c-2.99-4.8-7.21-8.63-12.55-11.38c-5.3-2.72-11.43-4.11-18.23-4.11c-6.8,0-12.9,1.38-18.13,4.11
				c-5.25,2.74-9.46,6.56-12.53,11.35c-3.08,4.82-4.64,10.52-4.64,16.95s1.56,12.16,4.64,17.05c3.06,4.87,7.28,8.73,12.53,11.47
				C94.54,1090.64,100.64,1092.02,107.45,1092.02 M107.45,994.56c-12.28,0-23.16,2.92-32.63,8.77
				c-9.47,5.85-16.94,13.65-22.42,23.42c-5.47,9.77-8.21,20.65-8.21,32.63s2.74,22.9,8.21,32.75c5.48,9.84,12.95,17.69,22.42,23.53
				c9.47,5.85,20.35,8.77,32.63,8.77c12.14,0,22.98-2.92,32.52-8.77c9.55-5.84,17.06-13.69,22.53-23.53
				c5.48-9.84,8.21-20.76,8.21-32.75s-2.74-22.87-8.21-32.63c-5.47-9.77-12.99-17.57-22.53-23.42
				C130.42,997.48,119.58,994.56,107.45,994.56L107.45,994.56z M107.45,1090.02c-6.51,0-12.25-1.29-17.21-3.88
				c-4.96-2.59-8.88-6.18-11.77-10.77c-2.89-4.59-4.33-9.91-4.33-15.98c0-6.07,1.44-11.36,4.33-15.87
				c2.89-4.51,6.81-8.06,11.77-10.66c4.96-2.59,10.69-3.88,17.21-3.88c6.51,0,12.29,1.3,17.32,3.88c5.03,2.59,8.96,6.14,11.77,10.66
				c2.81,4.52,4.22,9.81,4.22,15.87c0,6.07-1.41,11.4-4.22,15.98c-2.81,4.59-6.73,8.18-11.77,10.77
				C119.73,1088.73,113.96,1090.02,107.45,1090.02L107.45,1090.02z"/>
		</g>
		<g>
			<path class="st1" d="M47.84,974.02v-29.08h22.22l-4.75-1.93c-6.33-2.56-10.87-6.12-13.5-10.57c-3.52-5.96-5.3-13.14-5.3-21.36
				v-6.1h26.86v9.43c0,8.37,2.6,15.26,7.72,20.46c5.13,5.21,12.43,7.85,21.69,7.85h64.27v31.3H47.84z"/>
			<path d="M72.37,905.98v8.43c0,8.65,2.7,15.77,8.01,21.16c5.33,5.4,12.86,8.14,22.4,8.14h63.27v29.3H48.84v-27.08h16.09h10.26
				l-9.51-3.85c-6.12-2.48-10.5-5.9-13.01-10.15c-3.43-5.8-5.16-12.82-5.16-20.85v-5.1H72.37 M74.37,903.98H45.51v7.1
				c0,8.44,1.81,15.73,5.44,21.87c2.76,4.67,7.42,8.33,13.98,10.99H46.84v31.08h121.21v-33.3h-65.27c-9.03,0-16.02-2.51-20.98-7.55
				c-4.96-5.03-7.44-11.62-7.44-19.76V903.98L74.37,903.98z"/>
		</g>
		<g>
			<polygon class="st1" points="1,888.33 1,857.03 92.99,857.03 47.84,814.53 47.84,776.14 95.56,819.09 167.05,775.89 
				167.05,811.29 114.7,842.47 130.56,857.03 167.05,857.03 167.05,888.33 			"/>
			<path d="M166.05,777.66v33.06l-50.72,30.21l-2.31,1.38l1.98,1.82l14.59,13.39l0.57,0.53h0.78h35.1v29.3H2v-29.3h88.47h5.04
				l-3.67-3.46l-43-40.48v-35.72l45.5,40.95l1.1,0.99l1.27-0.77L166.05,777.66 M46.84,773.89v41.07l43.63,41.07H0v33.3h168.05v-33.3
				h-37.1l-14.59-13.39l51.69-30.79v-37.74l-72.37,43.73L46.84,773.89L46.84,773.89z"/>
		</g>
		<g>
			<path class="st1" d="M125.65,742.61c6.22-3.13,11.2-7.35,14.81-12.55c3.8-5.47,5.73-11.64,5.73-18.33c0-4.94-1.04-8.8-3.09-11.49
				c-2.11-2.77-5.07-4.17-8.79-4.17c-1.98,0-3.7,0.51-5.13,1.51c-1.37,0.97-2.62,2.42-3.73,4.31c-1.07,1.84-2,4.16-2.76,6.9
				l-5.77,20.64c-2.74,9.67-7.23,17.2-13.34,22.37c-6.07,5.15-13.36,7.76-21.66,7.76c-7.31,0-13.77-1.88-19.19-5.6
				c-5.44-3.72-9.77-9.04-12.86-15.8c-3.11-6.79-4.68-14.72-4.68-23.56c0-11.59,2.75-21.91,8.18-30.66
				c5.24-8.46,12.66-14.59,22.06-18.24l10.69,22.83c-4.75,1.91-8.64,5.16-11.57,9.67c-3.13,4.81-4.71,10.33-4.71,16.42
				c0,4.49,0.96,8.08,2.86,10.69c1.97,2.7,4.7,4.07,8.13,4.07c1.82,0,3.5-0.5,5-1.5c1.47-0.98,2.78-2.56,3.88-4.7
				c1.06-2.04,2.05-4.6,2.96-7.61l5.77-19.32c2.9-9.84,7.32-17.45,13.14-22.63c5.78-5.14,12.99-7.74,21.42-7.74
				c7.3,0,13.76,1.92,19.19,5.7c5.45,3.8,9.78,9.15,12.87,15.91c3.11,6.8,4.68,14.95,4.68,24.23c0,13.07-3.12,24.58-9.28,34.2
				c-5.97,9.34-14.06,15.86-24.06,19.39L125.65,742.61z"/>
			<path d="M132.98,666.89c7.09,0,13.36,1.86,18.61,5.52c5.3,3.7,9.52,8.91,12.53,15.51c3.05,6.67,4.59,14.68,4.59,23.81
				c0,12.87-3.07,24.2-9.12,33.67c-5.67,8.88-13.3,15.16-22.7,18.68l-9.94-21.02c5.97-3.16,10.78-7.33,14.32-12.42
				c3.92-5.64,5.91-12,5.91-18.9c0-5.16-1.11-9.23-3.3-12.09c-2.31-3.03-5.54-4.56-9.58-4.56c-2.19,0-4.1,0.57-5.71,1.7
				c-1.49,1.05-2.84,2.61-4.01,4.62c-1.11,1.91-2.08,4.31-2.86,7.13l-5.77,20.64c-2.69,9.48-7.07,16.84-13.02,21.89
				c-5.89,4.99-12.96,7.52-21.02,7.52c-7.1,0-13.37-1.82-18.63-5.42c-5.29-3.62-9.5-8.8-12.52-15.39
				c-3.05-6.66-4.59-14.45-4.59-23.14c0-11.4,2.7-21.54,8.03-30.14c4.96-8.01,11.92-13.89,20.7-17.49l9.85,21.03
				c-4.5,2.03-8.22,5.26-11.07,9.63c-3.23,4.97-4.87,10.68-4.87,16.96c0,4.7,1.03,8.5,3.05,11.28c2.16,2.98,5.17,4.49,8.94,4.49
				c2.02,0,3.89-0.56,5.55-1.67c1.61-1.08,3.03-2.78,4.22-5.07c1.09-2.1,2.11-4.72,3.03-7.79l5.77-19.32
				c2.84-9.66,7.16-17.11,12.84-22.16C117.81,669.41,124.79,666.89,132.98,666.89 M75.92,664.45c-10.06,3.7-17.87,10.03-23.42,18.98
				c-5.55,8.96-8.33,19.35-8.33,31.19c0,9.03,1.59,17.02,4.77,23.98c3.18,6.96,7.59,12.36,13.21,16.21
				c5.63,3.85,12.21,5.77,19.76,5.77c8.58,0,16.02-2.66,22.31-7.99c6.29-5.33,10.84-12.95,13.65-22.87l5.77-20.65
				c0.74-2.66,1.63-4.88,2.66-6.66c1.04-1.78,2.18-3.11,3.44-4c1.26-0.89,2.78-1.33,4.55-1.33c3.41,0,6.07,1.26,7.99,3.77
				c1.93,2.52,2.89,6.14,2.89,10.88c0,6.51-1.85,12.43-5.55,17.76c-3.7,5.33-8.8,9.55-15.32,12.65l11.54,24.42
				c10.66-3.55,19.13-10.25,25.42-20.09c6.29-9.84,9.43-21.42,9.43-34.74c0-9.47-1.59-17.68-4.77-24.64
				c-3.18-6.95-7.58-12.39-13.21-16.32c-5.62-3.92-12.21-5.88-19.76-5.88c-8.73,0-16.09,2.66-22.09,7.99s-10.47,13.03-13.43,23.09
				l-5.77,19.31c-0.89,2.96-1.85,5.44-2.89,7.44c-1.03,2-2.22,3.44-3.55,4.33c-1.33,0.89-2.81,1.33-4.44,1.33
				c-3.11,0-5.55-1.22-7.33-3.66c-1.78-2.44-2.66-5.81-2.66-10.1c0-5.92,1.52-11.21,4.55-15.87c3.04-4.66,7.07-7.88,12.1-9.66
				L75.92,664.45L75.92,664.45z"/>
		</g>
		<g>
			<path class="st1" d="M47.84,643.91v-29.08h14.32l-2.08-1.76c-4.14-3.52-7.51-7.93-10.02-13.1c-3.25-6.71-4.9-14.52-4.9-23.21
				c0-11.3,2.79-21.66,8.29-30.79c5.51-9.13,13.05-16.48,22.4-21.85c9.35-5.36,19.98-8.08,31.58-8.08c11.46,0,22.05,2.68,31.48,7.98
				c9.42,5.29,16.99,12.61,22.5,21.73c5.5,9.12,8.29,19.62,8.29,31.23c0,8.11-1.5,15.71-4.47,22.58c-1.85,4.3-4.3,8.12-7.27,11.38
				l-1.53,1.67h55.01v31.3H47.84z M107.45,548.45c-6.65,0-12.59,1.38-17.68,4.12c-5.09,2.74-9.18,6.59-12.15,11.46
				c-2.97,4.88-4.47,10.58-4.47,16.95c0,6.07,1.47,11.59,4.36,16.39c2.9,4.8,6.99,8.59,12.16,11.25c5.15,2.65,11.13,4,17.77,4
				c6.65,0,12.63-1.34,17.77-4c5.18-2.66,9.27-6.45,12.16-11.25c2.89-4.8,4.36-10.31,4.36-16.39c0-6.37-1.47-12.07-4.36-16.94
				c-2.89-4.87-6.98-8.73-12.16-11.47C120.08,549.83,114.1,548.45,107.45,548.45z"/>
			<path d="M107.45,517.04c11.29,0,21.72,2.64,30.99,7.85c9.27,5.21,16.72,12.4,22.13,21.38c5.41,8.96,8.15,19.29,8.15,30.71
				c0,7.97-1.48,15.44-4.39,22.18c-1.81,4.2-4.2,7.93-7.09,11.1l-3.06,3.35h4.54h51.74v29.3H48.84v-27.08h10.6h5.45l-4.15-3.52
				c-4.03-3.43-7.32-7.72-9.76-12.78c-3.18-6.58-4.8-14.24-4.8-22.77c0-11.12,2.74-21.3,8.15-30.27
				c5.42-8.99,12.84-16.22,22.04-21.5C85.56,519.71,96.02,517.04,107.45,517.04 M107.45,613.61c6.81,0,12.94-1.38,18.23-4.11
				c5.34-2.75,9.57-6.66,12.56-11.62c2.99-4.95,4.51-10.64,4.51-16.91c0-6.55-1.51-12.42-4.5-17.45
				c-2.99-5.03-7.21-9.02-12.55-11.85c-5.3-2.81-11.44-4.23-18.25-4.23c-6.81,0-12.92,1.42-18.15,4.23
				c-5.25,2.82-9.47,6.8-12.53,11.82c-3.07,5.03-4.62,10.91-4.62,17.47c0,6.26,1.52,11.95,4.51,16.91c3,4.96,7.22,8.88,12.56,11.62
				C94.51,612.23,100.64,613.61,107.45,613.61 M107.45,515.04c-11.84,0-22.53,2.74-32.08,8.21c-9.55,5.48-17.13,12.88-22.75,22.2
				c-5.62,9.32-8.44,19.76-8.44,31.3c0,8.88,1.67,16.76,5,23.64c2.59,5.35,6.02,9.82,10.27,13.43h-12.6v31.08h165.61v-33.3h-53.74
				c3.06-3.34,5.54-7.23,7.45-11.66c3.03-7.03,4.55-14.69,4.55-22.98c0-11.84-2.81-22.42-8.44-31.75
				c-5.62-9.32-13.24-16.68-22.87-22.09C129.8,517.74,119.14,515.04,107.45,515.04L107.45,515.04z M107.45,611.61
				c-6.51,0-12.28-1.29-17.32-3.88c-5.03-2.59-8.95-6.22-11.77-10.88c-2.81-4.66-4.22-9.95-4.22-15.87c0-6.22,1.44-11.69,4.33-16.43
				c2.89-4.73,6.81-8.44,11.77-11.1c4.96-2.66,10.69-4,17.21-4c6.51,0,12.29,1.33,17.32,4c5.03,2.66,8.96,6.37,11.77,11.1
				c2.81,4.74,4.22,10.21,4.22,16.43c0,5.92-1.41,11.21-4.22,15.87c-2.81,4.66-6.73,8.29-11.77,10.88
				C119.73,610.32,113.96,611.61,107.45,611.61L107.45,611.61z"/>
		</g>
		<g>
			<path class="st1" d="M135.64,499.39c-6.59,0-12.51-1.52-17.58-4.52c-5.08-3-9.4-7.69-12.84-13.94c-3.48-6.3-5.98-14.3-7.44-23.76
				l-5.56-34.37h-4.09c-4.87,0-9.01,1.95-12.3,5.79c-3.25,3.8-4.9,8.98-4.9,15.41c0,6.1,1.71,11.57,5.07,16.24
				c3.15,4.37,7.3,7.67,12.33,9.82l-11.81,24.87c-6.27-2.32-11.75-5.94-16.3-10.76c-4.77-5.06-8.51-11.22-11.11-18.31
				c-2.61-7.11-3.93-14.98-3.93-23.41c0-10.01,1.83-18.98,5.45-26.66c3.6-7.64,8.68-13.66,15.08-17.91
				c6.39-4.23,13.94-6.38,22.42-6.38h78.92v29.08h-12.95l1.74,1.71c1.39,1.37,2.66,2.76,3.77,4.13c3.39,4.18,5.94,8.93,7.59,14.1
				c1.66,5.21,2.51,11.09,2.51,17.46c0,8.55-1.39,16.03-4.13,22.24c-2.72,6.15-6.66,10.94-11.73,14.22
				C148.8,497.72,142.67,499.39,135.64,499.39z M119.78,451.5c0.92,4.9,2.52,8.71,4.77,11.35c2.33,2.74,5.69,4.12,9.97,4.12
				c4.02,0,7.21-1.56,9.46-4.62c2.19-2.97,3.3-6.68,3.3-11.03c0-5.63-1.24-10.65-3.68-14.93c-2.45-4.28-5.82-7.66-10.04-10.03
				c-4.2-2.37-8.89-3.57-13.92-3.57h-5L119.78,451.5z"/>
			<path d="M166.05,392.5v27.08h-9.51h-4.88l3.48,3.42c1.37,1.35,2.61,2.71,3.7,4.05c3.31,4.08,5.8,8.72,7.42,13.78
				c1.63,5.11,2.46,10.89,2.46,17.15c0,8.41-1.36,15.75-4.05,21.84c-2.64,5.97-6.46,10.61-11.36,13.78
				c-4.89,3.17-10.84,4.78-17.67,4.78c-6.41,0-12.16-1.47-17.07-4.38c-4.92-2.91-9.12-7.47-12.48-13.56
				c-3.42-6.2-5.88-14.08-7.32-23.44l-5.42-33.52l-0.27-1.68h-1.7h-3.24c-5.18,0-9.57,2.06-13.06,6.14
				c-3.41,3.98-5.14,9.39-5.14,16.06c0,6.32,1.77,11.98,5.26,16.82c3.06,4.24,7.02,7.51,11.8,9.73l-10.98,23.11
				c-5.77-2.27-10.83-5.69-15.06-10.18c-4.67-4.96-8.34-11-10.9-17.97c-2.57-6.99-3.87-14.75-3.87-23.06
				c0-9.86,1.8-18.69,5.36-26.23c3.52-7.47,8.48-13.36,14.73-17.5c6.23-4.12,13.59-6.22,21.87-6.22H166.05 M134.53,467.98
				c4.36,0,7.81-1.69,10.27-5.03c2.32-3.14,3.5-7.05,3.5-11.62c0-5.8-1.28-10.99-3.82-15.42c-2.54-4.44-6.04-7.94-10.41-10.41
				c-4.35-2.45-9.2-3.7-14.41-3.7h-3.81h-2.39l0.42,2.35l4.92,27.55c0.95,5.06,2.63,9.03,5,11.81
				C126.33,466.47,129.94,467.98,134.53,467.98 M168.05,390.5H88.13c-8.73,0-16.39,2.19-22.98,6.55
				c-6.58,4.37-11.73,10.47-15.43,18.32c-3.7,7.85-5.55,16.87-5.55,27.08c0,8.58,1.33,16.5,4,23.75
				c2.66,7.25,6.44,13.47,11.32,18.65c4.88,5.18,10.73,8.96,17.54,11.32l12.65-26.64c-5.33-2.07-9.62-5.36-12.88-9.88
				c-3.25-4.51-4.88-9.73-4.88-15.65c0-6.22,1.55-11.13,4.66-14.76c3.11-3.62,6.96-5.44,11.54-5.44h3.24l5.42,33.52
				c1.48,9.62,4,17.65,7.55,24.09c3.55,6.44,7.96,11.21,13.21,14.32c5.25,3.11,11.29,4.66,18.09,4.66c7.25,0,13.51-1.7,18.76-5.11
				c5.25-3.4,9.29-8.29,12.1-14.65c2.81-6.36,4.22-13.91,4.22-22.64c0-6.51-0.85-12.43-2.55-17.76c-1.7-5.33-4.29-10.14-7.77-14.43
				c-1.17-1.45-2.46-2.85-3.85-4.22h11.51V390.5L168.05,390.5z M134.53,465.98c-4,0-7.07-1.25-9.21-3.77
				c-2.14-2.51-3.66-6.14-4.55-10.88l-4.92-27.53h3.81c4.88,0,9.36,1.15,13.43,3.44c4.07,2.3,7.29,5.51,9.66,9.66
				c2.37,4.15,3.55,8.96,3.55,14.43c0,4.14-1.03,7.62-3.11,10.43C141.12,464.57,138.23,465.98,134.53,465.98L134.53,465.98z"/>
		</g>
		<g>
			<path class="st1" d="M107.23,369.96c-11.75,0-22.45-2.79-31.79-8.3c-9.34-5.5-16.8-13.15-22.17-22.72
				c-5.37-9.58-8.09-20.47-8.09-32.37c0-8.85,1.54-17.17,4.59-24.71c3.04-7.53,7.34-14.07,12.76-19.42
				c5.2-5.13,11.38-8.91,18.39-11.25l11.65,27.05c-5.77,2.18-10.45,5.72-13.9,10.54c-3.66,5.11-5.51,11.09-5.51,17.79
				c0,5.93,1.47,11.3,4.37,15.96c2.9,4.65,6.99,8.36,12.16,11.02c5.15,2.65,11.13,4,17.77,4c6.65,0,12.63-1.34,17.77-4
				c5.17-2.66,9.27-6.37,12.16-11.02c2.9-4.65,4.37-10.02,4.37-15.96c0-6.84-1.86-12.87-5.52-17.9c-3.46-4.75-8.13-8.25-13.89-10.43
				l11.86-27.05c6.58,2.2,12.58,5.91,17.84,11.03c5.5,5.35,9.87,11.89,12.98,19.42c3.12,7.54,4.7,15.93,4.7,24.93
				c0,11.91-2.76,22.76-8.19,32.25c-5.44,9.5-12.98,17.15-22.4,22.72C129.71,367.13,118.98,369.96,107.23,369.96z"/>
			<path d="M134.74,252.45c6.1,2.18,11.68,5.71,16.6,10.5c5.4,5.26,9.69,11.68,12.76,19.09c3.07,7.42,4.62,15.68,4.62,24.54
				c0,11.73-2.71,22.41-8.06,31.75c-5.35,9.35-12.77,16.87-22.04,22.36c-9.26,5.49-19.82,8.27-31.39,8.27
				c-11.57,0-22.1-2.74-31.29-8.16c-9.19-5.41-16.53-12.93-21.8-22.34c-5.28-9.42-7.96-20.15-7.96-31.88
				c0-8.73,1.52-16.91,4.52-24.34c2.99-7.41,7.21-13.83,12.54-19.08c4.87-4.81,10.63-8.41,17.13-10.71l10.88,25.25
				c-5.51,2.27-10.01,5.8-13.39,10.51c-3.78,5.28-5.7,11.46-5.7,18.37c0,6.12,1.52,11.67,4.52,16.49c2.99,4.8,7.21,8.63,12.55,11.38
				c5.29,2.72,11.43,4.11,18.23,4.11c6.81,0,12.94-1.38,18.23-4.11c5.34-2.74,9.56-6.57,12.55-11.38c3-4.81,4.52-10.36,4.52-16.49
				c0-7.06-1.92-13.28-5.71-18.49c-3.37-4.64-7.86-8.13-13.37-10.39L134.74,252.45 M133.64,249.97l-12.65,28.86
				c6.07,2.07,10.88,5.55,14.43,10.43c3.55,4.88,5.33,10.66,5.33,17.32c0,5.77-1.41,10.92-4.22,15.43
				c-2.81,4.52-6.73,8.07-11.77,10.66c-5.03,2.59-10.8,3.88-17.32,3.88c-6.51,0-12.28-1.29-17.32-3.88
				c-5.03-2.59-8.95-6.14-11.77-10.66c-2.81-4.51-4.22-9.66-4.22-15.43c0-6.51,1.78-12.25,5.33-17.21
				c3.55-4.96,8.36-8.47,14.43-10.54l-12.43-28.86c-7.55,2.37-14.1,6.29-19.65,11.77c-5.55,5.48-9.88,12.06-12.99,19.76
				c-3.11,7.7-4.66,16.06-4.66,25.09c0,12.14,2.74,23.09,8.21,32.86c5.48,9.77,12.99,17.46,22.53,23.09
				c9.55,5.63,20.31,8.44,32.3,8.44c11.99,0,22.79-2.85,32.41-8.55c9.62-5.7,17.21-13.39,22.75-23.09
				c5.55-9.69,8.33-20.61,8.33-32.75c0-9.17-1.59-17.61-4.77-25.31c-3.18-7.69-7.58-14.28-13.21-19.76
				C147.11,256.04,140.75,252.19,133.64,249.97L133.64,249.97z"/>
		</g>
		<g>
			<path class="st1" d="M107.23,234.32c-11.91,0-22.64-2.68-31.92-7.97c-9.28-5.29-16.7-12.53-22.06-21.51
				c-5.36-8.98-8.07-19.26-8.07-30.57c0-9.44,1.51-17.9,4.48-25.15c2.97-7.23,7.18-13.42,12.52-18.41
				c5.35-4.99,11.63-8.84,18.65-11.45c7.04-2.61,14.8-3.93,23.07-3.93c2.32,0,4.64,0.11,6.9,0.33c1.89,0.18,3.56,0.5,4.98,0.94
				v85.31l1.13-0.14c3.2-0.41,6.2-1.21,8.92-2.38c5.35-2.29,9.57-5.86,12.55-10.6c2.97-4.73,4.48-10.51,4.48-17.18
				c0-6.07-1.24-11.35-3.68-15.7c-2.29-4.08-5.43-7.37-9.35-9.78l11.86-24.96c5.39,2.31,10.2,5.87,14.29,10.58
				c4.34,4.99,7.75,10.96,10.13,17.77c2.39,6.82,3.61,14.4,3.61,22.54c0,12.64-2.83,23.74-8.4,33.01
				c-5.58,9.27-13.18,16.55-22.59,21.61C129.3,231.75,118.7,234.32,107.23,234.32z M92.25,148.62c-2,0.2-3.9,0.59-5.65,1.17
				c-5.14,1.69-9.27,4.69-12.27,8.92c-2.99,4.23-4.51,9.46-4.51,15.56c0,5.95,1.48,11.14,4.39,15.44c2.92,4.3,7.26,7.56,12.91,9.7
				c1.51,0.57,3.2,1.07,5.02,1.47l1.22,0.27v-52.64L92.25,148.62z"/>
			<path d="M103.9,116.33c2.29,0,4.58,0.11,6.8,0.32c1.52,0.15,2.88,0.38,4.08,0.7v83.42v2.27l2.25-0.29
				c3.29-0.42,6.38-1.25,9.19-2.45c5.54-2.37,9.91-6.07,13-10.99c3.08-4.89,4.64-10.85,4.64-17.72c0-6.24-1.28-11.69-3.81-16.19
				c-2.22-3.97-5.23-7.21-8.94-9.66l11.06-23.28c4.9,2.26,9.28,5.59,13.05,9.93c4.25,4.89,7.6,10.76,9.94,17.44
				c2.36,6.71,3.55,14.18,3.55,22.2c0,12.45-2.78,23.38-8.26,32.49c-5.48,9.12-12.95,16.27-22.21,21.25
				c-9.28,5-19.71,7.53-31.02,7.53c-11.73,0-22.3-2.64-31.42-7.84c-9.12-5.21-16.42-12.32-21.7-21.15
				c-5.26-8.82-7.93-18.93-7.93-30.06c0-9.31,1.48-17.64,4.4-24.77c2.91-7.09,7.04-13.17,12.28-18.06
				c5.26-4.9,11.42-8.68,18.31-11.24C88.09,117.63,95.74,116.33,103.9,116.33 M94.35,202.4v-2.49v-50.29v-2.21l-2.2,0.22
				c-2.07,0.21-4.04,0.61-5.86,1.21c-5.35,1.76-9.65,4.89-12.77,9.29c-3.12,4.4-4.7,9.83-4.7,16.14c0,6.15,1.54,11.53,4.56,16
				c3.03,4.47,7.54,7.86,13.38,10.07c1.56,0.59,3.29,1.1,5.16,1.52L94.35,202.4 M103.9,114.33c-8.44,0-16.24,1.33-23.42,4
				c-7.18,2.66-13.5,6.55-18.98,11.66c-5.47,5.11-9.73,11.36-12.77,18.76c-3.03,7.4-4.55,15.91-4.55,25.53
				c0,11.54,2.74,21.91,8.21,31.08c5.48,9.18,12.95,16.47,22.42,21.87c9.47,5.4,20.28,8.1,32.41,8.1c11.69,0,22.35-2.59,31.97-7.77
				c9.62-5.18,17.28-12.5,22.98-21.98c5.7-9.47,8.55-20.65,8.55-33.52c0-8.29-1.22-15.91-3.66-22.87
				c-2.44-6.96-5.88-12.99-10.32-18.09c-4.44-5.11-9.62-8.84-15.54-11.21l-12.65,26.64c4.15,2.37,7.4,5.66,9.77,9.88
				c2.37,4.22,3.55,9.29,3.55,15.21c0,6.51-1.44,12.06-4.33,16.65c-2.89,4.59-6.92,7.99-12.1,10.21c-2.67,1.14-5.56,1.91-8.66,2.3
				v-84.89c-1.63-0.59-3.59-1-5.88-1.22C108.6,114.44,106.26,114.33,103.9,114.33L103.9,114.33z M92.35,199.9
				c-1.72-0.38-3.35-0.85-4.88-1.43c-5.47-2.07-9.62-5.18-12.43-9.32c-2.81-4.14-4.22-9.1-4.22-14.87c0-5.92,1.44-10.91,4.33-14.99
				c2.89-4.07,6.81-6.92,11.77-8.55c1.73-0.57,3.54-0.93,5.44-1.12V199.9L92.35,199.9z"/>
		</g>
		<g>
			<path class="st1" d="M125.65,78.16c6.22-3.13,11.2-7.35,14.81-12.55c3.8-5.47,5.73-11.64,5.73-18.33c0-4.94-1.04-8.8-3.09-11.49
				c-2.11-2.77-5.07-4.17-8.79-4.17c-1.98,0-3.7,0.51-5.13,1.51c-1.37,0.97-2.62,2.42-3.73,4.31c-1.07,1.84-2,4.16-2.76,6.9
				L116.92,65c-2.74,9.67-7.23,17.2-13.34,22.37c-6.07,5.15-13.36,7.76-21.66,7.76c-7.31,0-13.77-1.88-19.19-5.6
				c-5.44-3.72-9.77-9.04-12.86-15.8c-3.11-6.79-4.68-14.72-4.68-23.56c0-11.59,2.75-21.91,8.18-30.66
				C58.6,11.05,66.02,4.91,75.41,1.26L86.1,24.09c-4.75,1.91-8.64,5.16-11.57,9.67c-3.13,4.81-4.71,10.33-4.71,16.42
				c0,4.49,0.96,8.08,2.86,10.69c1.97,2.7,4.7,4.07,8.13,4.07c1.82,0,3.5-0.5,5-1.5c1.47-0.98,2.78-2.56,3.88-4.7
				c1.06-2.04,2.05-4.6,2.96-7.61l5.77-19.32c2.9-9.84,7.32-17.45,13.14-22.63c5.78-5.14,12.99-7.74,21.42-7.74
				c7.3,0,13.76,1.92,19.19,5.7c5.45,3.8,9.78,9.15,12.87,15.91c3.11,6.8,4.68,14.95,4.68,24.23c0,13.07-3.12,24.58-9.28,34.2
				c-5.97,9.34-14.06,15.86-24.06,19.39L125.65,78.16z"/>
			<path d="M132.98,2.44c7.09,0,13.36,1.86,18.61,5.52c5.3,3.7,9.52,8.91,12.53,15.51c3.05,6.67,4.59,14.68,4.59,23.81
				c0,12.87-3.07,24.2-9.12,33.67c-5.67,8.88-13.3,15.16-22.7,18.68l-9.94-21.02c5.97-3.16,10.78-7.33,14.32-12.42
				c3.92-5.64,5.91-12,5.91-18.9c0-5.16-1.11-9.23-3.3-12.09c-2.31-3.03-5.54-4.56-9.58-4.56c-2.19,0-4.1,0.57-5.71,1.7
				c-1.49,1.05-2.84,2.61-4.01,4.62c-1.11,1.91-2.08,4.31-2.86,7.13l-5.77,20.64c-2.69,9.48-7.07,16.84-13.02,21.89
				c-5.89,4.99-12.96,7.52-21.02,7.52c-7.1,0-13.37-1.82-18.63-5.42c-5.29-3.62-9.5-8.8-12.52-15.39
				c-3.05-6.66-4.59-14.45-4.59-23.14c0-11.4,2.7-21.54,8.03-30.14c4.96-8.01,11.92-13.89,20.7-17.49l9.85,21.03
				c-4.5,2.03-8.22,5.26-11.07,9.63c-3.23,4.97-4.87,10.68-4.87,16.96c0,4.7,1.03,8.5,3.05,11.28c2.16,2.98,5.17,4.49,8.94,4.49
				c2.02,0,3.89-0.56,5.55-1.67c1.61-1.08,3.03-2.78,4.22-5.07c1.09-2.1,2.11-4.72,3.03-7.79l5.77-19.32
				c2.84-9.66,7.16-17.11,12.84-22.16C117.81,4.96,124.79,2.44,132.98,2.44 M75.92,0C65.86,3.7,58.05,10.03,52.5,18.98
				c-5.55,8.96-8.33,19.35-8.33,31.19c0,9.03,1.59,17.02,4.77,23.98c3.18,6.96,7.59,12.36,13.21,16.21
				c5.63,3.85,12.21,5.77,19.76,5.77c8.58,0,16.02-2.66,22.31-7.99c6.29-5.33,10.84-12.95,13.65-22.87l5.77-20.65
				c0.74-2.66,1.63-4.88,2.66-6.66c1.04-1.78,2.18-3.11,3.44-4c1.26-0.89,2.78-1.33,4.55-1.33c3.41,0,6.07,1.26,7.99,3.77
				c1.93,2.52,2.89,6.14,2.89,10.88c0,6.51-1.85,12.43-5.55,17.76c-3.7,5.33-8.8,9.55-15.32,12.65l11.54,24.42
				c10.66-3.55,19.13-10.25,25.42-20.09c6.29-9.84,9.43-21.42,9.43-34.74c0-9.47-1.59-17.68-4.77-24.64
				c-3.18-6.95-7.58-12.39-13.21-16.32c-5.62-3.92-12.21-5.88-19.76-5.88c-8.73,0-16.09,2.66-22.09,7.99s-10.47,13.03-13.43,23.09
				l-5.77,19.31c-0.89,2.96-1.85,5.44-2.89,7.44c-1.03,2-2.22,3.44-3.55,4.33c-1.33,0.89-2.81,1.33-4.44,1.33
				c-3.11,0-5.55-1.22-7.33-3.66c-1.78-2.44-2.66-5.81-2.66-10.1c0-5.92,1.52-11.21,4.55-15.87c3.04-4.66,7.07-7.88,12.1-9.66
				L75.92,0L75.92,0z"/>
		</g>
	</g>
</g>
</svg>
