<svg width="50" height="50" viewBox="0 0 50 50" fill="none" xmlns="http://www.w3.org/2000/svg">
<path d="M4.16406 33.3307V16.6641C4.16406 9.7605 9.7605 4.16406 16.6641 4.16406H33.3307C40.2343 4.16406 45.8307 9.7605 45.8307 16.6641V33.3307C45.8307 40.2343 40.2343 45.8307 33.3307 45.8307H16.6641C9.7605 45.8307 4.16406 40.2343 4.16406 33.3307Z" stroke="black" stroke-width="2"/>
<path d="M12.5 27.0833V22.9167C12.5 20.6155 14.3655 18.75 16.6667 18.75H22.9167C25.2179 18.75 27.0833 20.6155 27.0833 22.9167V27.0833C27.0833 29.3846 25.2179 31.25 22.9167 31.25H16.6667C14.3655 31.25 12.5 29.3846 12.5 27.0833Z" stroke="black" stroke-width="2"/>
<path d="M35.4981 19.2054L29.1094 23.9971C28.4427 24.4971 28.4427 25.4971 29.1094 25.9971L35.4981 30.7887C36.3223 31.4069 37.4981 30.8187 37.4981 29.7887V20.2054C37.4981 19.1753 36.3223 18.5874 35.4981 19.2054Z" stroke="black" stroke-width="2" stroke-linecap="round" stroke-linejoin="round"/>
</svg>
