<svg width="129" height="33" viewBox="0 0 129 33" fill="none" xmlns="http://www.w3.org/2000/svg">
<g clip-path="url(#clip0_737_570)">
<path d="M54.7242 10.5067C54.7242 13.4898 53.6537 16.0342 51.5128 18.1364C49.3718 20.2386 46.7797 21.2879 43.74 21.2879C40.7004 21.2879 38.0152 20.2737 35.799 18.2452C33.5829 16.2167 32.4766 13.7284 32.4766 10.7769C32.4766 7.82543 33.5471 5.24945 35.688 3.14724C37.829 1.04504 40.4211 -0.0078125 43.4608 -0.0078125C46.5004 -0.0078125 49.1856 1.00644 51.4018 3.03494C53.6179 5.06344 54.7242 7.55169 54.7242 10.5032V10.5067ZM52.1644 10.4506C52.1644 8.13778 51.3123 6.17947 49.6045 4.57913C47.8967 2.97879 45.8488 2.17511 43.4572 2.17511C41.0656 2.17511 39.1072 3.01388 37.4782 4.68792C35.8456 6.36196 35.0293 8.37643 35.0293 10.7243C35.0293 13.0722 35.8778 14.9884 37.5748 16.5817C39.2719 18.175 41.3234 18.9717 43.7365 18.9717C46.1495 18.9717 48.0865 18.1329 49.7155 16.4588C51.3481 14.7848 52.1644 12.7809 52.1644 10.4506Z" fill="white"/>
<path d="M70.3953 10.8778H61.7454V20.7465H58.9922V0.570312H70.3953V2.69708H61.7454V8.80364H70.3953V10.8743V10.8778Z" fill="white"/>
<path d="M85.7264 10.7684H77.0765V20.6372H74.6562V0.460938H85.7264V2.58771H77.0765V8.69427H85.7264V10.7649V10.7684Z" fill="white"/>
<path d="M92.4046 20.7465H89.9844V0.570312H92.4046V20.7465Z" fill="white"/>
<path d="M113.556 19.8498C112.593 20.2499 111.612 20.5588 110.621 20.7763C109.629 20.9939 108.623 21.1027 107.602 21.1027C106.174 21.1027 104.81 20.8746 103.514 20.4219C102.214 19.9692 101.029 19.2778 99.955 18.3513C97.7674 16.1684 96.6719 13.5994 96.6719 10.6338C96.6719 8.70711 97.1015 7.05413 97.9643 5.67138C98.8272 4.28863 99.6685 3.23227 100.496 2.49527C101.319 1.75827 102.11 1.24237 102.859 0.940551C103.61 0.642242 104.223 0.43518 104.695 0.326385C105.168 0.21759 105.651 0.136871 106.142 0.0807189C106.632 0.0245666 107.112 0 107.574 0C108.261 0 108.984 0.0596618 109.743 0.175476C110.502 0.2948 111.265 0.463256 112.024 0.680847L113.553 1.36169V4.03244C111.827 2.83218 109.937 2.23205 107.878 2.23205C106.489 2.23205 105.189 2.50931 103.983 3.06381C102.776 3.61831 101.738 4.46762 100.868 5.61172C100.367 6.33819 99.9836 7.13134 99.7151 7.98415C99.4466 8.84048 99.3105 9.71084 99.3105 10.6023C99.3105 12.1464 99.7043 13.5959 100.492 14.9505C101.28 16.3052 102.364 17.323 103.746 18.0038C105.128 18.6847 106.532 19.0251 107.96 19.0251C109.5 19.0251 110.882 18.6531 112.106 17.9056L113.553 17.0071V19.8428L113.556 19.8498Z" fill="white"/>
<path d="M129.001 20.7387H117.82V0.5625H129.001V2.74542H120.294V8.71511H129.001V10.7857H120.294V18.5558H129.001V20.7387Z" fill="white"/>
<path d="M61.0996 31.2445C61.4397 31.4481 61.9374 31.62 62.4601 31.62C63.237 31.62 63.6917 31.2164 63.6917 30.6374C63.6917 30.0969 63.3766 29.7916 62.5818 29.4897C61.6223 29.1563 61.028 28.6685 61.028 27.8543C61.028 26.9559 61.787 26.2891 62.9327 26.2891C63.5341 26.2891 63.9709 26.4259 64.2323 26.5698L64.0211 27.177C63.8277 27.0752 63.4375 26.9032 62.904 26.9032C62.1021 26.9032 61.7942 27.3735 61.7942 27.7666C61.7942 28.307 62.1522 28.5702 62.9649 28.8791C63.9602 29.2546 64.465 29.7249 64.465 30.5742C64.465 31.4656 63.7919 32.2342 62.4064 32.2342C61.8407 32.2342 61.2177 32.0727 60.9062 31.8657L61.0996 31.241V31.2445Z" fill="white"/>
<path d="M74.0771 32.9958C73.2823 32.7887 72.5054 32.5606 71.8251 32.3289C71.7034 32.2868 71.5817 32.2447 71.4671 32.2447C70.0708 32.1921 68.875 31.1848 68.875 29.3283C68.875 27.4718 70.0278 26.2891 71.6175 26.2891C73.2071 26.2891 74.2525 27.5034 74.2525 29.2055C74.2525 30.6865 73.5544 31.6376 72.577 31.971V32.0061C73.1606 32.15 73.7978 32.2868 74.2955 32.3746L74.0771 32.9993V32.9958ZM73.447 29.2406C73.447 28.0859 72.8348 26.8962 71.5888 26.8962C70.3429 26.8962 69.677 28.0614 69.6841 29.3108C69.677 30.5356 70.3644 31.6376 71.553 31.6376C72.7417 31.6376 73.447 30.5601 73.447 29.2406Z" fill="white"/>
<path d="M79.7037 26.3828V29.7976C79.7037 31.0891 80.2873 31.6366 81.0749 31.6366C81.9485 31.6366 82.507 31.0715 82.507 29.7976V26.3828H83.2768V29.7449C83.2768 31.5172 82.3244 32.2437 81.0499 32.2437C79.8469 32.2437 78.9375 31.5664 78.9375 29.78V26.3828H79.7073H79.7037Z" fill="white"/>
<path d="M88.9588 30.3423L88.3466 32.1568H87.5625L89.5603 26.3906H90.4768L92.4853 32.1568H91.6726L91.0425 30.3423H88.9552H88.9588ZM90.8886 29.7598L90.3121 28.0998C90.1797 27.7242 90.0937 27.3803 90.0078 27.0469H89.9899C89.904 27.3908 89.8073 27.7418 89.6927 28.0927L89.1163 29.7598H90.8886Z" fill="white"/>
<path d="M97.0504 26.4631C97.4335 26.3859 97.9849 26.3438 98.5076 26.3438C99.3203 26.3438 99.843 26.4876 100.208 26.814C100.505 27.0702 100.67 27.4633 100.67 27.909C100.67 28.6706 100.18 29.1759 99.5602 29.3795V29.4041C100.015 29.5585 100.283 29.9691 100.423 30.5692C100.616 31.3729 100.756 31.9309 100.878 32.152H100.094C99.997 31.9906 99.8681 31.4922 99.6998 30.7728C99.5244 29.9761 99.2093 29.6778 98.5219 29.6532H97.8059V32.152H97.0469V26.4631H97.0504ZM97.8095 29.0917H98.5864C99.3991 29.0917 99.9146 28.6565 99.9146 27.9967C99.9146 27.2527 99.3633 26.9263 98.5613 26.9193C98.1961 26.9193 97.9312 26.9544 97.8095 26.9895V29.0952V29.0917Z" fill="white"/>
<path d="M108.508 29.4509H106.22V31.5321H108.769V32.1568H105.461V26.3906H108.64V27.0153H106.224V28.8368H108.511V29.4544L108.508 29.4509Z" fill="white"/>
<path d="M23.7657 0H1.34259H0V1.31607V26.3038V27.3146V27.6234H18.3559H19.6985V26.3038V15.3541V14.0346H18.3559H14.8222L17.1387 10.5356L16.8021 10.3215L14.6754 13.5327H9.58791V14.0346H6.89914H5.55655V15.3541V24.9737H6.89914V15.3541H18.3559V26.3038H1.34259V1.31607H23.7657V30.9469H6.89914V28.9535H5.55655V30.9469V31.9822V32.2665H23.7657H25.1119V30.9469V1.31607V0H23.7657Z" fill="white"/>
</g>
<defs>
<clipPath id="clip0_737_570">
<rect width="129" height="33" fill="white"/>
</clipPath>
</defs>
</svg>
